<svg xmlns="http://www.w3.org/2000/svg" viewBox="0 0 18 18"><path d="M4.36666 12.83611a1.21247 1.21247 0 0 1 -.29986 -.77377L3.999 3.237a2.99479 2.99479 0 0 1 .3369 -.85806C3.843 3.11 2.737 4.496 2.555 4.773A3.1789 3.1789 0 0 0 2.00537 6.1676v8.45a1.05686 1.05686 0 0 0 .32833 .937l2.033-2.719" fill="#ff7878"/><path d="M15.99221 4.87559a2.68347 2.68347 0 0 0 -.36139 -1.373l-.409-.828a2.01017 2.01017 0 0 1 .08512 .56243l.067 8.826a1.20689 1.20689 0 0 1 -.24041 .72606 2.78559 2.78559 0 0 1 -.399 .34728c-.014.008-.026.018-.04.025a1.14367 1.14367 0 0 1 -.55219 .1426H5.317c-.02 0-.038-.006-.058-.007a1.16739 1.16739 0 0 1 -.45759 -.115L4.796 13.179a1.27527 1.27527 0 0 1 -.28795 -.20193 1.747 1.747 0 0 1 -.14123 -.16685S2.735 15.03 2.334 15.555a1.61207 1.61207 0 0 0 .683 .30332 5.41919 5.41919 0 0 0 .98405 .10119H14.759a1.29685 1.29685 0 0 0 1.22643 -1.08146C15.993 14.762 15.992 4.876 15.992 4.876" fill="#c52f30"/><path d="M14.05687 1.993a1.31371 1.31371 0 0 1 1.31787 1.24352v8.826a1.23048 1.23048 0 0 1 -1.23159 1.24107H5.317a1.318 1.318 0 0 1 -1.31785 -1.24655v-8.82A1.231 1.231 0 0 1 5.23105 1.993" fill="#ed3b3b"/><path fill="#c52f30" d="m15.857 2.089l-.002.017"/><path d="m4.858 1.815l-.038.049c.012-.011.028-.017.04-.027" fill="#fce481"/><path fill="#c52f30" d="m5.134 5.659l-2.689 3.635 1.318 5.39 3.169-1.544-.347-6.294-1.01 1.377-.445-2.564"/><circle cx="13.51" cy="4.511" r="1.482" fill="#fff"/><circle cx="13.51" cy="4.511" r=".522"/><path d="M12.0206 4.29088a.50006 .50006 0 0 1 -.27344 -.91895l2.555-1.667a.50028 .50028 0 1 1 .54688 .83789L12.294 4.21A.50372 .50372 0 0 1 12.0206 4.29088" fill="#020202"/><circle cx="8.503" cy="4.511" r="1.482" fill="#fff"/><circle cx="8.503" cy="4.511" r=".522"/><g fill="#020202"><path d="M9.99228,4.29088a.50372.50372,0,0,1-.27344-.08105l-2.55469-1.667A.50028.50028,0,1,1,7.711,1.70494l2.55469,1.667a.50006.50006,0,0,1-.27344.91895Z"/><rect x="7.992" y="9.993" width="5" height="1" rx=".5"/></g><path d="m3.409 7.85v-2.01a1.01179 1.01179 0 0 1 .91864 -1.00082 .99876 .99876 0 0 1 1.11878 .95944v1.208a.99876 .99876 0 0 1 1.11878 -.95945 1.01179 1.01179 0 0 1 .91862 1.00081v3.552a1.01748 1.01748 0 0 1 1.13374 -.6831 1.00474 1.00474 0 0 1 .8584 .98937v.73c0 2.651-.941 4.8-3.742 4.8h-.623c-4.224 0-3.822-5.838-3.822-5.838v-2.758a1.17328 1.17328 0 0 1 1.00115 -1.07894 .99876 .99876 0 0 1 1.11878 .95944v2.268" fill="#fff"/><g fill="#c52f30"><path d="m5.733 16.934h-.623a3.72847 3.72847 0 0 1 -2.84375 -1.17285c-1.689-1.81-1.486-5.062-1.477-5.199l-.001-2.725a1.68124 1.68124 0 0 1 1.45608 -1.57715 1.57362 1.57362 0 0 1 .66406 .082v-.505a1.51831 1.51831 0 0 1 1.373 -1.499 1.566 1.566 0 0 1 1.19043 .39551 1.45444 1.45444 0 0 1 .46387 .89746 1.63386 1.63386 0 0 1 .67285 -.085 1.51768 1.51768 0 0 1 1.374 1.499v2.43a1.62018 1.62018 0 0 1 .70508 -.05566 1.5084 1.5084 0 0 1 1.28711 1.48437v.73c0 3.418-1.507 5.3-4.242 5.3m-3.34473-9.68067a.49491 .49491 0 0 0 -.05371 .00293 .68751 .68751 0 0 0 -.55078 .65039l.005 2.689c-.003.063-.183 2.995 1.211 4.484a2.72794 2.72794 0 0 0 2.11035 .85352h.623c2.151 0 3.242-1.446 3.242-4.3v-.73a.50188 .50188 0 0 0 -.42963 -.49417 .51161 .51161 0 0 0 -.585 .33594 .49993 .49993 0 0 1 -.97754 -.14746v-3.553a.51089 .51089 0 0 0 -.46387 -.50293 .54824 .54824 0 0 0 -.4248 .13672 .43953 .43953 0 0 0 -.14844 .3252 .5 .5 0 0 1 -1 0v-1.208a.43591 .43591 0 0 0 -.14844 -.32422 .55361 .55361 0 0 0 -.42578 -.1377 .51 .51 0 0 0 -.46289 .50293v4.148a.5 .5 0 0 1 -1 0v-2.269a.43543 .43543 0 0 0 -.14844 -.32324 .547 .547 0 0 0 -.37204 -.14063"/><path d="M5.45029 10.49987a.49971 .49971 0 0 1 -.5 -.5V6.275a.5 .5 0 0 1 1 0V10A.49971 .49971 0 0 1 5.45029 10.49987"/></g><path d="m7.484 10.598v1.647a5.07736 5.07736 0 0 0 -2.79515 -.25175" fill="#fff"/><path d="M7.48251,12.745a.48639.48639,0,0,1-.19141-.03906,4.62667,4.62667,0,0,0-2.4873-.22656.49465.49465,0,0,1-.60156-.37109.49989.49989,0,0,1,.37109-.60156,5.21638,5.21638,0,0,1,2.41016.05762V10.5985a.5.5,0,0,1,1,0V12.245a.5.5,0,0,1-.501.5Z" fill="#c52f30"/></svg>