<svg xmlns="http://www.w3.org/2000/svg" viewBox="0 0 16 16"><path d="M3.32428 11.882a1.19914 1.19914 0 0 1 -.33276 -.80042v-8.82a1.22063 1.22063 0 0 1 .31854 -.82178c.005-.01-1.581 2.081-1.763 2.358A3.17924 3.17924 0 0 0 .99744 5.19226v8.45a1.05676 1.05676 0 0 0 .32837 .937l.357-.478C2.253 13.336 3.184 12.07 3.324 11.882" fill="#a5e2f9"/><g fill="#5597b8"><path d="M14.98431 3.90027a2.68352 2.68352 0 0 0 -.36139 -1.373L14.26 1.791a1.14836 1.14836 0 0 1 .10681 .47V11.09v.002a1.21692 1.21692 0 0 1 -.08252 .42413 1.18064 1.18064 0 0 1 -.09949 .18939c-.021.036-.034.077-.058.111l-.048.048a3.11061 3.11061 0 0 1 -.26837 .23853 1.00378 1.00378 0 0 1 -.08289 .06067c-.014.008-.026.018-.04.025l-.009.004a1.18179 1.18179 0 0 1 -.14618 .05865 1.20815 1.20815 0 0 1 -.39612 .0802H4.309a1.35266 1.35266 0 0 1 -.97437 -.43658L1.683 14.1c-.149.2-.279.375-.357.478a1.61234 1.61234 0 0 0 .68292 .30334 5.422 5.422 0 0 0 .98407 .1012H13.751a1.29692 1.29692 0 0 0 1.22644 -1.08148C14.986 13.786 14.984 3.9 14.984 3.9"/><path d="m1.683 14.1l1.652-2.211-.011-.01c-.14.19-1.071 1.454-1.641 2.22"/><path d="m14.214 1.699l.004.017c.008.014.018.027.025.042"/></g><g fill="#69c6f4"><path d="m14.26 1.791l-.016-.033c-.007-.015-.018-.028-.025-.042a1.35557 1.35557 0 0 0 -1.16925 -.69812h-8.826a1.21437 1.21437 0 0 0 -.913 .42175 1.22063 1.22063 0 0 0 -.31854 .82178v8.82a1.19914 1.19914 0 0 0 .33276 .80042l.011.01a1.35266 1.35266 0 0 0 .97437 .43658h8.826a1.20815 1.20815 0 0 0 .39685 -.08032 1.18179 1.18179 0 0 0 .14618 -.05865 1.98208 1.98208 0 0 0 .40039 -.328 1.21964 1.21964 0 0 0 .10583 -.15863 1.18064 1.18064 0 0 0 .09949 -.18939 1.21692 1.21692 0 0 0 .08252 -.42413v-.002-8.826a1.14836 1.14836 0 0 0 -.10685 -.47003"/><path d="M14.07861,11.86114a1.19883,1.19883,0,0,1-.26837.23853A3.11061,3.11061,0,0,0,14.07861,11.86114Z"/></g><path fill="#5597b8" d="m14.342 1.049l-.002.017"/><path d="m3.343.775l-.038.049c.012-.011.028-.017.04-.027" fill="#fce481"/><circle cx="5.227" cy="5.976" r="2.01" fill="#5597b8"/><circle cx="5.719" cy="5.484" r="1.5" fill="#fff"/><g fill="#221f1f"><circle cx="5.719" cy="5.484" r=".5" transform="matrix(.77006-.63797.63797.77006-2.184 4.91)"/><path d="M3.69629,5.87445a.48951.48951,0,0,1-.1416-.02051.5.5,0,0,1-.33789-.62109A2.99973,2.99973,0,0,1,7.71387,3.55511a.4998.4998,0,0,1-.53906.8418,1.99979,1.99979,0,0,0-2.999,1.11914A.50092.50092,0,0,1,3.69629,5.87445Z"/></g><circle cx="12.13" cy="5.976" r="2.01" fill="#5597b8"/><circle cx="11.639" cy="5.484" r="1.5" fill="#fff"/><g fill="#221f1f"><circle cx="11.639" cy="5.484" r=".5"/><path d="M13.66211,5.87445a.50033.50033,0,0,1-.47949-.3584,1.99979,1.99979,0,0,0-2.999-1.11914.4998.4998,0,1,1-.53906-.8418A2.99973,2.99973,0,0,1,14.1416,5.23285a.5.5,0,0,1-.33789.62109A.48951.48951,0,0,1,13.66211,5.87445Z"/><rect x="6.679" y="9.984" width="4" height="1" rx=".5"/></g></svg>