<svg xmlns="http://www.w3.org/2000/svg" viewBox="0 0 18 18"><path d="M4.37438 13.87649a1.21247 1.21247 0 0 1 -.29986 -.77377L4.01 4.277a2.99479 2.99479 0 0 1 .3369 -.85806c-.493.732-1.6 2.118-1.781 2.395A3.1789 3.1789 0 0 0 2.01309 7.208v8.45a1.05686 1.05686 0 0 0 .32833 .937L4.374 13.876" fill="#cdf7a1"/><path d="M15.99993 5.916a2.68347 2.68347 0 0 0 -.36139 -1.373L15.23 3.715a2.01017 2.01017 0 0 1 .08512 .56243l.067 8.826a1.20689 1.20689 0 0 1 -.24041 .72606 2.78559 2.78559 0 0 1 -.399 .34728c-.014.008-.026.018-.04.025a1.14367 1.14367 0 0 1 -.55219 .1426H5.325c-.02 0-.038-.006-.058-.007a1.16739 1.16739 0 0 1 -.45759 -.115l-.006-.002a1.27527 1.27527 0 0 1 -.28795 -.20193 1.747 1.747 0 0 1 -.14123 -.16685S2.742 16.07 2.341 16.595a1.61207 1.61207 0 0 0 .683 .30332A5.41919 5.41919 0 0 0 4.00842 17H14.767a1.29685 1.29685 0 0 0 1.22643 -1.08146C16 15.802 16 5.916 16 5.916" fill="#59813c"/><path d="M14.06459 3.03341a1.31371 1.31371 0 0 1 1.31787 1.24352v8.826a1.23048 1.23048 0 0 1 -1.23159 1.24107H5.325a1.318 1.318 0 0 1 -1.31785 -1.24655v-8.82A1.231 1.231 0 0 1 5.23877 3.03341" fill="#9ae84f"/><rect x="6.475" y="11.779" width="4" height="1" rx=".5" transform="matrix(.70711-.70711.70711.70711-6.201 9.589)"/><rect x="8.596" y="11.779" width="4" height="1" rx=".5" transform="matrix(.70711.70711-.70711.70711 11.786-3.896)"/><circle cx="9.535" cy="6.655" r=".574" fill="#ed3b3b"/><circle cx="6.606" cy="8.606" r="1.606" fill="#fff"/><circle cx="6.606" cy="8.606" r=".505" fill="#020202"/><circle cx="12.603" cy="8.606" r="1.606" fill="#fff"/><circle cx="12.603" cy="8.606" r=".505" fill="#020202"/><path d="m14.03 2.031c-1.838-.777-7.155-.777-8.992 0-2.118.895-3.407 2.633-2.879 3.88s2.672 1.533 4.789.638a5.609 5.609 0 0 0 2.58612 -2.05953 5.60963 5.60963 0 0 0 2.58612 2.05951c2.118.895 4.262.61 4.789-.638s-.762-2.985-2.879-3.88" fill="#fff"/><g fill="#d0d2d3"><path d="M14.53125 7.57324a6.77058 6.77058 0 0 1 -2.60449 -.56348 6.59007 6.59007 0 0 1 -2.3916 -1.68359 6.59007 6.59007 0 0 1 -2.3916 1.68359c-2.409 1.016-4.799.621-5.444-.904A2.58 2.58 0 0 1 2.20605 3.541a6.397 6.397 0 0 1 2.63867 -1.9707c1.973-.834 7.408-.834 9.381 0A6.392 6.392 0 0 1 16.86523 3.541a2.5842 2.5842 0 0 1 .50684 2.56445A2.87936 2.87936 0 0 1 14.53125 7.57324m-4.99609-3.584a.49845 .49845 0 0 1 .4248 .23633 5.12812 5.12812 0 0 0 2.35547 1.8623c1.829.774 3.725.603 4.135-.371a1.71845 1.71845 0 0 0 -.38867 -1.58008 5.38 5.38 0 0 0 -2.22461 -1.64453c-1.729-.732-6.875-.732-8.604 0A5.39277 5.39277 0 0 0 3.00879 4.13672a1.72249 1.72249 0 0 0 -.38867 1.5791c.413.975 2.307 1.145 4.135.372a5.12812 5.12812 0 0 0 2.35547 -1.8623A.49845 .49845 0 0 1 9.53516 3.98926"/><path d="M6.625 5.41211a.375 .375 0 0 1 -.09277 -.73828l5.82-1.493a.37494 .37494 0 0 1 .18555 .72656L6.718 5.4A.38342 .38342 0 0 1 6.625 5.41211"/><path d="M12.50684 5.40039a.41022 .41022 0 0 1 -.08984 -.01074L6.474 3.92a.37517 .37517 0 0 1 .17969 -.72852l5.943 1.47a.37507 .37507 0 0 1 -.08984 .73926"/></g></svg>