<svg xmlns="http://www.w3.org/2000/svg" viewBox="0 0 16 16"><g stroke-linejoin="round" stroke-linecap="round"><g fill="#f9db17" stroke="#c9b220"><path d="M12.18572,7.591V5.12831a1.02484,1.02484,0,0,0-.84579-.96326.86078.86078,0,0,0-.94514.85657V3.49586a.88559.88559,0,0,0-.77607-.89355.86078.86078,0,0,0-.94515.85657V1.66282A.88558.88558,0,0,0,7.89751.76928a.86078.86078,0,0,0-.94514.85657V2.70451A.86078.86078,0,0,0,6.00722,1.848a.88558.88558,0,0,0-.77606.89354V7.59278a.85741.85741,0,0,0-.95778-.60991.88288.88288,0,0,0-.72518.88329v3.08343a4.28517,4.28517,0,0,0,4.28517,4.28517h0a4.28517,4.28517,0,0,0,4.28517-4.28517Z"/><path d="m5.231 7.521l.03 2.863s3.093-.41 3.743 1.257"/><path d="m6.949 2.058v5.04"/><path d="m8.68 1.994v5.04"/><path d="m10.417 4.344v2.693"/></g><path d="M15.43781,7.84364a7.43146,7.43146,0,0,0-2.991-5.9586m-8.5181-.26339a7.43768,7.43768,0,0,0-3.36648,6.222" fill="none" stroke="#ed3b3b"/></g></svg>