<svg xmlns="http://www.w3.org/2000/svg" viewBox="0 0 16 16"><path d="M3.36164 11.84308a1.21247 1.21247 0 0 1 -.29986 -.77377L2.994 2.244a2.99479 2.99479 0 0 1 .3369 -.85806C2.838 2.117 1.732 3.503 1.55 3.78a3.1789 3.1789 0 0 0 -.54956 1.39446V13.625a1.05686 1.05686 0 0 0 .32833 .937l2.033-2.719" fill="#fce481"/><path d="M14.9872 3.88256a2.68347 2.68347 0 0 0 -.36139 -1.373l-.409-.828a2.01017 2.01017 0 0 1 .08512 .56243l.067 8.826a1.20689 1.20689 0 0 1 -.24041 .72606 2.78559 2.78559 0 0 1 -.399 .34728c-.014.008-.026.018-.04.025a1.14367 1.14367 0 0 1 -.55219 .1426H4.312c-.02 0-.038-.006-.058-.007a1.16739 1.16739 0 0 1 -.45759 -.115l-.006-.002a1.27527 1.27527 0 0 1 -.28795 -.20193 1.747 1.747 0 0 1 -.14123 -.16685s-1.632 2.215-2.033 2.745a1.61207 1.61207 0 0 0 .683 .30332 5.41919 5.41919 0 0 0 .98405 .10119H13.754a1.29685 1.29685 0 0 0 1.22643 -1.08146C14.988 13.768 14.987 3.883 14.987 3.883" fill="#c4aa10"/><path d="M13.05185 1a1.31371 1.31371 0 0 1 1.31787 1.24352v8.826a1.23048 1.23048 0 0 1 -1.23159 1.24107H4.312a1.318 1.318 0 0 1 -1.31785 -1.24655v-8.82A1.231 1.231 0 0 1 4.226 1" fill="#fdd810"/><path d="m3.164.975l-.038.049c.012-.011.028-.017.04-.027" fill="#fce481"/><g fill="#020202"><circle cx="5.973" cy="4.03" r=".973" transform="matrix(.96936-.24565.24565.96936-.806 1.591)"/><path d="M13.15234,2.86914a.48688.48688,0,0,1-.24609-.06543,2.32065,2.32065,0,0,0-1.81641-.207.5.5,0,0,1-.2832-.959,3.31324,3.31324,0,0,1,2.5918.29688.49984.49984,0,0,1-.24609.93457Z"/><path d="M4.60449,3.09668A.50007.50007,0,0,1,4.165,2.3584,3.30743,3.30743,0,0,1,6.207.73535a.49969.49969,0,0,1,.26758.96289A2.32127,2.32127,0,0,0,5.04395,2.835.50025.50025,0,0,1,4.60449,3.09668Z"/></g><path d="M12.0498,5.44531a1.50164,1.50164,0,0,1-1.5-1.5.5.5,0,0,1,1,0,.5.5,0,0,0,1,0,.5.5,0,0,1,1,0A1.50164,1.50164,0,0,1,12.0498,5.44531Z"/><path d="m12.682 7.03c-1.111 0-2.187 1.236-3.828 1.236s-2.717-1.236-3.828-1.236c-.551 0-.785.787-.616 1.2a3.54324 3.54324 0 0 0 1.50144 1.487 6.17418 6.17418 0 0 0 2.94331 .91286 6.26074 6.26074 0 0 0 2.93888 -.90466 3.40969 3.40969 0 0 0 1.50587 -1.49519c.158-.416-.065-1.2-.616-1.2" fill="#fff"/><path d="M8.85352,11.13184a6.625,6.625,0,0,1-3.2002-.98437,4.06515,4.06515,0,0,1-1.707-1.72754A1.55932,1.55932,0,0,1,4.11719,7.041a1.07727,1.07727,0,0,1,.9082-.50879,3.95431,3.95431,0,0,1,1.76563.583,4.50479,4.50479,0,0,0,2.0625.65332,4.50479,4.50479,0,0,0,2.0625-.65332,3.95431,3.95431,0,0,1,1.76563-.583,1.06782,1.06782,0,0,1,.89355.49023,1.59133,1.59133,0,0,1,.19043,1.38672,3.92975,3.92975,0,0,1-1.71973,1.748A6.76541,6.76541,0,0,1,8.85352,11.13184ZM5.02539,7.53223c-.02734,0-.05762.03613-.07812.06543a.5868.5868,0,0,0-.0752.44434A3.09976,3.09976,0,0,0,6.167,9.29a5.67064,5.67064,0,0,0,2.68652.8418,5.72487,5.72487,0,0,0,2.68457-.83594,2.9636,2.9636,0,0,0,1.292-1.24121.61814.61814,0,0,0-.07812-.46387l-.07031-.05859a3.25866,3.25866,0,0,0-1.31152.47363,5.37432,5.37432,0,0,1-2.5166.7627,5.37432,5.37432,0,0,1-2.5166-.7627A3.25866,3.25866,0,0,0,5.02539,7.53223Z" fill="#e63b48"/></svg>