<svg xmlns="http://www.w3.org/2000/svg" viewBox="0 0 18 18"><path d="M4.37727 13.86736a1.21247 1.21247 0 0 1 -.29986 -.77377L4.01 4.268a2.99479 2.99479 0 0 1 .3369 -.85806c-.493.732-1.6 2.118-1.781 2.395A3.1789 3.1789 0 0 0 2.016 7.19885v8.45a1.05686 1.05686 0 0 0 .32833 .937l2.033-2.719" fill="#b8c2c4"/><path d="M16.00282 5.90684a2.68347 2.68347 0 0 0 -.36139 -1.373l-.409-.828a2.01017 2.01017 0 0 1 .08512 .56243l.067 8.826a1.20689 1.20689 0 0 1 -.24041 .72606 2.78559 2.78559 0 0 1 -.399 .34728c-.014.008-.026.018-.04.025a1.14367 1.14367 0 0 1 -.55219 .1426H5.328c-.02 0-.038-.006-.058-.007a1.16739 1.16739 0 0 1 -.45759 -.115l-.006-.002a1.27527 1.27527 0 0 1 -.28795 -.20193 1.747 1.747 0 0 1 -.14123 -.16685s-1.632 2.215-2.033 2.745a1.61207 1.61207 0 0 0 .683 .30332 5.41919 5.41919 0 0 0 .98405 .10119H14.77A1.29685 1.29685 0 0 0 15.996 15.90941C16 15.793 16 5.907 16 5.907" fill="#656868"/><g fill="#909596"><path d="M14.06748 3.02428A1.31371 1.31371 0 0 1 15.38535 4.2678v8.826a1.23048 1.23048 0 0 1 -1.23159 1.24107H5.328a1.318 1.318 0 0 1 -1.31785 -1.24655v-8.82A1.231 1.231 0 0 1 5.24166 3.02428"/><path d="m8.01 3.02l-3.286-2.465a.44613 .44613 0 0 0 -.7138 .3569v4.108h3"/><path d="m11.385 3.02l3.286-2.465a.44613 .44613 0 0 1 .7138 .3569v4.108h-3"/></g><g fill="#231f20"><path d="M11.21 12.19107a1.64049 1.64049 0 0 1 -.376 -.04395c-1.191-.281-1.733-1.813-1.792-1.986a.51085 .51085 0 0 1 -.02539 -.1582v-2a.5 .5 0 1 1 1 0V9.915c.136.354.533 1.139 1.049 1.26.303.065.678-.106 1.098-.525a.49995 .49995 0 0 1 .707 .707A2.40461 2.40461 0 0 1 11.21 12.19107"/><path d="M7.82324 12.19107a2.40461 2.40461 0 0 1 -1.66016 -.835 .49995 .49995 0 0 1 .707 -.707c.42.42.789.595 1.098.525.516-.121.913-.905 1.049-1.26V8a.5 .5 0 1 1 1 0v2a.51085 .51085 0 0 1 -.02539 .1582c-.059.174-.601 1.705-1.792 1.986A1.64049 1.64049 0 0 1 7.82324 12.19107"/></g><path d="m8.516 7.481h2l-.465 1.146a.64234 .64234 0 0 1 -1.07055 0" fill="#f7b3d1"/><circle cx="6.02" cy="6.627" r="2.5" fill="#fff"/><path d="M6.0166 9.62759a3 3 0 1 1 3 -3A3.00328 3.00328 0 0 1 6.0166 9.62759m0-5a2 2 0 1 0 2 2A2.00261 2.00261 0 0 0 6.0166 4.62759" fill="#231f20"/><path d="m8.516 6.127s.167-.479 1-.479 1 .479 1 .479" fill="#fff"/><g fill="#231f20"><path d="m8.977 6.323l-.933-.359a1.417 1.417 0 0 1 1.47266 -.81543 1.417 1.417 0 0 1 1.47266 .81543l-.945.328v.003a.70787 .70787 0 0 0 -.52835 -.14649c-.438 0-.536.168-.54.175"/><circle cx="6.02" cy="6.627" r=".458" transform="matrix(.5-.86603.86603.5-2.731 8.524)"/></g><circle cx="13.02" cy="6.627" r="2.5" fill="#fff"/><g fill="#231f20"><path d="M13.0166 9.62759a3 3 0 1 1 3 -3A3.00328 3.00328 0 0 1 13.0166 9.62759m0-5a2 2 0 1 0 2 2A2.00261 2.00261 0 0 0 13.0166 4.62759"/><circle cx="13.02" cy="6.627" r=".458" transform="matrix(.5-.86603.86603.5.769 14.586)"/></g></svg>