<svg xmlns="http://www.w3.org/2000/svg" viewBox="0 0 18 18"><g stroke-linejoin="round" stroke-linecap="round"><g fill="#f9db17" stroke="#c9b220"><path d="M14.71179,13.02091l1.72982-2.10455a1.13366,1.13366,0,0,0-.04618-1.41725.95218.95218,0,0,0-1.40934.06812l1.0717-1.30386a.97963.97963,0,0,0-.03557-1.30871.95218.95218,0,0,0-1.40934.06812l1.26155-1.53485a.97961.97961,0,0,0-.03558-1.30869.95218.95218,0,0,0-1.40934.06812l-.75765.92179a.95218.95218,0,0,0-.206-1.39585.97961.97961,0,0,0-1.29082.21848L8.81764,8.07644l-.0502.06108a.94845.94845,0,0,0-.39009-1.194A.97663.97663,0,0,0,7.13722,7.189L4.97142,9.824a4.7402,4.7402,0,0,0,.652,6.67186h0a4.7402,4.7402,0,0,0,6.67186-.652Z"/><path d="m8.818 8.08l-1.985 2.468s2.931 1.823 2.316 3.704"/><path d="m14.12 4.614l-3.542 4.309"/><path d="m15.647 5.775l-3.542 4.309"/><path d="m15.481 9l-1.892 2.302"/></g><g fill="none" stroke="#69c6f4"><path d="M1.33463,8.244A8.547,8.547,0,0,1,10.57981.45741"/><path d="M4.09215 7.97638A5.73454 5.73454 0 0 1 10.2951 2.75207"/></g></g></svg>