<svg xmlns="http://www.w3.org/2000/svg" viewBox="0 0 16 16"><g fill="#5dc0ee"><path d="M7.42587 10.08462A.54073 .54073 0 0 1 6.881 9.62955a.46068 .46068 0 0 1 .40918 -.53516l.097-.008c.492-.04 1.104-.09 1.165-.262a4.02188 4.02188 0 0 0 -.04 -.83105c-.068-.646-.113-1.073.15-1.349.459-.477 1 .023 1.399.388a5.15823 5.15823 0 0 0 .56543 .4707c-.023-.093-.058-.199-.082-.277a1.4968 1.4968 0 0 1 .11719 -1.58105c.563-.586 1.268.053 1.733.477.064.059.146.134.229.204-.021-.085-.045-.173-.063-.243-.136-.513-.341-1.288.303-1.734.612-.427 1.376-.015 1.846.465a.5 .5 0 0 1 -.71289 .70117 1.117 1.117 0 0 0 -.57031 -.3418 1.78972 1.78972 0 0 0 .10156 .6543c.131.495.294 1.11-.166 1.532-.54.501-1.176-.077-1.639-.497-.09-.082-.211-.192-.322-.284.029.131.076.277.099.348.139.441.329 1.045-.155 1.449-.629.523-1.332-.037-1.838-.495v.009a3.23354 3.23354 0 0 1 -.01172 1.26758c-.275.785-1.127.854-2.027.927C7.454 10.08 7.44 10.08 7.426 10.08"/><path transform="matrix(.70711-.70711.70711.70711-.351 5.135)" d="m5.316 2.284h1.414v1.414h-1.414z"/></g><path fill="#9ae84f" d="m12.609.991h1.414v1.414h-1.414z"/><g fill="#ed3b3b"><path d="m11.02 2.451l-.794 1.012.382 1.23-1.209-.445-1.052.743.05-1.287-1.032-.772 1.24-.35.415-1.219.715 1.071 1.285.017"/><path d="M13.65634 12.44986a1.7354 1.7354 0 0 1 -1.47363 -.81543 1.48894 1.48894 0 0 1 .47754 -2.04688 .5 .5 0 0 1 .52734 .84961 .48649 .48649 0 0 0 -.15527 .66895 .73426 .73426 0 0 0 1.00781 .23438 1.03854 1.03854 0 0 0 .333 -1.43066 1.42166 1.42166 0 0 0 -1.96 -.458c-.556.345-1.094.624-1.664.92-.608.315-1.237.642-1.93 1.072a.5 .5 0 1 1 -.52734 -.84961c.725-.45 1.371-.786 1.996-1.11.553-.287 1.074-.558 1.597-.882a2.42361 2.42361 0 0 1 3.33789 .7793 2.041 2.041 0 0 1 -.6543 2.80859A1.7283 1.7283 0 0 1 13.65634 12.44986"/></g><path fill="#c9b220" d="m4.02 4.991l7 7-9.996 3 2.996-10"/><path fill="#9ae84f" d="m6.316 5.699h1.414v1.414h-1.414z"/></svg>