<svg xmlns="http://www.w3.org/2000/svg" viewBox="0 0 18 18"><path d="M4.3725 12.84175a1.21247 1.21247 0 0 1 -.29986 -.77377L4.01 3.242a2.99479 2.99479 0 0 1 .3369 -.85806c-.493.732-1.6 2.118-1.781 2.395a3.1789 3.1789 0 0 0 -.54956 1.39446v8.45a1.05686 1.05686 0 0 0 .32833 .937l2.033-2.719" fill="#fce481"/><path d="M15.99805 4.88123a2.68347 2.68347 0 0 0 -.36139 -1.373l-.409-.828a2.01017 2.01017 0 0 1 .08512 .56243l.067 8.826a1.20689 1.20689 0 0 1 -.24041 .72606 2.78559 2.78559 0 0 1 -.399 .34728c-.014.008-.026.018-.04.025a1.14367 1.14367 0 0 1 -.55219 .1426H5.323c-.02 0-.038-.006-.058-.007a1.16739 1.16739 0 0 1 -.45759 -.115l-.006-.002a1.27527 1.27527 0 0 1 -.28795 -.20193 1.747 1.747 0 0 1 -.14123 -.16685s-1.632 2.215-2.033 2.745a1.61207 1.61207 0 0 0 .683 .30332 5.41919 5.41919 0 0 0 .98405 .10119H14.765a1.29685 1.29685 0 0 0 1.22643 -1.08146C15.999 14.767 15.998 4.881 15.998 4.881" fill="#c4aa10"/><path d="M14.0627 1.99867a1.31371 1.31371 0 0 1 1.31787 1.24352v8.826a1.23048 1.23048 0 0 1 -1.23159 1.24107H5.323a1.318 1.318 0 0 1 -1.31785 -1.24655v-8.82A1.231 1.231 0 0 1 5.23689 1.99867" fill="#fdd810"/><path d="m5.05 1.526l-.038.049c.012-.011.028-.017.04-.027" fill="#fce481"/><path d="M7.82389 3.68311A.82213 .82213 0 1 1 6.6911 2.82294a1.60152 1.60152 0 1 0 1.307 1.573A1.58552 1.58552 0 0 0 7.82389 3.68311" fill="#fff"/><path d="M6.22033,3.34619a.82343.82343,0,1,0,1.60355.33692A1.59792,1.59792,0,0,0,6.6911,2.82294.818.818,0,0,0,6.22033,3.34619Z" fill="#020202"/><path d="M14.88281 3.68311A.82213 .82213 0 1 1 13.75 2.82294a1.60152 1.60152 0 1 0 1.307 1.573A1.58552 1.58552 0 0 0 14.88281 3.68311" fill="#fff"/><path d="M13.27926,3.34619a.82343.82343,0,1,0,1.60355.33692A1.59792,1.59792,0,0,0,13.75,2.82294.818.818,0,0,0,13.27926,3.34619Z" fill="#020202"/><path d="M4.668 2.62367a.375 .375 0 0 1 -.30664 -.59082A3.94082 3.94082 0 0 1 5.795 .79261c.093-.047.183-.089.274-.126A.37485 .37485 0 1 1 6.35456 1.36c-.074.031-.148.065-.222.102a3.17932 3.17932 0 0 0 -1.1582 1.00293A.37578 .37578 0 0 1 4.668 2.62367"/><path d="M10.40632,9.96546a2.50232,2.50232,0,0,1-2.5-2.5.5.5,0,0,1,1,0,1.5,1.5,0,1,0,3,0,.5.5,0,0,1,1,0A2.50232,2.50232,0,0,1,10.40632,9.96546Z"/><path d="m11.68 11.622h-5.477l.921-.921a1.91722 1.91722 0 0 0 0 -2.71136l-1.493 1.418a9.33683 9.33683 0 0 1 -2.42535 1.66873 7.397 7.397 0 0 0 -1.40612 .7833 3.29082 3.29082 0 0 0 -.97933 1.5698 3.22069 3.22069 0 0 0 .70412 3.04537 3.5628 3.5628 0 0 0 2.25791 .89874h3.867a.95862 .95862 0 1 0 0 -1.91724h1.197a.95859 .95859 0 0 0 0 -1.91717h2.834a.95859 .95859 0 1 0 0 -1.91717" fill="#fff"/><g fill="#c4aa10"><path d="M7.64948,17.87367H3.78327a4.04057,4.04057,0,0,1-2.623-1.05566,3.77189,3.77189,0,0,1,.3125-5.33594,7.60417,7.60417,0,0,1,1.51855-.85742,8.80422,8.80422,0,0,0,2.2959-1.5791l1.49219-1.418a.5.5,0,0,1,.69824.00879,2.41657,2.41657,0,0,1,0,3.418l-.06836.06836h4.27148a1.4585,1.4585,0,0,1,0,2.917H10.23249a1.47978,1.47978,0,0,1,.07324.458A1.46085,1.46085,0,0,1,9.02937,15.945a1.45787,1.45787,0,0,1-1.37988,1.92871Zm-.5957-9.127L5.97663,9.77015A9.83061,9.83061,0,0,1,3.42,11.52894a7.77005,7.77005,0,0,0-1.293.709,2.82386,2.82386,0,0,0-.81934,1.30371,2.76949,2.76949,0,0,0,.58105,2.5918,3.11274,3.11274,0,0,0,1.89453.74023H7.64948a.4585.4585,0,0,0,0-.917.5.5,0,0,1,0-1H8.84675a.4585.4585,0,1,0,0-.917.5.5,0,0,1,0-1h2.834a.4585.4585,0,0,0,0-.917H6.20319a.5.5,0,0,1-.35352-.85352l.9209-.92187a1.41975,1.41975,0,0,0,.2832-1.60059Z"/><path d="m8.877 14.02h-2.614a.5 .5 0 1 1 0 -1h2.614a.5 .5 0 0 1 0 1"/><path d="m7.784 15.957h-1.518a.5 .5 0 0 1 0 -1h1.518a.5 .5 0 0 1 0 1"/></g></svg>