<svg xmlns="http://www.w3.org/2000/svg" viewBox="0 0 18 18"><path d="M4.36164 11.84308a1.21247 1.21247 0 0 1 -.29986 -.77377L3.994 2.244a2.99479 2.99479 0 0 1 .3369 -.85806C3.838 2.117 2.732 3.503 2.55 3.78a3.1789 3.1789 0 0 0 -.54956 1.39446V13.625a1.05686 1.05686 0 0 0 .32833 .937l2.033-2.719" fill="#fce481"/><path d="M15.9872 3.88256a2.68347 2.68347 0 0 0 -.36139 -1.373l-.409-.828a2.01017 2.01017 0 0 1 .08512 .56243l.067 8.826a1.20689 1.20689 0 0 1 -.24041 .72606 2.78559 2.78559 0 0 1 -.399 .34728c-.014.008-.026.018-.04.025a1.14367 1.14367 0 0 1 -.55219 .1426H5.312c-.02 0-.038-.006-.058-.007a1.16739 1.16739 0 0 1 -.45759 -.115l-.006-.002a1.27527 1.27527 0 0 1 -.28795 -.20193 1.747 1.747 0 0 1 -.14123 -.16685s-1.632 2.215-2.033 2.745a1.61207 1.61207 0 0 0 .683 .30332 5.41919 5.41919 0 0 0 .98405 .10119H14.754a1.29685 1.29685 0 0 0 1.22643 -1.08146C15.988 13.768 15.987 3.883 15.987 3.883" fill="#c4aa10"/><path d="M14.05185 1a1.31371 1.31371 0 0 1 1.31787 1.24352v8.826a1.23048 1.23048 0 0 1 -1.23159 1.24107H5.312a1.318 1.318 0 0 1 -1.31785 -1.24655v-8.82A1.231 1.231 0 0 1 5.226 1" fill="#fdd810"/><path d="M6.9873,6.5a1.50164,1.50164,0,0,1-1.5-1.5.5.5,0,0,1,1,0,.5.5,0,0,0,1,0,.5.5,0,0,1,1,0A1.50164,1.50164,0,0,1,6.9873,6.5Z"/><path d="M4.98828,3.498a.49951.49951,0,0,1-.35449-.85156A4.86765,4.86765,0,0,1,7.9873,1.5a.5.5,0,0,1,0,1,3.89929,3.89929,0,0,0-2.64941.85645A.50444.50444,0,0,1,4.98828,3.498Z"/><path d="M12.30078,6.5a1.50164,1.50164,0,0,1-1.5-1.5.5.5,0,0,1,1,0,.5.5,0,0,0,1,0,.5.5,0,0,1,1,0A1.50164,1.50164,0,0,1,12.30078,6.5Z"/><path d="M14.30078,3.5a.49685.49685,0,0,1-.35059-.14355h0A3.89929,3.89929,0,0,0,11.30078,2.5a.5.5,0,0,1,0-1A4.86765,4.86765,0,0,1,14.6543,2.64648.5.5,0,0,1,14.30078,3.5Z"/><path d="m2.693 11.132l-1.156-1.432a.9397 .9397 0 0 1 .07222 -1.24826 .90078 .90078 0 0 1 1.33977 .03l.694.86a.92683 .92683 0 0 1 .23708 -1.33551 .91166 .91166 0 0 1 1.22253 .17628l1.995 2.471.046.057a.94381 .94381 0 0 1 .40638 -1.14767 .90519 .90519 0 0 1 1.17348 .20326l.42.52c1.523 1.887 1.656 4.328-.318 5.963-2.977 2.464-6.05-1.925-6.05-1.925l-1.585-1.963a1.09024 1.09024 0 0 1 .08551 -1.352 .90078 .90078 0 0 1 1.33977 .03l2.01 2.495" fill="#fff"/><path d="M6.8916 17.5a3.35394 3.35394 0 0 1 -.46094 -.03125c-2.253-.305-3.99-2.754-4.063-2.857L.804 12.675a1.5995 1.5995 0 0 1 .12207 -2.02148 1.48851 1.48851 0 0 1 .47949 -.31934l-.257-.318a1.44689 1.44689 0 0 1 .1084 -1.91895A1.49887 1.49887 0 0 1 2.35938 7.6709a1.36114 1.36114 0 0 1 .83008 .3418 1.49379 1.49379 0 0 1 .40723 -.418 1.41731 1.41731 0 0 1 1.89453 .27344L6.847 9.548a1.50147 1.50147 0 0 1 .44238 -.41113 1.41062 1.41062 0 0 1 1.82422 .31641l.419.519c1.836 2.273 1.68 4.95-.388 6.662A3.47991 3.47991 0 0 1 6.8916 17.5M1.9502 11.22559a.46138 .46138 0 0 0 -.32031 .1377 .61 .61 0 0 0 -.00879 .74023L3.166 14.01c.036.049 1.584 2.225 3.4 2.469a2.42757 2.42757 0 0 0 1.94043 -.61426c1.989-1.647 1.377-3.865.248-5.264L8.335 10.08a.40406 .40406 0 0 0 -.52441 -.09082 .44877 .44877 0 0 0 -.20312 .53516 .49968 .49968 0 0 1 -.85254 .5l-2.041-2.528a.41048 .41048 0 0 0 -.55078 -.07812 .47537 .47537 0 0 0 -.2041 .32031 .37133 .37133 0 0 0 .07227 .28906h.001a.5 .5 0 0 1 -.77832 .62793l-.694-.86a.3452 .3452 0 0 0 -.25488 -.127 .41462 .41462 0 0 0 -.34277 .13672 .43791 .43791 0 0 0 -.03613 .58008L2.987 10.702l.019.022 2.01 2.495a.49995 .49995 0 1 1 -.77734 .62891L2.316 11.462l-.013-.015-.086-.106a.35338 .35338 0 0 0 -.24609 -.11426" fill="#c4aa10"/><path fill="#fff" d="m6.078 12.353l-2.851-3.531"/><path d="M6.07813 12.85254a.49863 .49863 0 0 1 -.38867 -.18555L2.838 9.136a.49995 .49995 0 0 1 .77734 -.62891L6.467 12.04a.5 .5 0 0 1 -.38867 .81445" fill="#c4aa10"/><path fill="#fff" d="m7.144 10.711l.946 1.172"/><path d="M8.08984 12.38281a.49863 .49863 0 0 1 -.38867 -.18555l-.946-1.172a.49995 .49995 0 1 1 .77734 -.62891l.946 1.172a.5 .5 0 0 1 -.38867 .81445" fill="#c4aa10"/><path d="m15.604 11.132l1.156-1.432a.9397 .9397 0 0 0 -.07222 -1.24826 .90078 .90078 0 0 0 -1.33977 .03l-.694.86a.92683 .92683 0 0 0 -.23707 -1.33555 .91166 .91166 0 0 0 -1.22253 .17628l-1.995 2.471-.046.057a.94381 .94381 0 0 0 -.40638 -1.14767 .90519 .90519 0 0 0 -1.17348 .20326l-.42.52c-1.523 1.887-1.656 4.328.318 5.963 2.977 2.464 6.05-1.925 6.05-1.925l1.585-1.963a1.09024 1.09024 0 0 0 -.08551 -1.352 .90078 .90078 0 0 0 -1.33977 .03l-2.01 2.495" fill="#fff"/><path d="M11.40527 17.5a3.47552 3.47552 0 0 1 -2.252 -.86621C7.085 14.922 6.929 12.245 8.765 9.972l.42-.52a1.406 1.406 0 0 1 1.82324 -.31543 1.50147 1.50147 0 0 1 .44238 .41113l1.355-1.68a1.4192 1.4192 0 0 1 1.89453 -.27344 1.49416 1.49416 0 0 1 .40723 .418 1.3578 1.3578 0 0 1 .83008 -.3418A1.46677 1.46677 0 0 1 17.04 8.09766a1.44555 1.44555 0 0 1 .1084 1.918l-.257.318a1.49018 1.49018 0 0 1 .48047 .32031 1.57894 1.57894 0 0 1 .16113 1.96289l-1.625 2.02c-.052.076-1.789 2.525-4.04 2.83A3.35394 3.35394 0 0 1 11.40527 17.5M10.27637 9.93066a.40421 .40421 0 0 0 -.31348 .14941l-.421.521c-1.129 1.398-1.741 3.616.249 5.264a2.4255 2.4255 0 0 0 1.93945 .61426c1.816-.244 3.364-2.42 3.38-2.441l1.605-1.991a.59059 .59059 0 0 0 -.04785 -.68164 .41908 .41908 0 0 0 -.34277 -.1377 .35108 .35108 0 0 0 -.24609 .11523l-.086.105-.013.015-1.927 2.387a.49995 .49995 0 0 1 -.77734 -.62891L15.291 10.725l.019-.022 1.062-1.315a.43757 .43757 0 0 0 -.03516 -.5791 .424 .424 0 0 0 -.34277 -.1377 .34718 .34718 0 0 0 -.25684 .127l-.691.857v.002a.50009 .50009 0 1 1 -.7793 -.627 .37133 .37133 0 0 0 .07327 -.29006 .47537 .47537 0 0 0 -.2041 -.32031 .40877 .40877 0 0 0 -.55078 .07813l-1.995 2.472a.54409 .54409 0 0 1 -.66406 .14551 .4744 .4744 0 0 1 -.23437 -.58887 .44877 .44877 0 0 0 -.20312 -.53516A.40064 .40064 0 0 0 10.27637 9.93066" fill="#c4aa10"/><path fill="#fff" d="m12.218 12.353l2.851-3.531"/><path d="M12.21875 12.85254a.5 .5 0 0 1 -.38867 -.81445l2.852-3.531a.49995 .49995 0 0 1 .77734 .62891L12.607 12.667A.49863 .49863 0 0 1 12.21875 12.85254" fill="#c4aa10"/><path fill="#fff" d="m11.153 10.711l-.946 1.172"/><path d="M10.207 12.38281a.5 .5 0 0 1 -.38867 -.81445l.946-1.172a.49995 .49995 0 1 1 .77734 .62891l-.946 1.172A.49863 .49863 0 0 1 10.207 12.38281" fill="#c4aa10"/></svg>