<svg xmlns="http://www.w3.org/2000/svg" viewBox="0 0 16 16"><path d="M3.37438 11.84308a1.21247 1.21247 0 0 1 -.29986 -.77377L3.01 2.244a2.99479 2.99479 0 0 1 .3369 -.85806C2.851 2.117 1.744 3.503 1.563 3.78a3.1789 3.1789 0 0 0 -.54956 1.39446V13.625a1.05686 1.05686 0 0 0 .32833 .937L3.374 11.843" fill="#fce481"/><path d="M14.99993 3.88256a2.68347 2.68347 0 0 0 -.36139 -1.373L14.23 1.681a2.01017 2.01017 0 0 1 .08512 .56243l.067 8.826a1.20689 1.20689 0 0 1 -.24041 .72606 2.78559 2.78559 0 0 1 -.399 .34728c-.014.008-.026.018-.04.025a1.14367 1.14367 0 0 1 -.55219 .1426H4.325c-.02 0-.038-.006-.058-.007a1.16739 1.16739 0 0 1 -.45759 -.115l-.006-.002a1.27527 1.27527 0 0 1 -.28795 -.20193 1.747 1.747 0 0 1 -.14123 -.16685s-1.632 2.215-2.033 2.745a1.61207 1.61207 0 0 0 .683 .30332 5.41919 5.41919 0 0 0 .98405 .10119H13.767a1.29685 1.29685 0 0 0 1.22643 -1.08146C15 13.768 15 3.883 15 3.883" fill="#c4aa10"/><path d="M13.06459 1a1.31371 1.31371 0 0 1 1.31787 1.24352v8.826a1.23048 1.23048 0 0 1 -1.23159 1.24107H4.325a1.318 1.318 0 0 1 -1.31785 -1.24655v-8.82A1.231 1.231 0 0 1 4.23877 1" fill="#fdd810"/><path fill="#e098b9" d="m14.357 1.064l-.002.017"/><path d="m3.359.791l-.038.049c.012-.011.028-.017.04-.027" fill="#fce481"/><g fill="#020202"><path d="M13.2041,2.86914a.48688.48688,0,0,1-.24609-.06543,2.31606,2.31606,0,0,0-1.81641-.207.5.5,0,1,1-.2832-.959,3.31276,3.31276,0,0,1,2.5918.29688.49984.49984,0,0,1-.24609.93457Z"/><path d="M4.65625,3.09668a.49976.49976,0,0,1-.43945-.73926A3.31438,3.31438,0,0,1,6.25879.73535a.49969.49969,0,1,1,.26758.96289A2.32468,2.32468,0,0,0,5.0957,2.83594.50125.50125,0,0,1,4.65625,3.09668Z"/></g><path d="m12.4 7.4c-.988 0-1.944 1.236-3.403 1.236s-2.415-1.236-3.403-1.236c-.49 0-.698.787-.548 1.2a3.37784 3.37784 0 0 0 1.33448 1.487 5.0621 5.0621 0 0 0 2.61602 .9128 5.12991 5.12991 0 0 0 2.61207 -.90466 3.25279 3.25279 0 0 0 1.33842 -1.49519c.14-.416-.058-1.2-.548-1.2" fill="#fff"/><path d="M8.998,11.5a5.50952,5.50952,0,0,1-2.89551-.998A3.90537,3.90537,0,0,1,4.57715,8.77246a1.66912,1.66912,0,0,1,.2041-1.42383.98319.98319,0,0,1,.81348-.44824,3.32716,3.32716,0,0,1,1.61719.59473,3.63137,3.63137,0,0,0,1.78613.6416,3.63482,3.63482,0,0,0,1.78613-.6416,3.3203,3.3203,0,0,1,1.61621-.59473.97612.97612,0,0,1,.80176.43359,1.69751,1.69751,0,0,1,.21973,1.42676,3.76461,3.76461,0,0,1-1.53613,1.752A5.55651,5.55651,0,0,1,8.998,11.5ZM5.59473,7.90039a.78169.78169,0,0,0-.07812.53027A2.93306,2.93306,0,0,0,6.66113,9.67188,4.55,4.55,0,0,0,8.998,10.5a4.67389,4.67389,0,0,0,2.335-.82031,2.818,2.818,0,0,0,1.1416-1.23828.70437.70437,0,0,0-.09668-.541,2.77541,2.77541,0,0,0-1.09668.46191,4.54086,4.54086,0,0,1-2.2832.77441A4.54122,4.54122,0,0,1,6.71387,8.3623,2.65078,2.65078,0,0,0,5.59473,7.90039Z" fill="#020202"/><path d="M12.10156,5.44531a1.50164,1.50164,0,0,1-1.5-1.5.5.5,0,0,1,1,0,.5.5,0,0,0,1,0,.5.5,0,0,1,1,0A1.50164,1.50164,0,0,1,12.10156,5.44531Z"/><circle cx="6.393" cy="4.272" r="1.738" fill="#fff"/><circle cx="6.393" cy="4.272" r=".568" fill="#020202"/></svg>