<svg xmlns="http://www.w3.org/2000/svg" viewBox="0 0 16 16"><g fill="#f9db17" stroke="#c9b220" stroke-linejoin="round" stroke-linecap="round"><path d="M10.3051 11.47474A1.12466 1.12466 0 0 0 9.65 10.54486l.25-.068a1.02163 1.02163 0 0 0 .815 -1.10135 1.19833 1.19833 0 0 0 -.92013 -.983 1.16755 1.16755 0 0 0 1.15269 -1.03932 1.009 1.009 0 0 0 -1.009 -1.009h4.383a1.009 1.009 0 1 0 0 -2.01794H8.898c-.752-.937-2.298-.812-3.21-.845C3.15 3.389.669 4.725.669 7.665a4.897 4.897 0 0 0 5.08716 4.85847H9.257A1.04846 1.04846 0 0 0 10.3051 11.47474"/><path d="m9.939 6.344h-1.317"/><path d="m9.795 8.392h-1.444"/><path d="m9.65 10.545h-1.65"/></g></svg>