<svg xmlns="http://www.w3.org/2000/svg" viewBox="0 0 16 16"><g stroke="#c9b220" stroke-linejoin="round" stroke-linecap="round"><path d="M11.50078 10.49535a1.02931 1.02931 0 0 1 -.9163 -.5653l-.067.166a1.00672 1.00672 0 0 1 -1.08527 .80306 1.01981 1.01981 0 0 1 -.8852 -.845l-.113-.026v.106a.99424 .99424 0 0 1 -.99423 .99424 .99424 .99424 0 0 1 -.99423 -.99424v4.319a.99424 .99424 0 0 1 -1.98849 0V9.109a3.622 3.622 0 0 1 -.98227 -3.16289C3.474 3.434 4.849 1 7.746 1a4.82549 4.82549 0 0 1 4.78755 5.0129V9.462A1.03315 1.03315 0 0 1 11.50078 10.49535" fill="#f9db17"/><g fill="none"><path d="m8.454 10.282v-1.866a1.00452 1.00452 0 0 0 -1.00453 -1.00457 1.00452 1.00452 0 0 0 -1.00452 1.00457v1.866"/><path d="m10.568 10.282v-1.866a1.00452 1.00452 0 0 0 -1.00453 -1.00457 1.00452 1.00452 0 0 0 -1.00452 1.00457v1.866"/><path d="m12.534 9.03v-.701a.99055 .99055 0 0 0 -.976 -1.00452 .99055 .99055 0 0 0 -.976 1.00452v.701"/></g><path d="M8.09707 3.05339a2.8949 2.8949 0 0 1 .32905 .96728A2.85256 2.85256 0 0 1 7.6073 6.47526a2.90086 2.90086 0 0 1 -1.49793 .77951l1.82.062a.91042 .91042 0 0 1 .93739 .90831 .87056 .87056 0 0 1 -.97514 .80509c-.739-.005-2.583-.217-2.583-.217L4.063 8.685" fill="#f9db17"/></g></svg>