<svg xmlns="http://www.w3.org/2000/svg" viewBox="0 0 16 16"><path d="M3.35383 11.85246a1.21247 1.21247 0 0 1 -.29986 -.77377L2.987 2.253a2.99479 2.99479 0 0 1 .3369 -.85806c-.493.732-1.6 2.118-1.781 2.395A3.1789 3.1789 0 0 0 .99254 5.18394V13.634a1.05686 1.05686 0 0 0 .32833 .937L3.353 11.852" fill="#fce481"/><path d="M14.97938 3.89194a2.68347 2.68347 0 0 0 -.36139 -1.373l-.409-.828a2.01017 2.01017 0 0 1 .08512 .56243l.067 8.826a1.20689 1.20689 0 0 1 -.24041 .72606 2.78559 2.78559 0 0 1 -.399 .34728c-.014.008-.026.018-.04.025a1.14367 1.14367 0 0 1 -.55219 .1426H4.304c-.02 0-.038-.006-.058-.007a1.16739 1.16739 0 0 1 -.45759 -.115l-.006-.002a1.27527 1.27527 0 0 1 -.28795 -.20193 1.747 1.747 0 0 1 -.14123 -.16685S1.722 14.04 1.321 14.571a1.61207 1.61207 0 0 0 .683 .30332 5.41919 5.41919 0 0 0 .98405 .10119H13.746a1.29685 1.29685 0 0 0 1.22643 -1.08146C14.981 13.778 14.979 3.892 14.979 3.892" fill="#c4aa10"/><path d="M13.044 1.00937a1.31371 1.31371 0 0 1 1.31787 1.24352v8.826a1.23048 1.23048 0 0 1 -1.23159 1.24107H4.304a1.318 1.318 0 0 1 -1.31785 -1.24655v-8.82A1.231 1.231 0 0 1 4.21822 1.00938" fill="#fdd810"/><path fill="#c4aa10" d="m14.349 1.074l-.002.017"/><path d="m3.351.8l-.038.049c.012-.011.028-.017.04-.027" fill="#fce481"/><path d="M8.8953 11.24858a2.94291 2.94291 0 0 0 2.7973 -2.40741H6.098A2.943 2.943 0 0 0 8.8953 11.24858" fill="#020202"/><path d="M5.89445 7.81536a5.36953 5.36953 0 0 0 .20349 1.02582H11.693a5.37533 5.37533 0 0 0 .20349 -1.02582" fill="#fff"/><path d="m11.896 7.815h.005m-.005 0a5.37533 5.37533 0 0 1 -.20349 1.02582 2.94291 2.94291 0 0 1 -2.7973 2.40741 2.943 2.943 0 0 1 -2.79733 -2.40741 5.36953 5.36953 0 0 1 -.20349 -1.02582h6m.005-1h-6.01a1.00009 1.00009 0 0 0 -.99738 1.0726 6.31644 6.31644 0 0 0 .24231 1.23806 3.88418 3.88418 0 0 0 3.75592 3.12253 3.88412 3.88412 0 0 0 3.75586 -3.12253 6.5892 6.5892 0 0 0 .2337 -1.14505 1.00043 1.00043 0 0 0 -.98376 -1.16562m-.005 2"/><path d="m7.853 9.819h1.669a.66467 .66467 0 0 1 .66467 .66467v1.864a1.49938 1.49938 0 0 1 -1.49938 1.49938 1.49938 1.49938 0 0 1 -1.49938 -1.49938v-1.864a.66467 .66467 0 0 1 .66467 -.66467" fill="#ed3b3b"/><path d="M8.6875,13.74961a.49971.49971,0,0,1-.5-.5v-2.834a.5.5,0,1,1,1,0v2.834A.49971.49971,0,0,1,8.6875,13.74961Z" fill="#b03441"/><circle cx="5.73" cy="3.272" r="1.738" fill="#fff"/><circle cx="5.73" cy="3.272" r=".568" fill="#020202"/><circle cx="12.254" cy="3.272" r="1.738" fill="#fff"/><circle cx="12.254" cy="3.272" r=".568" fill="#020202"/></svg>