<svg xmlns="http://www.w3.org/2000/svg" viewBox="0 0 16 16"><g fill="#f9db17" stroke="#c9b220" stroke-linejoin="round" stroke-linecap="round"><path d="M3.8053,7.53935a6.57716,6.57716,0,0,0-.92533,2.737A5.19581,5.19581,0,0,0,8.00839,15.557a5.15217,5.15217,0,0,0,5.11166-5.35227V6.52192a1.1031,1.1031,0,0,0-1.1031-1.1031,1.72119,1.72119,0,0,0-.88148.35968,1.22039,1.22039,0,0,0-1.32718-.79092,1.08885,1.08885,0,0,0-.94512.90225l-.12108-.08537"/><path d="m8.846 5.779l-3.183-4.813a1.09507 1.09507 0 0 0 -1.506 -.355 1.09507 1.09507 0 0 0 -.2661 1.52429l3.635 5.707"/><path d="m6.35 7.69l2.973-5.511a1.06155 1.06155 0 0 0 -1.84101 -1.05746l-3.676 6.417"/><path d="m8.909 7.512v-1.602"/><path d="m11.135 7.69v-1.912"/></g></svg>