<svg xmlns="http://www.w3.org/2000/svg" viewBox="0 0 18 18"><path d="M4.36164 13.87649a1.21247 1.21247 0 0 1 -.29986 -.77377L3.994 4.277a2.99479 2.99479 0 0 1 .3369 -.85806c-.493.732-1.6 2.118-1.781 2.395A3.1789 3.1789 0 0 0 2.00035 7.208v8.45a1.05686 1.05686 0 0 0 .32833 .937l2.033-2.719" fill="#f9c5e0"/><path d="M15.9872 5.916a2.68347 2.68347 0 0 0 -.36139 -1.373l-.409-.828a2.01017 2.01017 0 0 1 .08512 .56243l.067 8.826a1.20689 1.20689 0 0 1 -.24041 .72606 2.78559 2.78559 0 0 1 -.399 .34728c-.014.008-.026.018-.04.025a1.14367 1.14367 0 0 1 -.55219 .1426H5.312c-.02 0-.038-.006-.058-.007a1.16739 1.16739 0 0 1 -.45759 -.115l-.006-.002a1.27527 1.27527 0 0 1 -.28795 -.20193 1.747 1.747 0 0 1 -.14123 -.16685S2.73 16.07 2.329 16.595a1.61207 1.61207 0 0 0 .683 .30332A5.41919 5.41919 0 0 0 3.99569 17H14.754a1.29685 1.29685 0 0 0 1.22643 -1.08146C15.988 15.802 15.987 5.916 15.987 5.916" fill="#e098b9"/><path d="M14.05185 3.03341a1.31371 1.31371 0 0 1 1.31787 1.24352v8.826a1.23048 1.23048 0 0 1 -1.23159 1.24107H5.312a1.318 1.318 0 0 1 -1.31785 -1.24655v-8.82A1.231 1.231 0 0 1 5.226 3.03341" fill="#f4a6c9"/><path d="m3.872 2.737l-.038.049c.012-.011.028-.017.04-.027" fill="#fce481"/><g fill="#ed3b3b"><path d="M8.86995 2.59851A1.97821 1.97821 0 0 0 7.616 1.10889C6.447.665 5.504 1.645 5.03 2.804a1.78745 1.78745 0 0 0 -.1012 .38525 1.78754 1.78754 0 0 0 -.10132 -.38525C4.361 1.645 3.418.665 2.249 1.109A1.97821 1.97821 0 0 0 .99495 2.59851 3.06708 3.06708 0 0 0 1.84309 5.4538c.469.477.978.915 1.475 1.364.535.483 1.077.959 1.614 1.436h.001c.537-.477 1.079-.953 1.614-1.436.497-.449 1.01-.887 1.475-1.364A3.06708 3.06708 0 0 0 8.86995 2.59851"/><path d="M17.93233 2.59851a1.97821 1.97821 0 0 0 -1.25391 -1.48962c-1.169-.443-2.112.537-2.582 1.695a1.78744 1.78744 0 0 0 -.1012 .38525 1.78754 1.78754 0 0 0 -.10132 -.38525c-.47-1.158-1.413-2.138-2.582-1.695a1.97821 1.97821 0 0 0 -1.25391 1.48962 3.06708 3.06708 0 0 0 .84814 2.85529c.469.477.978.915 1.475 1.364.535.483 1.077.959 1.614 1.436h.001c.537-.477 1.079-.953 1.614-1.436.497-.449 1.01-.887 1.475-1.364A3.06708 3.06708 0 0 0 17.93233 2.59851"/></g><path d="m6.333 10.165h6.75s0 2.835-3.375 2.835-3.375-2.835-3.375-2.835" fill="#fff"/><path d="m13.08 10.165s0 2.835-3.375 2.835-3.375-2.835-3.375-2.835h6.75m0-1h-6.75a1 1 0 0 0 -1 1c0 1.067.786 3.835 4.375 3.835s4.375-2.768 4.375-3.835a1 1 0 0 0 -1 -1m0 2"/></svg>