<svg xmlns="http://www.w3.org/2000/svg" viewBox="0 0 18 18"><path d="M4.36164 13.87649a1.21247 1.21247 0 0 1 -.29986 -.77377L3.994 4.277a2.99479 2.99479 0 0 1 .3369 -.85806c-.493.732-1.6 2.118-1.781 2.395A3.1789 3.1789 0 0 0 2.00035 7.208v8.45a1.05686 1.05686 0 0 0 .32833 .937l2.033-2.719" fill="#b8c2c4"/><path d="M15.9872 5.916a2.68347 2.68347 0 0 0 -.36139 -1.373l-.409-.828a2.01017 2.01017 0 0 1 .08512 .56243l.067 8.826a1.20689 1.20689 0 0 1 -.24041 .72606 2.78559 2.78559 0 0 1 -.399 .34728c-.014.008-.026.018-.04.025a1.14367 1.14367 0 0 1 -.55219 .1426H5.312c-.02 0-.038-.006-.058-.007a1.16739 1.16739 0 0 1 -.45759 -.115l-.006-.002a1.27527 1.27527 0 0 1 -.28795 -.20193 1.747 1.747 0 0 1 -.14123 -.16685S2.73 16.07 2.329 16.595a1.61207 1.61207 0 0 0 .683 .30332A5.41919 5.41919 0 0 0 3.99569 17H14.754a1.29685 1.29685 0 0 0 1.22643 -1.08146C15.988 15.802 15.987 5.916 15.987 5.916" fill="#656868"/><g fill="#909596"><path d="M14.05185 3.03341a1.31371 1.31371 0 0 1 1.31787 1.24352v8.826a1.23048 1.23048 0 0 1 -1.23159 1.24107H5.312a1.318 1.318 0 0 1 -1.31785 -1.24655v-8.82A1.231 1.231 0 0 1 5.226 3.03341"/><path d="m7.994 3.03l-3.286-2.465a.44613 .44613 0 0 0 -.7138 .3569v4.108h3"/><path d="m11.37 3.03l3.286-2.465a.44613 .44613 0 0 1 .7138 .3569v4.108h-3"/></g><path d="M9.77344,11.043a.49971.49971,0,0,1-.5-.5v-2a.5.5,0,0,1,1,0v2A.49971.49971,0,0,1,9.77344,11.043Z" fill="#231f20"/><path d="M9.77344,11.043a.49971.49971,0,0,1-.5-.5v-2a.5.5,0,0,1,1,0v2A.49971.49971,0,0,1,9.77344,11.043Z"/><path d="m8.773 8.02h2l-.465 1.146a.64234 .64234 0 0 1 -1.07055 0" fill="#f7b3d1"/><circle cx="6.273" cy="7.168" r="2.5" fill="#fff"/><path d="M6.27344 10.168a3 3 0 1 1 3 -3A3.00328 3.00328 0 0 1 6.27344 10.168m0-5a2 2 0 1 0 2 2A2.00261 2.00261 0 0 0 6.27344 5.168"/><path d="m8.773 6.668s.167-.479 1-.479 1 .479 1 .479" fill="#fff"/><path d="m9.233 6.863l-.933-.359a1.417 1.417 0 0 1 1.47266 -.81543 1.417 1.417 0 0 1 1.47266 .81543l-.945.328v.003a.70787 .70787 0 0 0 -.52832 -.14648c-.438 0-.536.168-.54.175"/><circle cx="6.273" cy="7.168" r=".458" transform="matrix(.5-.86603.86603.5-3.071 9.02)" fill="#231f20"/><circle cx="13.273" cy="7.168" r="2.5" fill="#fff"/><path d="M13.27344 10.168a3 3 0 1 1 3 -3A3.00328 3.00328 0 0 1 13.27344 10.168m0-5a2 2 0 1 0 2 2A2.00261 2.00261 0 0 0 13.27344 5.168"/><circle cx="13.273" cy="7.168" r=".458" transform="matrix(.5-.86603.86603.5.429 15.08)" fill="#231f20"/><circle cx="9.773" cy="14.447" r="1.952" fill="#909596"/><ellipse cx="9.773" cy="12.989" rx="1.952" ry="2.446"/><path d="M9.7731 15.43417a1.91948 1.91948 0 0 0 1.68 -1.2202c-.219-1.12-.884-1.94-1.68-1.94s-1.461.821-1.68 1.94A1.91945 1.91945 0 0 0 9.7731 15.43417" fill="#f7b3d1"/></svg>