<svg xmlns="http://www.w3.org/2000/svg" viewBox="0 0 16 16"><path d="M3.37438 11.87649a1.21247 1.21247 0 0 1 -.29986 -.77377L3.01 2.277a2.99479 2.99479 0 0 1 .3369 -.85806c-.493.732-1.6 2.118-1.781 2.395A3.1789 3.1789 0 0 0 1.01309 5.208v8.45a1.05686 1.05686 0 0 0 .32833 .937L3.374 11.876" fill="#c8c997"/><path d="M14.99993 3.916a2.68347 2.68347 0 0 0 -.36139 -1.373L14.23 1.715a2.01017 2.01017 0 0 1 .08512 .56243l.067 8.826a1.20689 1.20689 0 0 1 -.24041 .72606 2.78559 2.78559 0 0 1 -.399 .34728c-.014.008-.026.018-.04.025a1.14367 1.14367 0 0 1 -.55219 .1426H4.325c-.02 0-.038-.006-.058-.007a1.16739 1.16739 0 0 1 -.45759 -.115l-.006-.002a1.27527 1.27527 0 0 1 -.28795 -.20193 1.747 1.747 0 0 1 -.14123 -.16685S1.742 14.07 1.341 14.595a1.61207 1.61207 0 0 0 .683 .30332A5.41919 5.41919 0 0 0 3.00842 15H13.767a1.29685 1.29685 0 0 0 1.22643 -1.08146C15 13.802 15 3.916 15 3.916" fill="#7c7c66"/><path d="M13.06459 1.03341a1.31371 1.31371 0 0 1 1.31787 1.24352v8.826a1.23048 1.23048 0 0 1 -1.23159 1.24107H4.325a1.318 1.318 0 0 1 -1.31785 -1.24655v-8.82A1.231 1.231 0 0 1 4.23877 1.03341" fill="#9a9b7b"/><path d="m3.359.791l-.038.049c.012-.011.028-.017.04-.027" fill="#fce481"/><path d="m14.695 6.291c1.085.32 1.336 1.804.782 2.79s-1.953 1.543-2.79.782a27.18764 27.18764 0 0 1 -2.687 -3.86122 27.18764 27.18764 0 0 1 4.69528 .28912" fill="#69c6f4"/><rect x="6.948" y="10" width="4" height="1" rx=".5"/><path d="M6,5.5A1.50164,1.50164,0,0,1,4.5,4a.5.5,0,0,1,1,0,.5.5,0,0,0,1,0,.5.5,0,0,1,1,0A1.50164,1.50164,0,0,1,6,5.5Z"/><path d="M12,5.5A1.50164,1.50164,0,0,1,10.5,4a.5.5,0,0,1,1,0,.5.5,0,0,0,1,0,.5.5,0,0,1,1,0A1.50164,1.50164,0,0,1,12,5.5Z"/></svg>