<svg xmlns="http://www.w3.org/2000/svg" viewBox="0 0 18 18"><path d="M4.37438 12.87649a1.21247 1.21247 0 0 1 -.29986 -.77377L4.01 3.277a2.99479 2.99479 0 0 1 .3369 -.85806c-.493.732-1.6 2.118-1.781 2.395A3.1789 3.1789 0 0 0 2.01309 6.208v8.45a1.05686 1.05686 0 0 0 .32833 .937L4.374 12.876" fill="#cdf7a1"/><path d="M15.99993 4.916a2.68347 2.68347 0 0 0 -.36139 -1.373L15.23 2.715a2.01017 2.01017 0 0 1 .08512 .56243l.067 8.826a1.20689 1.20689 0 0 1 -.24041 .72606 2.78559 2.78559 0 0 1 -.399 .34728c-.014.008-.026.018-.04.025a1.14367 1.14367 0 0 1 -.55219 .1426H5.325c-.02 0-.038-.006-.058-.007a1.16739 1.16739 0 0 1 -.45759 -.115l-.006-.002a1.27527 1.27527 0 0 1 -.28795 -.20193 1.747 1.747 0 0 1 -.14123 -.16685S2.742 15.07 2.341 15.595a1.61207 1.61207 0 0 0 .683 .30332A5.41919 5.41919 0 0 0 4.00842 16H14.767a1.29685 1.29685 0 0 0 1.22643 -1.08146C16 14.802 16 4.916 16 4.916" fill="#59813c"/><path d="M14.06459 2.03341a1.31371 1.31371 0 0 1 1.31787 1.24352v8.826a1.23048 1.23048 0 0 1 -1.23159 1.24107H5.325a1.318 1.318 0 0 1 -1.31785 -1.24655v-8.82A1.231 1.231 0 0 1 5.23877 2.03341" fill="#9ae84f"/><g fill="#3f261c"><circle cx="9.563" cy="10.838" r="1.952"/><path d="M11.37673 11.55758a2.58675 2.58675 0 0 0 -3.62656 0 1.95007 1.95007 0 0 0 3.62656 0"/></g><path d="M9.56347,12.79018a1.94358,1.94358,0,0,0,1.68-.97383,1.85165,1.85165,0,0,0-1.68-1.54834,1.85176,1.85176,0,0,0-1.68,1.54843A1.94359,1.94359,0,0,0,9.56347,12.79018Z"/><path fill="#59813c" d="m15.02 2.561l-.002.017"/><path d="m4.02 2.288l-.038.049c.012-.011.028-.017.04-.027" fill="#fce481"/><g fill="#fff"><circle cx="7.612" cy="6.513" r="1.853"/><circle cx="12.713" cy="5.669" r="1.853"/><path d="m8.288 2.803l1.711-.014a.86033 .86033 0 0 1 .8574 .77413 .84925 .84925 0 0 1 -.808 .958l-1.027.008a.84925 .84925 0 0 1 .82357 .94459 .86034 .86034 0 0 1 -.8446 .78807l-2.952.024h-.068a.86517 .86517 0 0 1 .58877 .95924 .85434 .85434 0 0 1 -.83526 .73677l-.621.005c-2.254.018-4.092-1.296-4.112-3.678-.029-3.591 4.937-3.29 4.937-3.29l2.345-.019a.99765 .99765 0 0 1 .92438 .84376 .84925 .84925 0 0 1 -.808 .958l-2.981.024"/></g><path d="M5.06543 8.4873A4.90992 4.90992 0 0 1 1.89648 7.43164 3.97232 3.97232 0 0 1 .5 4.31348 3.24458 3.24458 0 0 1 1.501 1.832C3.053.361 5.854.516 5.968.521L8.279.5A1.50735 1.50735 0 0 1 9.70508 1.79492 1.43644 1.43644 0 0 1 9.666 2.292l.328-.003h.012a1.36517 1.36517 0 0 1 1.34766 1.22461 1.40318 1.40318 0 0 1 -.34668 1.07227 1.31274 1.31274 0 0 1 -.71777 .41016 1.42176 1.42176 0 0 1 .05273 .51855A1.36565 1.36565 0 0 1 9.00391 6.76172l-1.968.017a1.42439 1.42439 0 0 1 .02637 .53613 1.35508 1.35508 0 0 1 -1.32617 1.168l-.621.005m.56541-6.97269A5.4859 5.4859 0 0 0 2.1875 2.55957 2.25073 2.25073 0 0 0 1.5 4.30566 3.00175 3.00175 0 0 0 2.53906 6.666a3.956 3.956 0 0 0 2.56836 .82129l.621-.005a.35151 .35151 0 0 0 .34375 -.30273 .36615 .36615 0 0 0 -.23633 -.415 .49967 .49967 0 0 1 .14355 -.97852l3.02-.024a.35978 .35978 0 0 0 .35059 -.3291 .39988 .39988 0 0 0 -.09961 -.30273c-.035-.038-.125-.124-.221-.101H9.02a.5 .5 0 0 1 -.00391 -1l1.027-.009A.30033 .30033 0 0 0 10.2627 3.917a.3935 .3935 0 0 0 .09473 -.30566 .34381 .34381 0 0 0 -.35449 -.32227L8.292 3.303H8.284l-2.861.023a.527 .527 0 0 1 -.50391 -.49609A.49973 .49973 0 0 1 5.415 2.32617l2.98-.024a.30033 .30033 0 0 0 .21875 -.10352A.39232 .39232 0 0 0 8.709 1.89258c-.022-.231-.264-.366-.492-.397l-2.275.024C5.931 1.52 5.836 1.515 5.681 1.515" fill="#59813c"/><path fill="#fff" d="m5.421 4.562l4.219-.035"/><path d="M5.4209 5.06152a.5 .5 0 0 1 -.00391 -1l4.219-.034h.004a.5 .5 0 0 1 .00391 1L5.425 5.062" fill="#59813c"/><path fill="#fff" d="m5.979 6.287l-1.4.011"/><path d="M4.5791 6.79785a.5 .5 0 0 1 -.00391 -1l1.4-.012a.49181 .49181 0 0 1 .50391 .49609 .50035 .50035 0 0 1 -.49609 .50391L4.583 6.798" fill="#59813c"/><circle cx="12.713" cy="5.669" r=".951" fill="#020202"/><path d="m15.564 9.165l.011-1.838a.92452 .92452 0 0 0 -.834 -.91943 .91261 .91261 0 0 0 -1.0274 .87067l-.006 1.104a.91261 .91261 0 0 0 -1.01712 -.88265 .92452 .92452 0 0 0 -.84475 .90958l-.019 3.172v.073a.92972 .92972 0 0 0 -1.03227 -.63029 .91807 .91807 0 0 0 -.78965 .89941l-.004.667c-.014 2.422 1.403 4.394 3.963 4.409 3.859.023 3.523-5.314 3.523-5.314l.015-2.521a1.07208 1.07208 0 0 0 -.909 -.99123 .91261 .91261 0 0 0 -1.0274 .87067l-.019 3.203" fill="#fff"/><path d="m13.987 17.5h-.027c-2.643-.015-4.477-2.035-4.46-4.912l.004-.667a1.42261 1.42261 0 0 1 1.22168 -1.3916 1.49619 1.49619 0 0 1 .60645 .03906l.013-2.162a1.432 1.432 0 0 1 1.30272 -1.40524 1.46647 1.46647 0 0 1 .583 .06641 1.37543 1.37543 0 0 1 .43652 -.793 1.51562 1.51562 0 0 1 1.12012 -.36523 1.434 1.434 0 0 1 1.2881 1.41992l-.003.402a1.54368 1.54368 0 0 1 .56641 -.05566 1.56218 1.56218 0 0 1 1.35742 1.42188l-.01 2.591c.007.092.176 3.083-1.391 4.741a3.43688 3.43688 0 0 1 -2.60841 1.07031m-3.05176-5.98535a.64322 .64322 0 0 0 -.07324 .00488 .41641 .41641 0 0 0 -.3584 .40723l-.004.667c-.01 1.793.892 3.892 3.466 3.906a2.39643 2.39643 0 0 0 1.90332 -.75684c1.271-1.346 1.12-4 1.118-4.03l.014-2.555a.57489 .57489 0 0 0 -.457 -.49023 .46451 .46451 0 0 0 -.35645 .1123 .36086 .36086 0 0 0 -.123 .26367l-.019 3.203a.50035 .50035 0 0 1 -.5 .49707h-.003a.49972 .49972 0 0 1 -.49707 -.50293l.018-3.066v-.017l.012-1.838a.424 .424 0 0 0 -.38281 -.41895 .45232 .45232 0 0 0 -.35547 .11133 .3615 .3615 0 0 0 -.124 .26563l-.006 1.101v.002a.50035 .50035 0 0 1 -.5 .49707h-.003a.50035 .50035 0 0 1 -.49707 -.50293 .36157 .36157 0 0 0 -.12012 -.26562 .46238 .46238 0 0 0 -.35547 -.11621 .4239 .4239 0 0 0 -.38672 .415l-.019 3.172a.53822 .53822 0 0 1 -.42773 .52832 .46948 .46948 0 0 1 -.55078 -.3125 .42133 .42133 0 0 0 -.41211 -.28517" fill="#59813c"/><path fill="#fff" d="m13.751 12.167l-.044-3.785"/><path d="M13.751,12.667a.49974.49974,0,0,1-.5-.49414L13.207,8.3877a.49975.49975,0,0,1,.49414-.50586A.4826.4826,0,0,1,14.207,8.376l.04395,3.78516a.49975.49975,0,0,1-.49414.50586Z" fill="#59813c"/><path fill="#fff" d="m11.826 11.655l-.009 1.505"/><path d="m11.817 13.659h-.003a.49972 .49972 0 0 1 -.49707 -.50293l.009-1.505a.50035 .50035 0 0 1 .5 -.49707h.003a.49972 .49972 0 0 1 .49707 .50293l-.009 1.505a.50035 .50035 0 0 1 -.5 .49707" fill="#59813c"/></svg>