<svg xmlns="http://www.w3.org/2000/svg" viewBox="0 0 16 16"><g fill="#f9db17" stroke="#c9b220" stroke-linejoin="round" stroke-linecap="round"><path d="M12.29147,7.99759V7.1949a.95772.95772,0,0,0-.90982-.93209.89342.89342,0,0,0-1.0167.82885V6.80509a.93869.93869,0,0,0-.83482-.86463.89342.89342,0,0,0-1.01671.82885V1.86792A.9292.9292,0,0,0,6.6619,1.83215V6.83056a.89342.89342,0,0,0-1.0167-.82883.8926.8926,0,0,0-.83482.86462V7.606a.92911.92911,0,0,0-1.0303-.59017A.88321.88321,0,0,0,3,7.87049v2.98363a4.39648,4.39648,0,0,0,4.6096,4.14648h0a4.39648,4.39648,0,0,0,4.6096-4.14648Z"/><path d="m6.674 6.085v1.748"/><path d="m8.524 6.085v1.748"/><path d="m10.374 6.797v1.036"/><path d="m4.81 7.606v2.685"/></g></svg>