<svg xmlns="http://www.w3.org/2000/svg" viewBox="0 0 16 16"><path d="M3.36164 11.87649a1.21247 1.21247 0 0 1 -.29986 -.77377L2.994 2.277a2.99479 2.99479 0 0 1 .3369 -.85806c-.493.732-1.6 2.118-1.781 2.395A3.1789 3.1789 0 0 0 1.00035 5.208v8.45a1.05686 1.05686 0 0 0 .32833 .937l2.033-2.719" fill="#a5e2f9"/><path d="M14.9872 3.916a2.68347 2.68347 0 0 0 -.36139 -1.373l-.409-.828a2.01017 2.01017 0 0 1 .08512 .56243l.067 8.826a1.20689 1.20689 0 0 1 -.24041 .72606 2.78559 2.78559 0 0 1 -.399 .34728c-.014.008-.026.018-.04.025a1.14367 1.14367 0 0 1 -.55219 .1426H4.312c-.02 0-.038-.006-.058-.007a1.16739 1.16739 0 0 1 -.45759 -.115l-.006-.002a1.27527 1.27527 0 0 1 -.28795 -.20193 1.747 1.747 0 0 1 -.14123 -.16685S1.73 14.07 1.329 14.595a1.61207 1.61207 0 0 0 .683 .30332A5.41919 5.41919 0 0 0 2.99569 15H13.754a1.29685 1.29685 0 0 0 1.22643 -1.08146C14.988 13.802 14.987 3.916 14.987 3.916" fill="#5597b8"/><path d="M13.05185 1.03341a1.31371 1.31371 0 0 1 1.31787 1.24352v8.826a1.23048 1.23048 0 0 1 -1.23159 1.24107H4.312a1.318 1.318 0 0 1 -1.31785 -1.24655v-8.82A1.231 1.231 0 0 1 4.226 1.03341" fill="#69c6f4"/><path d="M5.8093,7.40576a1.50256,1.50256,0,0,1-1.38574-.91992.49985.49985,0,0,1,.92188-.38672.5004.5004,0,0,0,.92285-.38721.49966.49966,0,1,1,.92188-.38574A1.49932,1.49932,0,0,1,5.8093,7.40576Z"/><path d="M12.23117,7.42529a1.48568,1.48568,0,0,1-.69629-.17334A1.50123,1.50123,0,0,1,10.905,5.22656a.49972.49972,0,0,1,.88477.46484.5005.5005,0,0,0,.88574.46631.49972.49972,0,1,1,.88477.46484,1.48838,1.48838,0,0,1-.88281.73438A1.50741,1.50741,0,0,1,12.23117,7.42529Z"/><path d="M10.99973,11.05566a.49971.49971,0,0,1-.5-.5,1.5,1.5,0,0,0-3,0,.5.5,0,0,1-1,0,2.5,2.5,0,0,1,5,0A.49971.49971,0,0,1,10.99973,11.05566Z"/></svg>