<svg xmlns="http://www.w3.org/2000/svg" viewBox="0 0 16 16"><g fill="#f9db17" stroke="#c9b220" stroke-linejoin="round" stroke-linecap="round"><path d="M14.46657 9.83555a1.15278 1.15278 0 0 0 -1.16706 -1.014h-.453a1.11378 1.11378 0 0 0 1.10923 -1.21333 1.15278 1.15278 0 0 0 -1.16706 -1.01391H9.93L8.712 6.593S9.759 4.051 10.149 3.236c.479-1-.436-3.294-1.771-2.734C7.376.923 7.834 2.061 7.711 2.736A5.75336 5.75336 0 0 1 5.7771 5.57917 5.75441 5.75441 0 0 1 2.44978 6.5967c-.511-.006-.909-.011-.909-.011a.01141 .01141 0 0 0 -.01142 .01142v7.502a.01146 .01146 0 0 0 .01142 .01142H4.822a2.07333 2.07333 0 0 1 1.22519 .36555A5.59891 5.59891 0 0 0 9.3491 15.553l2.55.032a1.18472 1.18472 0 0 0 1.10837 -1.3045c-.055-.579-.575-1-1.577-1H12.831a1.11384 1.11384 0 0 0 1.10837 -1.223 1.14592 1.14592 0 0 0 -1.15621 -1.0042h.574A1.11385 1.11385 0 0 0 14.46657 9.83555"/><path d="m11.386 8.848h1.851"/><path d="m11.386 11.05h1.851"/><path d="m11.386 13.283h1.47"/></g></svg>