<svg xmlns="http://www.w3.org/2000/svg" viewBox="0 0 16 16"><path d="M3.37438 11.84308a1.21247 1.21247 0 0 1 -.29986 -.77377L3.01 2.244a2.99479 2.99479 0 0 1 .3369 -.85806C2.851 2.117 1.744 3.503 1.563 3.78a3.1789 3.1789 0 0 0 -.54956 1.39446V13.625a1.05686 1.05686 0 0 0 .32833 .937L3.374 11.843" fill="#fce481"/><path d="M14.99993 3.88256a2.68347 2.68347 0 0 0 -.36139 -1.373L14.23 1.681a2.01017 2.01017 0 0 1 .08512 .56243l.067 8.826a1.20689 1.20689 0 0 1 -.24041 .72606 2.78559 2.78559 0 0 1 -.399 .34728c-.014.008-.026.018-.04.025a1.14367 1.14367 0 0 1 -.55219 .1426H4.325c-.02 0-.038-.006-.058-.007a1.16739 1.16739 0 0 1 -.45759 -.115l-.006-.002a1.27527 1.27527 0 0 1 -.28795 -.20193 1.747 1.747 0 0 1 -.14123 -.16685s-1.632 2.215-2.033 2.745a1.61207 1.61207 0 0 0 .683 .30332 5.41919 5.41919 0 0 0 .98405 .10119H13.767a1.29685 1.29685 0 0 0 1.22643 -1.08146C15 13.768 15 3.883 15 3.883" fill="#c4aa10"/><path d="M13.06459 1a1.31371 1.31371 0 0 1 1.31787 1.24352v8.826a1.23048 1.23048 0 0 1 -1.23159 1.24107H4.325a1.318 1.318 0 0 1 -1.31785 -1.24655v-8.82A1.231 1.231 0 0 1 4.23877 1" fill="#fdd810"/><path fill="#e098b9" d="m14.357 1.064l-.002.017"/><path d="m3.359.791l-.038.049c.012-.011.028-.017.04-.027" fill="#fce481"/><path d="M4.15563 4.71484A1.80745 1.80745 0 0 1 2.27872 6.69062 1.80745 1.80745 0 0 1 .40181 4.71484 26.815 26.815 0 0 1 2.27872 .63158 26.815 26.815 0 0 1 4.15563 4.71484" fill="#69c6f4"/><path d="M6,5.5A1.50164,1.50164,0,0,1,4.5,4a.5.5,0,0,1,1,0,.5.5,0,0,0,1,0,.5.5,0,0,1,1,0A1.50164,1.50164,0,0,1,6,5.5Z"/><path d="M12,5.5A1.50164,1.50164,0,0,1,10.5,4a.5.5,0,0,1,1,0,.5.5,0,0,0,1,0,.5.5,0,0,1,1,0A1.50164,1.50164,0,0,1,12,5.5Z"/><path d="M9,11.5A2.50232,2.50232,0,0,1,6.5,9a.5.5,0,0,1,1,0,1.5,1.5,0,0,0,3,0,.5.5,0,0,1,1,0A2.50232,2.50232,0,0,1,9,11.5Z"/></svg>