<svg xmlns="http://www.w3.org/2000/svg" viewBox="0 0 16 16"><defs><clipPath id="0"><circle cx="11.27" cy="3.339" r="1.751" fill="#fff"/></clipPath><clipPath id="1"><circle cx="6.402" cy="3.339" r="1.751" fill="#fff"/></clipPath></defs><path d="M3.37438 11.87649a1.21247 1.21247 0 0 1 -.29986 -.77377L3.01 2.277a2.99479 2.99479 0 0 1 .3369 -.85806c-.493.732-1.6 2.118-1.781 2.395A3.1789 3.1789 0 0 0 1.01309 5.208v8.45a1.05686 1.05686 0 0 0 .32833 .937L3.374 11.876" fill="#cdf7a1"/><path d="M14.99993 3.916a2.68347 2.68347 0 0 0 -.36139 -1.373L14.23 1.715a2.01017 2.01017 0 0 1 .08512 .56243l.067 8.826a1.20689 1.20689 0 0 1 -.24041 .72606 2.78559 2.78559 0 0 1 -.399 .34728c-.014.008-.026.018-.04.025a1.14367 1.14367 0 0 1 -.55219 .1426H4.325c-.02 0-.038-.006-.058-.007a1.16739 1.16739 0 0 1 -.45759 -.115l-.006-.002a1.27527 1.27527 0 0 1 -.28795 -.20193 1.747 1.747 0 0 1 -.14123 -.16685S1.742 14.07 1.341 14.595a1.61207 1.61207 0 0 0 .683 .30332A5.41919 5.41919 0 0 0 3.00842 15H13.767a1.29685 1.29685 0 0 0 1.22643 -1.08146C15 13.802 15 3.916 15 3.916" fill="#59813c"/><path d="M13.06459 1.03341a1.31371 1.31371 0 0 1 1.31787 1.24352v8.826a1.23048 1.23048 0 0 1 -1.23159 1.24107H4.325a1.318 1.318 0 0 1 -1.31785 -1.24655v-8.82A1.231 1.231 0 0 1 4.23877 1.03341" fill="#9ae84f"/><path fill="#59813c" d="m14.352 1.059l-.002.017"/><path d="m3.353.785l-.038.049c.012-.011.028-.017.04-.027" fill="#fce481"/><circle cx="11.27" cy="3.339" r="1.751" fill="#fff"/><g clip-path="url(#0)"><path d="m12.494 3.03v-.488h-.438l.137-1.047h-.488l-.143 1.047h-.407l.138-1.047h-.483l-.143 1.047h-.532v.488h.46l-.083.632h-.509v.486h.438l-.143 1.076h.493l.143-1.076h.406l-.143 1.076h.494l.143-1.076h.531v-.486h-.461l.078-.632m-.488 0l-.083.632h-.406l.083-.632" fill="#020202"/></g><circle cx="6.402" cy="3.339" r="1.751" fill="#fff"/><g clip-path="url(#1)"><path d="m7.625 3.03v-.488h-.438l.137-1.047h-.488l-.143 1.047h-.407l.138-1.047h-.483l-.142 1.047h-.532v.488h.46l-.083.632h-.509v.486h.438l-.142 1.076h.493l.143-1.076h.406l-.143 1.076h.494l.143-1.076h.531v-.486h-.461l.078-.632m-.488 0l-.083.632h-.406l.083-.632" fill="#020202"/></g><g fill="#3f261c"><path d="m12.905 8.331l-.003-.011-.002-.006a2.105 2.105 0 0 0 -.40843 -.69781 2.81529 2.81529 0 0 0 -.39053 -.39588 5.16758 5.16758 0 0 0 -3.38012 -.95529 4.65 4.65 0 0 0 -3.16445 1.0178 2.63185 2.63185 0 0 0 -.53066 .593 2.24656 2.24656 0 0 0 -.37379 1.27337 1.942 1.942 0 0 0 1.81872 2.0449 1.413 1.413 0 0 0 .21872 -.02713 1.83615 1.83615 0 0 0 .95027 -.49546l.289-.208a2.01471 2.01471 0 0 1 2.34671 .36949q.071.051.146.095l.011.008h.004a1.58041 1.58041 0 0 0 1.39767 .0943h.002v-.001a1.80275 1.80275 0 0 0 .702 -.52438 2.21287 2.21287 0 0 0 .49505 -1.43306 2.31214 2.31214 0 0 0 -.12833 -.74156"/><path d="M9.68287 9.204a3.18947 3.18947 0 0 1 2.855 1.30128 2.21293 2.21293 0 0 0 .49508 -1.43306 2.31346 2.31346 0 0 0 -.12836 -.74157L12.902 8.32l-.002-.006a2.10477 2.10477 0 0 0 -.40843 -.69781 2.81317 2.81317 0 0 0 -.39053 -.39588 1.63471 1.63471 0 0 1 -1.37658 .82346l-3.78.035a1.62913 1.62913 0 0 1 -1.38829 -.79588 2.63242 2.63242 0 0 0 -.53066 .593 2.24627 2.24627 0 0 0 -.37377 1.27337 1.942 1.942 0 0 0 1.81872 2.04488 1.4116 1.4116 0 0 0 .21869 -.02712C6.71 10.1 8.04 9.219 9.683 9.204"/></g><ellipse cx="8.772" cy="8.455" rx="2.083" ry="1.463" fill="#020202"/><path d="m7.22 8.03l3.78-.035c.576-.005.806-.29 1.1-.779a5.16755 5.16755 0 0 0 -3.38012 -.95531 4.65011 4.65011 0 0 0 -3.16448 1.01783 2.09689 2.09689 0 0 0 1.66463 .7517" fill="#fff"/><path d="M7.92788 10.46437a2.01474 2.01474 0 0 1 2.34671 .36949q.071.051.146.095l.011.008h.004a1.58053 1.58053 0 0 0 1.3977 .09432h.002v-.001a1.80243 1.80243 0 0 0 .702 -.52437A3.18947 3.18947 0 0 0 9.68287 9.204c-1.645.015-2.973.891-2.994 1.963a1.83623 1.83623 0 0 0 .95029 -.49546" fill="#ed3b3b"/></svg>