<svg xmlns="http://www.w3.org/2000/svg" viewBox="0 0 16 16"><path d="M3.36164 11.84308a1.21247 1.21247 0 0 1 -.29986 -.77377L2.994 2.244a2.99479 2.99479 0 0 1 .3369 -.85806C2.838 2.117 1.732 3.503 1.55 3.78a3.1789 3.1789 0 0 0 -.54956 1.39446V13.625a1.05686 1.05686 0 0 0 .32833 .937l2.033-2.719" fill="#ff7878"/><path d="M14.9872 3.88256a2.68347 2.68347 0 0 0 -.36139 -1.373l-.409-.828a2.01017 2.01017 0 0 1 .08512 .56243l.067 8.826a1.20689 1.20689 0 0 1 -.24041 .72606 2.78559 2.78559 0 0 1 -.399 .34728c-.014.008-.026.018-.04.025a1.14367 1.14367 0 0 1 -.55219 .1426H4.312c-.02 0-.038-.006-.058-.007a1.16739 1.16739 0 0 1 -.45759 -.115l-.006-.002a1.27527 1.27527 0 0 1 -.28795 -.20193 1.747 1.747 0 0 1 -.14123 -.16685s-1.632 2.215-2.033 2.745a1.61207 1.61207 0 0 0 .683 .30332 5.41919 5.41919 0 0 0 .98405 .10119H13.754a1.29685 1.29685 0 0 0 1.22643 -1.08146C14.988 13.768 14.987 3.883 14.987 3.883" fill="#c52f30"/><path d="M13.05185 1a1.31371 1.31371 0 0 1 1.31787 1.24352v8.826a1.23048 1.23048 0 0 1 -1.23159 1.24107H4.312a1.318 1.318 0 0 1 -1.31785 -1.24655v-8.82A1.231 1.231 0 0 1 4.226 1" fill="#ed3b3b"/><path d="m3.164.975l-.038.049c.012-.011.028-.017.04-.027" fill="#fce481"/><circle cx="5.879" cy="6.879" r="1.879" fill="#c52f30"/><path d="M7.64059,2.94378a.46908.46908,0,0,1-.45917-.1399,1.54474,1.54474,0,0,0-2.01809-.234.47023.47023,0,1,1-.53257-.77515,2.4852,2.4852,0,0,1,3.24551.37519.47039.47039,0,0,1-.23569.77389Z" fill="#020202"/><path d="M6.76195,4.07424a.612.612,0,1,1-1.1614.05529,1.74282,1.74282,0,1,0,1.1614-.05529Z" fill="#fff"/><path d="M5.6874,4.64179a.61226.61226,0,0,0,1.07455-.56754,1.73844,1.73844,0,0,0-1.1614.05529A.60941.60941,0,0,0,5.6874,4.64179Z" fill="#020202"/><circle cx="11.146" cy="6.905" r="1.854" fill="#c52f30"/><path d="M9.55478,2.94378a.46908.46908,0,0,0,.45917-.1399,1.54474,1.54474,0,0,1,2.01809-.234.47023.47023,0,0,0,.53257-.77515A2.4852,2.4852,0,0,0,9.3191,2.1699a.47039.47039,0,0,0,.23569.77389Z" fill="#020202"/><path d="M10.37387,4.077a.612.612,0,1,0,1.16168.049,1.74282,1.74282,0,1,1-1.16168-.049Z" fill="#fff"/><path d="M11.45146,4.63872a.61226.61226,0,0,1-1.0776-.56173,1.73844,1.73844,0,0,1,1.16168.049A.60941.60941,0,0,1,11.45146,4.63872Z" fill="#020202"/><path d="M10.68164,11.5a.49971.49971,0,0,1-.5-.5,1.5,1.5,0,1,0-3,0,.5.5,0,0,1-1,0,2.5,2.5,0,1,1,5,0A.49971.49971,0,0,1,10.68164,11.5Z"/></svg>