<svg xmlns="http://www.w3.org/2000/svg" viewBox="0 0 16 16"><path d="M3.37438 11.84308a1.21247 1.21247 0 0 1 -.29986 -.77377L3.01 2.244a2.99479 2.99479 0 0 1 .3369 -.85806C2.851 2.117 1.744 3.503 1.563 3.78a3.1789 3.1789 0 0 0 -.54956 1.39446V13.625a1.05686 1.05686 0 0 0 .32833 .937L3.374 11.843" fill="#a5e2f9"/><path d="M14.99993 3.88256a2.68347 2.68347 0 0 0 -.36139 -1.373L14.23 1.681a2.01017 2.01017 0 0 1 .08512 .56243l.067 8.826a1.20689 1.20689 0 0 1 -.24041 .72606 2.78559 2.78559 0 0 1 -.399 .34728c-.014.008-.026.018-.04.025a1.14367 1.14367 0 0 1 -.55219 .1426H4.325c-.02 0-.038-.006-.058-.007a1.16739 1.16739 0 0 1 -.45759 -.115l-.006-.002a1.27527 1.27527 0 0 1 -.28795 -.20193 1.747 1.747 0 0 1 -.14123 -.16685s-1.632 2.215-2.033 2.745a1.61207 1.61207 0 0 0 .683 .30332 5.41919 5.41919 0 0 0 .98405 .10119H13.767a1.29685 1.29685 0 0 0 1.22643 -1.08146C15 13.768 15 3.883 15 3.883" fill="#5597b8"/><path d="M13.06459 1a1.31371 1.31371 0 0 1 1.31787 1.24352v8.826a1.23048 1.23048 0 0 1 -1.23159 1.24107H4.325a1.318 1.318 0 0 1 -1.31785 -1.24655v-8.82A1.231 1.231 0 0 1 4.23877 1" fill="#69c6f4"/><path d="m10.5 11h-2.999a.5 .5 0 1 1 0 -1h2.999a.5 .5 0 1 1 0 1" fill="#221f1f"/><circle cx="6.01" cy="5.992" r="2.01" fill="#5597b8"/><circle cx="6.5" cy="5.5" r="1.5" fill="#ed3b3b"/><circle cx="6.5" cy="5.5" r=".5" fill="#221f1f"/><path d="M4.47656,5.89014A.49938.49938,0,0,1,3.99707,5.248a3.00107,3.00107,0,0,1,4.498-1.67725.4998.4998,0,0,1-.53906.8418,2.00079,2.00079,0,0,0-3,1.11963A.50048.50048,0,0,1,4.47656,5.89014Z"/><circle cx="12.05" cy="5.992" r="2.01" fill="#5597b8"/><circle cx="11.559" cy="5.5" r="1.5" fill="#ed3b3b"/><g fill="#221f1f"><circle cx="11.559" cy="5.5" r=".5"/><path d="M13.582,5.89014a.50033.50033,0,0,1-.47949-.3584,1.99994,1.99994,0,0,0-3-1.11865.50021.50021,0,0,1-.53906-.84277,3.0009,3.0009,0,0,1,4.498,1.67822.5.5,0,0,1-.33789.62109A.48951.48951,0,0,1,13.582,5.89014Z"/></g></svg>