<svg xmlns="http://www.w3.org/2000/svg" viewBox="0 0 16 16"><path d="M3.36164 11.87649a1.21247 1.21247 0 0 1 -.29986 -.77377L2.994 2.277a2.99479 2.99479 0 0 1 .3369 -.85806c-.493.732-1.6 2.118-1.781 2.395A3.1789 3.1789 0 0 0 1.00035 5.208v8.45a1.05686 1.05686 0 0 0 .32833 .937l2.033-2.719" fill="#ff7878"/><path d="M14.9872 3.916a2.68347 2.68347 0 0 0 -.36139 -1.373l-.409-.828a2.01017 2.01017 0 0 1 .08512 .56243l.067 8.826a1.20689 1.20689 0 0 1 -.24041 .72606 2.78559 2.78559 0 0 1 -.399 .34728c-.014.008-.026.018-.04.025a1.14367 1.14367 0 0 1 -.55219 .1426H4.312c-.02 0-.038-.006-.058-.007a1.16739 1.16739 0 0 1 -.45759 -.115l-.006-.002a1.27527 1.27527 0 0 1 -.28795 -.20193 1.747 1.747 0 0 1 -.14123 -.16685S1.73 14.07 1.329 14.595a1.61207 1.61207 0 0 0 .683 .30332A5.41919 5.41919 0 0 0 2.99569 15H13.754a1.29685 1.29685 0 0 0 1.22643 -1.08146C14.988 13.802 14.987 3.916 14.987 3.916" fill="#c52f30"/><path d="M13.05185 1.03341a1.31371 1.31371 0 0 1 1.31787 1.24352v8.826a1.23048 1.23048 0 0 1 -1.23159 1.24107H4.312a1.318 1.318 0 0 1 -1.31785 -1.24655v-8.82A1.231 1.231 0 0 1 4.226 1.03341" fill="#ed3b3b"/><path d="m3.226 11.776l.009-.012a1.79274 1.79274 0 0 0 .14532 .17163 1.31185 1.31185 0 0 0 .2962 .20776l.006.002a1.20072 1.20072 0 0 0 .47076 .11835c.02.001.039.007.059.007h1.674l-1.23-11.01-3.632 5.237.027 4.492c.002.301 1.997.566 2.175.782" fill="#c52f30"/><path d="m3.164.917l-.038.049c.012-.011.028-.017.04-.028" fill="#fce481"/><path d="m12.202 9.373h-4.185a.375 .375 0 0 1 0 -.75h4.185a.375 .375 0 1 1 0 .75"/><circle cx="12.524" cy="4.468" r="1.476" fill="#fff"/><g fill="#020202"><circle cx="12.524" cy="4.468" r=".52"/><path d="m14.03 3.68h-3.01a.41649 .41649 0 0 1 0 -.833h3.01a.41649 .41649 0 1 1 0 .833"/></g><path d="M2.958 10.94727a.25048 .25048 0 0 1 -.25 -.25V7.606a.25 .25 0 0 1 .5 0v3.091A.25048 .25048 0 0 1 2.958 10.94727" fill="#c52f30"/><path d="M10.43477,7.9982V7.19551A.95772.95772,0,0,0,9.525,6.26343a.89342.89342,0,0,0-1.0167.82885V6.8057a.93869.93869,0,0,0-.83482-.86463.89342.89342,0,0,0-1.01671.82885V1.86853a.8926.8926,0,0,0-.83482-.86462.89342.89342,0,0,0-1.0167.82885V6.83117a.89342.89342,0,0,0-1.0167-.82883.8926.8926,0,0,0-.83482.86462v.73961a.92911.92911,0,0,0-1.0303-.59017.88321.88321,0,0,0-.78008.8547v2.98363a4.39648,4.39648,0,0,0,4.6096,4.14648h0a4.39648,4.39648,0,0,0,4.6096-4.14648Z" fill="#fff"/><g fill="#c52f30"><path d="M5.75293,15.501A4.8997,4.8997,0,0,1,.64355,10.85449V7.87109A1.38574,1.38574,0,0,1,1.85645,6.52148a1.55739,1.55739,0,0,1,.63281.04395A1.41491,1.41491,0,0,1,3.74414,5.50391a1.51975,1.51975,0,0,1,.56152.05566V1.833A1.28333,1.28333,0,0,1,4.73145.88184a1.45536,1.45536,0,0,1,1.13281-.376,1.39671,1.39671,0,0,1,1.292,1.3623V5.498a1.47629,1.47629,0,0,1,.56055-.05469,1.39444,1.39444,0,0,1,.96484.5166,1.51012,1.51012,0,0,1,.88672-.19434,1.454,1.454,0,0,1,1.36621,1.42969v.81543l-.07227,2.85645A4.89806,4.89806,0,0,1,5.75293,15.501ZM2.06934,7.50684a.51981.51981,0,0,0-.07715.00488.38326.38326,0,0,0-.34863.35938v2.9834A3.90333,3.90333,0,0,0,5.75293,14.501,3.90333,3.90333,0,0,0,9.8623,10.85449l.07227-3.65918a.46017.46017,0,0,0-.45215-.43359.50026.50026,0,0,0-.37207.11621.2928.2928,0,0,0-.10254.21387.5.5,0,0,1-1,0V6.80566a.44411.44411,0,0,0-.377-.36621.50708.50708,0,0,0-.37207.11621.2928.2928,0,0,0-.10254.21387.5.5,0,0,1-1,0V1.86816a.39147.39147,0,0,0-.376-.36621.48846.48846,0,0,0-.37207.11621.29326.29326,0,0,0-.10254.21484v4.998a.5.5,0,0,1-1,0,.2928.2928,0,0,0-.10254-.21387A.4887.4887,0,0,0,3.83008,6.5a.39308.39308,0,0,0-.376.36719v.66992a.53729.53729,0,0,1-.4209.52832.4759.4759,0,0,1-.55469-.30371A.4199.4199,0,0,0,2.06934,7.50684Zm8.36523.49121h0Z"/><path d="M4.81738,8.334a.49971.49971,0,0,1-.5-.5v-1.748a.5.5,0,0,1,1,0V7.834A.49971.49971,0,0,1,4.81738,8.334Z"/><path d="M6.667,8.334a.49971.49971,0,0,1-.5-.5v-1.748a.5.5,0,0,1,1,0V7.834A.49971.49971,0,0,1,6.667,8.334Z"/><path d="M8.51758,8.334a.49971.49971,0,0,1-.5-.5V6.79785a.5.5,0,0,1,1,0V7.834A.49971.49971,0,0,1,8.51758,8.334Z"/><path d="M2.9541,10.792a.49971.49971,0,0,1-.5-.5V7.60645a.5.5,0,0,1,1,0V10.292A.49971.49971,0,0,1,2.9541,10.792Z"/></g></svg>