<svg xmlns="http://www.w3.org/2000/svg" viewBox="0 0 16 16"><path d="M3.36164 11.87649a1.21247 1.21247 0 0 1 -.29986 -.77377L2.994 2.277a2.99479 2.99479 0 0 1 .3369 -.85806c-.493.732-1.6 2.118-1.781 2.395A3.1789 3.1789 0 0 0 1.00035 5.208v8.45a1.05686 1.05686 0 0 0 .32833 .937l2.033-2.719" fill="#a5e2f9"/><path d="M14.9872 3.916a2.68347 2.68347 0 0 0 -.36139 -1.373l-.409-.828a2.01017 2.01017 0 0 1 .08512 .56243l.067 8.826a1.20689 1.20689 0 0 1 -.24041 .72606 2.78559 2.78559 0 0 1 -.399 .34728c-.014.008-.026.018-.04.025a1.14367 1.14367 0 0 1 -.55219 .1426H4.312c-.02 0-.038-.006-.058-.007a1.16739 1.16739 0 0 1 -.45759 -.115l-.006-.002a1.27527 1.27527 0 0 1 -.28795 -.20193 1.747 1.747 0 0 1 -.14123 -.16685S1.73 14.07 1.329 14.595a1.61207 1.61207 0 0 0 .683 .30332A5.41919 5.41919 0 0 0 2.99569 15H13.754a1.29685 1.29685 0 0 0 1.22643 -1.08146C14.988 13.802 14.987 3.916 14.987 3.916" fill="#5597b8"/><path d="M13.05185 1.03341a1.31371 1.31371 0 0 1 1.31787 1.24352v8.826a1.23048 1.23048 0 0 1 -1.23159 1.24107H4.312a1.318 1.318 0 0 1 -1.31785 -1.24655v-8.82A1.231 1.231 0 0 1 4.226 1.03341" fill="#69c6f4"/><path d="M4.001,3.498a.49951.49951,0,0,1-.35449-.85156A4.86765,4.86765,0,0,1,7,1.5a.5.5,0,0,1,0,1,3.89929,3.89929,0,0,0-2.64941.85645A.50227.50227,0,0,1,4.001,3.498Z"/><path d="M14,3.5a.49685.49685,0,0,1-.35059-.14355h0A3.89929,3.89929,0,0,0,11,2.5a.5.5,0,0,1,0-1,4.86765,4.86765,0,0,1,3.35352,1.14648A.5.5,0,0,1,14,3.5Z"/><path d="M6,5.5A1.50164,1.50164,0,0,1,4.5,4a.5.5,0,0,1,1,0,.5.5,0,0,0,1,0,.5.5,0,0,1,1,0A1.50164,1.50164,0,0,1,6,5.5Z"/><path d="M12,5.5A1.50164,1.50164,0,0,1,10.5,4a.5.5,0,0,1,1,0,.5.5,0,0,0,1,0,.5.5,0,0,1,1,0A1.50164,1.50164,0,0,1,12,5.5Z"/><path d="M11,10.5a.49971.49971,0,0,1-.5-.5,1.5,1.5,0,0,0-3,0,.5.5,0,0,1-1,0,2.5,2.5,0,0,1,5,0A.49971.49971,0,0,1,11,10.5Z"/></svg>