<svg xmlns="http://www.w3.org/2000/svg" viewBox="0 0 16 16"><path d="M15.31941 4.47876A3.67728 3.67728 0 0 0 12.98852 1.7097c-2.173-.824-3.926.997-4.8 3.151A3.32268 3.32268 0 0 0 8 5.57635a3.32286 3.32286 0 0 0 -.18834 -.71615C6.937 2.707 5.184.885 3.01 1.71A3.67728 3.67728 0 0 0 .68059 4.47876 5.70138 5.70138 0 0 0 2.25721 9.78644c.872.887 1.818 1.701 2.742 2.535.995.899 2 1.783 3 2.669h.002c.998-.886 2-1.771 3-2.669.924-.834 1.87-1.649 2.742-2.535A5.70138 5.70138 0 0 0 15.31941 4.47876" fill="#5dc0ee"/></svg>