<svg xmlns="http://www.w3.org/2000/svg" viewBox="0 0 16 16"><g stroke="#c9b220"><path d="M12.91992,6.25006V3.418a1.01842,1.01842,0,0,0-.89246-1.02757.98988.98988,0,0,0-1.0869.985v2.803a.98964.98964,0,0,0-1.06687-.78944,1.01516,1.01516,0,0,0-.8897.997.9891.9891,0,0,0-1.083-.91162A1.04276,1.04276,0,0,0,6.98037,6.502l.00145-4.63276a.98988.98988,0,0,0-1.0869-.985,1.0184,1.0184,0,0,0-.89246,1.02755V7.363l-.17311.06143a3.02066,3.02066,0,0,0-1.74991,2.834,4.69984,4.69984,0,0,0,4.81634,4.862,5.01353,5.01353,0,0,0,5.02708-4.92788V6.25006Z" fill="#f9db17" stroke-linecap="round" stroke-linejoin="round"/><g fill="none" stroke-miterlimit="10"><path d="m8.986 5.611v2.591a1.05956 1.05956 0 0 1 -.96519 .93756 .99934 .99934 0 0 1 -1.0458 -.792v-2.71"/><path d="m10.961 5.611v2.591a1.04984 1.04984 0 0 1 -.948 .93756 .98674 .98674 0 0 1 -1.0272 -.792v-2.71"/></g><path d="m5.072 7.336s1.972-.226 2.762-.232a.93082 .93082 0 0 1 1.04264 .86081 .97344 .97344 0 0 1 -1.00227 .97118l-1.946.066a3.10164 3.10164 0 0 1 1.60161 .83347 3.05 3.05 0 0 1 .8755 2.62448 3.09527 3.09527 0 0 1 -.35178 1.03423" fill="#f9db17" stroke-linecap="round" stroke-linejoin="round"/></g></svg>