<svg xmlns="http://www.w3.org/2000/svg" viewBox="0 0 18 18"><path d="M4.36164 14.85979a1.21247 1.21247 0 0 1 -.29986 -.77377L3.994 5.26a2.99479 2.99479 0 0 1 .3369 -.85806c-.493.732-1.6 2.118-1.781 2.395a3.1789 3.1789 0 0 0 -.54956 1.39446v8.45a1.05686 1.05686 0 0 0 .32833 .937l2.033-2.719" fill="#fce481"/><path d="M15.9872 6.89927a2.68347 2.68347 0 0 0 -.36139 -1.373l-.409-.828a2.01017 2.01017 0 0 1 .08512 .56243l.067 8.826a1.20689 1.20689 0 0 1 -.24041 .72606 2.78559 2.78559 0 0 1 -.399 .34728c-.014.008-.026.018-.04.025a1.14367 1.14367 0 0 1 -.55219 .1426H5.312c-.02 0-.038-.006-.058-.007a1.16739 1.16739 0 0 1 -.45759 -.115l-.006-.002a1.27527 1.27527 0 0 1 -.28795 -.20193 1.747 1.747 0 0 1 -.14123 -.16685s-1.632 2.215-2.033 2.745a1.61207 1.61207 0 0 0 .683 .30332 5.41919 5.41919 0 0 0 .98405 .10119H14.754a1.29685 1.29685 0 0 0 1.22643 -1.08146C15.988 16.785 15.987 6.899 15.987 6.899" fill="#c4aa10"/><path d="M14.05185 4.0167a1.31371 1.31371 0 0 1 1.31787 1.24352v8.826a1.23048 1.23048 0 0 1 -1.23159 1.24107H5.312a1.318 1.318 0 0 1 -1.31785 -1.24655v-8.82A1.231 1.231 0 0 1 5.226 4.0167" fill="#fdd810"/><path d="M6.40234,9.5a1.50164,1.50164,0,0,1-1.5-1.5.5.5,0,0,1,1,0,.5.5,0,0,0,1,0,.5.5,0,0,1,1,0A1.50164,1.50164,0,0,1,6.40234,9.5Z"/><path d="M12.40234,9.5a1.50164,1.50164,0,0,1-1.5-1.5.5.5,0,0,1,1,0,.5.5,0,0,0,1,0,.5.5,0,0,1,1,0A1.50164,1.50164,0,0,1,12.40234,9.5Z"/><ellipse cx="9.597" cy="12.5" rx="1" ry="1.5"/><g fill="#5dc0ee"><path d="m12.381 2.142v-.904h-4.145v1.323h2.19l-2.426 3.549v.89h4.418v-1.323h-2.45l2.413-3.535"/><path d="m15.04 3.709l1.929-2.832v-.877h-3.648v1.291h1.749l-1.95 2.845v.864h3.88v-1.291h-1.96"/></g></svg>