<svg xmlns="http://www.w3.org/2000/svg" viewBox="0 0 16 16"><path d="M3.37438 11.84308a1.21247 1.21247 0 0 1 -.29986 -.77377L3.01 2.244a2.99479 2.99479 0 0 1 .3369 -.85806C2.851 2.117 1.744 3.503 1.563 3.78a3.1789 3.1789 0 0 0 -.54956 1.39446V13.625a1.05686 1.05686 0 0 0 .32833 .937L3.374 11.843" fill="#fce481"/><path d="M14.99993 3.88256a2.68347 2.68347 0 0 0 -.36139 -1.373L14.23 1.681a2.01017 2.01017 0 0 1 .08512 .56243l.067 8.826a1.20689 1.20689 0 0 1 -.24041 .72606 2.78559 2.78559 0 0 1 -.399 .34728c-.014.008-.026.018-.04.025a1.14367 1.14367 0 0 1 -.55219 .1426H4.325c-.02 0-.038-.006-.058-.007a1.16739 1.16739 0 0 1 -.45759 -.115l-.006-.002a1.27527 1.27527 0 0 1 -.28795 -.20193 1.747 1.747 0 0 1 -.14123 -.16685s-1.632 2.215-2.033 2.745a1.61207 1.61207 0 0 0 .683 .30332 5.41919 5.41919 0 0 0 .98405 .10119H13.767a1.29685 1.29685 0 0 0 1.22643 -1.08146C15 13.768 15 3.883 15 3.883" fill="#c4aa10"/><path d="M13.06459 1a1.31371 1.31371 0 0 1 1.31787 1.24352v8.826a1.23048 1.23048 0 0 1 -1.23159 1.24107H4.325a1.318 1.318 0 0 1 -1.31785 -1.24655v-8.82A1.231 1.231 0 0 1 4.23877 1" fill="#fdd810"/><path fill="#e098b9" d="m14.162 1.248l-.002.017"/><path d="m3.164.975l-.038.049c.012-.011.028-.017.04-.027" fill="#fce481"/><circle cx="5.738" cy="4.568" r="1.738" fill="#fff"/><circle cx="5.738" cy="4.568" r=".568" fill="#020202"/><path d="M13.05469,4.31445a.50014.50014,0,0,1-.45605-.2959,2.16822,2.16822,0,0,0-2.59277-1.19043.5.5,0,1,1-.2832-.959,3.166,3.166,0,0,1,3.78809,1.74121.49894.49894,0,0,1-.252.66016A.48972.48972,0,0,1,13.05469,4.31445Z"/><path d="M3.89844,3.52637a.48972.48972,0,0,1-.2041-.04395.49894.49894,0,0,1-.252-.66016A3.16541,3.16541,0,0,1,7.23047,1.082a.5.5,0,1,1-.2832.959A2.16877,2.16877,0,0,0,4.35449,3.23047.50014.50014,0,0,1,3.89844,3.52637Z"/><path d="M11,6.5A1.50164,1.50164,0,0,1,9.5,5a.5.5,0,0,1,1,0,.5.5,0,0,0,1,0,.5.5,0,0,1,1,0A1.50164,1.50164,0,0,1,11,6.5Z"/><path d="m5.353 8h6.71s-.264 3.266-3.355 3.266-3.355-3.266-3.355-3.266"/><path d="M8.708,11.7666A3.8835,3.8835,0,0,1,4.85547,8.04a.50018.50018,0,0,1,.498-.54h6.71a.50018.50018,0,0,1,.498.54A3.88374,3.88374,0,0,1,8.708,11.7666ZM5.95313,8.5a2.80807,2.80807,0,0,0,5.51074,0Z"/><path d="M6.73853 10.36567a3.1421 3.1421 0 0 0 1.96973 .61981 3.2402 3.2402 0 0 0 1.7132 -.44556c-.248-.801-.959-1.807-1.841-1.807C7.761 8.733 7.03 9.654 6.739 10.366" fill="#ed3b3b"/><path d="m5.814 8.157h5.788v.361a.79113 .79113 0 0 1 -.79113 .79113h-4.206a.79113 .79113 0 0 1 -.79111 -.79113" fill="#fff"/></svg>