<svg xmlns="http://www.w3.org/2000/svg" viewBox="0 0 18 18"><path d="M4.36164 12.84308a1.21247 1.21247 0 0 1 -.29986 -.77377L3.994 3.244a2.99479 2.99479 0 0 1 .3369 -.85806C3.838 3.117 2.732 4.503 2.55 4.78a3.1789 3.1789 0 0 0 -.54956 1.39446V14.625a1.05686 1.05686 0 0 0 .32833 .937l2.033-2.719" fill="#fce481"/><path d="M15.9872 4.88256a2.68347 2.68347 0 0 0 -.36139 -1.373l-.409-.828a2.01017 2.01017 0 0 1 .08512 .56243l.067 8.826a1.20689 1.20689 0 0 1 -.24041 .72606 2.78559 2.78559 0 0 1 -.399 .34728c-.014.008-.026.018-.04.025a1.14367 1.14367 0 0 1 -.55219 .1426H5.312c-.02 0-.038-.006-.058-.007a1.16739 1.16739 0 0 1 -.45759 -.115l-.006-.002a1.27527 1.27527 0 0 1 -.28795 -.20193 1.747 1.747 0 0 1 -.14123 -.16685s-1.632 2.215-2.033 2.745a1.61207 1.61207 0 0 0 .683 .30332 5.41919 5.41919 0 0 0 .98405 .10119H14.754a1.29685 1.29685 0 0 0 1.22643 -1.08146C15.988 14.768 15.987 4.883 15.987 4.883" fill="#c4aa10"/><path d="M14.05185 2a1.31371 1.31371 0 0 1 1.31787 1.24352v8.826a1.23048 1.23048 0 0 1 -1.23159 1.24107H5.312a1.318 1.318 0 0 1 -1.31785 -1.24655v-8.82A1.231 1.231 0 0 1 5.226 2" fill="#fdd810"/><path d="M4.48008 12.78632a1.24736 1.24736 0 0 1 -.30849 -.796L4.102 2.911a3.081 3.081 0 0 1 .3466 -.88275c-.508.753-1.646 2.178-1.833 2.464a3.27036 3.27036 0 0 0 -.56538 1.43458v8.694a1.08727 1.08727 0 0 0 .33778 .964l2.091-2.798" fill="#fce481"/><path d="M10.56047 12.8113a2.94291 2.94291 0 0 0 2.7973 -2.40741H7.763A2.943 2.943 0 0 0 10.56047 12.8113"/><path d="m13.561 9.06h.005m-.005 0a6.35577 6.35577 0 0 1 -.20349 1.1201c-.301 1.105-1.033 2.629-2.797 2.629s-2.497-1.524-2.797-2.629a6.35577 6.35577 0 0 1 -.20349 -1.1201h6m.005-1h-6.01a1.00005 1.00005 0 0 0 -.9978 1.06665 7.27738 7.27738 0 0 0 .23639 1.316c.582 2.139 1.953 3.366 3.762 3.366s3.18-1.227 3.762-3.366a7.57064 7.57064 0 0 0 .22876 -1.22635 1.00053 1.00053 0 0 0 -.98523 -1.15634m-.005 2"/><path d="m9.505 9.891h2.04a.81209 .81209 0 0 1 .81209 .81209v2.483a1.83193 1.83193 0 0 1 -1.83193 1.83193 1.83193 1.83193 0 0 1 -1.83193 -1.83193v-2.483a.81209 .81209 0 0 1 .81208 -.81207" fill="#ed3b3b"/><path d="M10.49609,14.93066a.25048.25048,0,0,1-.25-.25v-4.46a.25.25,0,0,1,.5,0v4.46A.25048.25048,0,0,1,10.49609,14.93066Z" fill="#b03441"/><g fill="#fff"><path d="M7.55961 8.97418A20.14286 20.14286 0 0 0 7.7631 11h4.753a.961 .961 0 0 0 .95187 -.85771c.075-.695.093-1.168.093-1.168"/><circle cx="13.289" cy="4.238" r="1.762"/></g><circle cx="13.289" cy="4.238" r=".621" transform="matrix(.5-.86603.86603.5 2.974 13.627)" fill="#231f20"/><path d="m3.748 3.02l-1.01 1.325a2.6363 2.6363 0 0 0 -.6636 1.35307c-.016.644-.016 4-.016 4v5.215s-.047 1.105 2.045 1.084l3.707-3.877.42-8.831-2.575 3.57-.716-.851-1.024 1.092" fill="#c4aa10"/><path d="M10.04779,6.9367V4.33338a.93616.93616,0,0,0-.82038-.94458.90993.90993,0,0,0-.99911.90548V6.87093a.90971.90971,0,0,0-.9807-.72568.93316.93316,0,0,0-.81784.91651.90921.90921,0,0,0-.99551-.838.95853.95853,0,0,0-.84628.94455L4.5893,2.90974a.90993.90993,0,0,0-.99911-.90547.93614.93614,0,0,0-.82038.94455V7.95976l-.15913.05647a2.77669,2.77669,0,0,0-1.60857,2.6051,4.32024,4.32024,0,0,0,4.42733,4.46928,4.60859,4.60859,0,0,0,4.621-4.52986V6.9367Z" fill="#fff"/><g fill="#c4aa10"><path d="M5.42969,15.59082a4.93161,4.93161,0,0,1-3.582-1.47461A4.78821,4.78821,0,0,1,.502,10.60547,3.23582,3.23582,0,0,1,2.26953,7.626V2.94922A1.44388,1.44388,0,0,1,3.542,1.50586a1.411,1.411,0,0,1,1.54688,1.4043l-.001,2.87793a1.38585,1.38585,0,0,1,.2998-.0625,1.40224,1.40224,0,0,1,1.002.292,1.374,1.374,0,0,1,.81152-.37012,1.47783,1.47783,0,0,1,.52734.04883V4.29395a1.40988,1.40988,0,0,1,.46191-1.043,1.40942,1.40942,0,0,1,2.35742,1.082V6.88184a.513.513,0,0,1,.00293.05469v3.624A5.08193,5.08193,0,0,1,5.42969,15.59082ZM3.67871,2.5a.28845.28845,0,0,0-.041.002.43607.43607,0,0,0-.36816.44727V7.96a.49835.49835,0,0,1-.332.4707l-.15918.05664A2.25145,2.25145,0,0,0,1.502,10.63672a3.7957,3.7957,0,0,0,1.06348,2.7832,3.94217,3.94217,0,0,0,2.86426,1.1709,4.13141,4.13141,0,0,0,4.12109-4.03027V6.99023a.48172.48172,0,0,1-.00293-.05371V4.333a.43976.43976,0,0,0-.36719-.44629.38326.38326,0,0,0-.31738.10449.402.402,0,0,0-.13477.30273V6.87109a.49988.49988,0,0,1-.99023.09766.4033.4033,0,0,0-.44238-.3252.43522.43522,0,0,0-.36621.43262.50051.50051,0,0,1-.48926.48535.5512.5512,0,0,1-.50977-.46289.40729.40729,0,0,0-.14551-.28418.39734.39734,0,0,0-.30273-.09277.45724.45724,0,0,0-.39453.44629h0a.49971.49971,0,0,1-.5.5h0a.49971.49971,0,0,1-.5-.5h0l.001-4.25781A.40885.40885,0,0,0,3.67871,2.5Z"/><path d="M4.58008 9.15234a.49971 .49971 0 0 1 -.5 -.5V6.865a.5 .5 0 0 1 1 0V8.652A.49971 .49971 0 0 1 4.58008 9.15234"/><path d="M6.42676 9.33789a.49971 .49971 0 0 1 -.5 -.5V7.05a.5 .5 0 0 1 1 0V8.838A.49971 .49971 0 0 1 6.42676 9.33789"/><path d="M8.22949,9.39941a.49971.49971,0,0,1-.5-.5v-2.085a.5.5,0,0,1,1,0v2.085A.49971.49971,0,0,1,8.22949,9.39941Z"/></g></svg>