<svg xmlns="http://www.w3.org/2000/svg" viewBox="0 0 18 18"><g fill="#f9db17" stroke-linejoin="round" stroke-linecap="round"><path d="M13.40291 8.10431A.95225 .95225 0 0 0 11.9936 8.035L13.187 6.842a.97963 .97963 0 0 0 .09192 -1.306 .9522 .9522 0 0 0 -1.4093 -.06927l1.405-1.405a.97954 .97954 0 0 0 .09192 -1.30591 .9522 .9522 0 0 0 -1.4093 -.06927L11.11 3.53a.95213 .95213 0 0 0 -.06934 -1.40924 .97954 .97954 0 0 0 -1.30591 .09186L5.999 5.951l-.056.056A.94839 .94839 0 0 0 5.6714 4.781a.97663 .97663 0 0 0 -1.25812 .12366L2 7.317a4.74017 4.74017 0 0 0 6.70361 6.70361l2.68-2.574L13.311 9.519A1.13367 1.13367 0 0 0 13.40291 8.10431" stroke="#f9db17"/><g stroke="#c9b220"><path d="m12.221 12.584l1.926-1.926a1.13366 1.13366 0 0 0 .09189 -1.415 .95218 .95218 0 0 0 -1.40928 -.06928l1.193-1.193a.97963 .97963 0 0 0 .09189 -1.306 .95218 .95218 0 0 0 -1.40929 -.06929l1.405-1.405a.97961 .97961 0 0 0 .09189 -1.30595 .95218 .95218 0 0 0 -1.40929 -.0693l-.844.844a.95218 .95218 0 0 0 -.06929 -1.40927 .97961 .97961 0 0 0 -1.30595 .09189l-3.739 3.739-.056.056a.94845 .94845 0 0 0 -.27211 -1.22623 .97663 .97663 0 0 0 -1.25813 .12367l-2.412 2.412a4.7402 4.7402 0 0 0 0 6.70365 4.7402 4.7402 0 0 0 6.70365 0"/><path d="m6.836 7.09l-2.216 2.263"/><path d="m12.453 4.161l-3.944 3.944"/><path d="m13.856 5.464l-3.944 3.944"/><path d="m13.378 8.661l-2.107 2.107"/></g></g><g fill="#59bfec"><path d="m6.783 3.052l1.452-.826-1.37-.773-.082 1.599"/><path d="m15.748 10.725l1.639.325-.533-1.483-1.106 1.158"/><path d="m15.387 4.879l-.287 1.645 1.468-.563-1.181-1.082"/></g></svg>