<svg xmlns="http://www.w3.org/2000/svg" viewBox="0 0 16 16"><path d="M3.37438 11.87649a1.21247 1.21247 0 0 1 -.29986 -.77377L3.01 2.277a2.99479 2.99479 0 0 1 .3369 -.85806c-.493.732-1.6 2.118-1.781 2.395A3.1789 3.1789 0 0 0 1.01309 5.208v8.45a1.05686 1.05686 0 0 0 .32833 .937L3.374 11.876" fill="#fce481"/><path d="M14.99993 3.916a2.68347 2.68347 0 0 0 -.36139 -1.373L14.23 1.715a2.01017 2.01017 0 0 1 .08512 .56243l.067 8.826a1.20689 1.20689 0 0 1 -.24041 .72606 2.78559 2.78559 0 0 1 -.399 .34728c-.014.008-.026.018-.04.025a1.14367 1.14367 0 0 1 -.55219 .1426H4.325c-.02 0-.038-.006-.058-.007a1.16739 1.16739 0 0 1 -.45759 -.115l-.006-.002a1.27527 1.27527 0 0 1 -.28795 -.20193 1.747 1.747 0 0 1 -.14123 -.16685S1.742 14.07 1.341 14.595a1.61207 1.61207 0 0 0 .683 .30332A5.41919 5.41919 0 0 0 3.00842 15H13.767a1.29685 1.29685 0 0 0 1.22643 -1.08146C15 13.802 15 3.916 15 3.916" fill="#c4aa10"/><path d="M13.06459 1.03341a1.31371 1.31371 0 0 1 1.31787 1.24352v8.826a1.23048 1.23048 0 0 1 -1.23159 1.24107H4.325a1.318 1.318 0 0 1 -1.31785 -1.24655v-8.82A1.231 1.231 0 0 1 4.23877 1.03341" fill="#fdd810"/><path fill="#c4aa10" d="m14.162 1.248l-.002.017"/><path d="m3.164.975l-.038.049c.012-.011.028-.017.04-.027" fill="#fce481"/><path d="M8.70827 11.42342A2.94291 2.94291 0 0 0 11.50557 9.016H5.911A2.943 2.943 0 0 0 8.70827 11.42342" fill="#020202"/><path d="M5.70742 7.99019A5.36953 5.36953 0 0 0 5.91091 9.016h5.595a5.37533 5.37533 0 0 0 .20349 -1.02582" fill="#fff"/><path d="m11.709 7.99h.005m-.005 0a5.37533 5.37533 0 0 1 -.20345 1.02582 2.94291 2.94291 0 0 1 -2.7973 2.40741 2.943 2.943 0 0 1 -2.79736 -2.40741 5.36953 5.36953 0 0 1 -.20349 -1.02582h6m.005-1h-6.01a1.00009 1.00009 0 0 0 -.9974 1.0726 6.31644 6.31644 0 0 0 .24231 1.2381 3.88418 3.88418 0 0 0 3.75592 3.12253 3.88412 3.88412 0 0 0 3.75586 -3.12256 6.59046 6.59046 0 0 0 .2337 -1.14508 1.0004 1.0004 0 0 0 -.98376 -1.16559m-.005 2"/><path d="m7.666 9.994h1.669a.66467 .66467 0 0 1 .66467 .66467v1.864a1.49938 1.49938 0 0 1 -1.49938 1.49938 1.49938 1.49938 0 0 1 -1.49938 -1.49938v-1.864a.66467 .66467 0 0 1 .66467 -.66467" fill="#ed3b3b"/><path d="M8.501,13.92441a.49971.49971,0,0,1-.5-.5v-2.834a.5.5,0,0,1,1,0v2.834A.49971.49971,0,0,1,8.501,13.92441Z" fill="#b03441"/><path d="M5 5.49375a.5 .5 0 0 1 -.22363 -.94727l1.105-.553L4.776 3.441a.50006 .50006 0 1 1 .44727 -.89453l2 1a.50011 .50011 0 0 1 0 .89453l-2 1A.49756 .49756 0 0 1 5 5.49375"/><path d="M13 5.49375a.49756 .49756 0 0 1 -.22363 -.05273l-2-1a.50011 .50011 0 0 1 0 -.89453l2-1a.50006 .50006 0 0 1 .44727 .89453l-1.105.553 1.105.553A.5 .5 0 0 1 13 5.49375"/></svg>