<svg xmlns="http://www.w3.org/2000/svg" viewBox="0 0 18 18"><path d="M4.37438 11.85677a1.21247 1.21247 0 0 1 -.29986 -.77377L4.01 2.257a2.99479 2.99479 0 0 1 .3369 -.85806c-.493.732-1.6 2.118-1.781 2.395a3.1789 3.1789 0 0 0 -.54956 1.39446v8.45a1.05686 1.05686 0 0 0 .32833 .937L4.374 11.856" fill="#ff7878"/><path d="M15.99993 3.89625a2.68347 2.68347 0 0 0 -.36139 -1.373L15.23 1.695a2.01017 2.01017 0 0 1 .08512 .56243L15.382 11.08a1.20689 1.20689 0 0 1 -.24041 .72606 2.78559 2.78559 0 0 1 -.399 .34728c-.014.008-.026.018-.04.025a1.14367 1.14367 0 0 1 -.55219 .1426H5.325c-.02 0-.038-.006-.058-.007a1.16739 1.16739 0 0 1 -.45759 -.115l-.006-.002a1.27527 1.27527 0 0 1 -.28795 -.20193A1.747 1.747 0 0 1 4.3745 11.831s-1.632 2.215-2.033 2.745a1.61207 1.61207 0 0 0 .683 .30332 5.41919 5.41919 0 0 0 .98405 .10119H14.767a1.29685 1.29685 0 0 0 1.22643 -1.08146C16 13.782 16 3.896 16 3.896" fill="#c52f30"/><path d="M14.06459 1.01368A1.31371 1.31371 0 0 1 15.38246 2.2572v8.826a1.23048 1.23048 0 0 1 -1.23159 1.24107H5.325a1.318 1.318 0 0 1 -1.31785 -1.24655v-8.82A1.231 1.231 0 0 1 5.23877 1.01368" fill="#ed3b3b"/><path fill="#c52f30" d="m15.926 2.321l-.002.017"/><circle cx="12.87" cy="5.183" r=".608"/><path d="M6.90808,4.32739a2.61215,2.61215,0,0,1-1.00854-.54462,1.71506,1.71506,0,1,0,2.26263.58246A2.62233,2.62233,0,0,1,6.90808,4.32739Z" fill="#fff"/><circle cx="6.716" cy="5.391" r=".689"/><circle cx="13.276" cy="5.256" r="1.724" fill="#fff"/><path d="M12,10.48028a.49971.49971,0,0,1-.5-.5,1.5,1.5,0,0,0-3,0,.5.5,0,1,1-1,0,2.5,2.5,0,1,1,5,0A.49971.49971,0,0,1,12,10.48028Z"/><path d="M7.72949,4.7293a3.17335,3.17335,0,0,1-.85059-.11719,3.1385,3.1385,0,0,1-1.93652-1.54.4999.4999,0,0,1,.87891-.47656,2.16788,2.16788,0,0,0,2.6748.99121.5004.5004,0,0,1,.35547.93555A3.157,3.157,0,0,1,7.72949,4.7293Z"/><path d="M15.03027,3.18438a.49786.49786,0,0,1-.33594-.12988,2.168,2.168,0,0,0-2.85156-.05566.5004.5004,0,1,1-.64453-.76562,3.16878,3.16878,0,0,1,4.168.08105.5.5,0,0,1-.33594.87012Z"/><circle cx="13.276" cy="5.256" r=".689" transform="matrix(.5724-.81997.81997.5724 1.367 13.13)"/><path d="m2.376 11.392l-1.452-1.452a1.03253 1.03253 0 0 1 -.05933 -1.38509 1.01923 1.01923 0 0 1 1.49964 -.115l.872.872a1.01922 1.01922 0 0 1 .115 -1.49962 1.03253 1.03253 0 0 1 1.38509 .05932l2.505 2.505.058.058a1.03833 1.03833 0 0 1 .32514 -1.31106 1.02533 1.02533 0 0 1 1.33335 .0945l.527.527c1.913 1.913 2.785 4.142.763 6.164l-.449.449c-3.048 3.048-6.971-1.455-6.971-1.455l-1.991-1.991a1.19733 1.19733 0 0 1 -.05612 -1.501 1.01923 1.01923 0 0 1 1.49963 -.115l2.53 2.53" fill="#fff"/><path d="m7.398 17.917c-.046 0-.091-.001-.137-.002-2.521-.087-4.719-2.577-4.811-2.684l-1.967-1.965a1.70573 1.70573 0 0 1 -.08691 -2.1748 1.62243 1.62243 0 0 1 .54785 -.42383l-.374-.374a1.53739 1.53739 0 0 1 -.08987 -2.05862 1.57582 1.57582 0 0 1 1.13574 -.57031 1.47631 1.47631 0 0 1 .98633 .31934 1.59787 1.59787 0 0 1 .42773 -.55566 1.5395 1.5395 0 0 1 2.05859 .08984l1.764 1.763a1.58651 1.58651 0 0 1 .47266 -.55762 1.529 1.529 0 0 1 1.98633 .14155l.526.526c2.461 2.462 2.731 4.902.763 6.871l-.449.449a3.80593 3.80593 0 0 1 -2.75391 1.20512m-5.796-6.396h-.023a.58416 .58416 0 0 0 -.41406 .21191 .71956 .71956 0 0 0 .07227 .87988l1.944 1.938c.043.048 2.032 2.296 4.117 2.365a2.77647 2.77647 0 0 0 2.14648 -.91016l.449-.449c1.557-1.557 1.3-3.393-.763-5.457l-.527-.526a.52458 .52458 0 0 0 -.67969 -.04785 .5353 .5353 0 0 0 -.18262 .67676 .50007 .50007 0 0 1 -.7959 .58691l-2.563-2.563a.53106 .53106 0 0 0 -.71094 -.0293 .57473 .57473 0 0 0 -.21187 .41212 .46052 .46052 0 0 0 .12988 .35059 .49995 .49995 0 0 1 -.707 .707l-.872-.872a.44065 .44065 0 0 0 -.34863 -.12988 .575 .575 0 0 0 -.41309 .21191 .53115 .53115 0 0 0 .0293 .71094l1.451 1.451.004.004 2.431 2.432a.49995 .49995 0 0 1 -.707 .707l-2.53-2.531a.45444 .45444 0 0 0 -.32422 -.12891" fill="#c52f30"/><path fill="#fff" d="m6.294 12.364l-3.581-3.581"/><path d="M6.29395 12.86309a.49838 .49838 0 0 1 -.35352 -.14648L2.36 9.137a.49995 .49995 0 0 1 .707 -.707l3.58 3.58a.5 .5 0 0 1 -.35352 .85352" fill="#c52f30"/><path fill="#fff" d="m7.3 10.435l1.188 1.188"/><path d="M8.48828 12.12285a.49838 .49838 0 0 1 -.35352 -.14648L6.946 10.788a.49995 .49995 0 0 1 .707 -.707L8.842 11.269a.5 .5 0 0 1 -.35352 .85352" fill="#c52f30"/></svg>