<svg xmlns="http://www.w3.org/2000/svg" viewBox="0 0 16 16"><g fill="#f9db17" stroke="#c9b220" stroke-linejoin="round" stroke-linecap="round"><path d="M5.6949 11.47474A1.12466 1.12466 0 0 1 6.35 10.54486l-.25-.068a1.02163 1.02163 0 0 1 -.815 -1.10135 1.19833 1.19833 0 0 1 .92013 -.983A1.16755 1.16755 0 0 1 5.05247 7.35313a1.009 1.009 0 0 1 1.009 -1.009H1.678a1.009 1.009 0 1 1 0 -2.01794H7.102c.752-.937 2.298-.812 3.21-.845 2.538-.092 5.02 1.244 5.02 4.183a4.897 4.897 0 0 1 -5.08716 4.85847H6.743A1.04846 1.04846 0 0 1 5.6949 11.47474"/><path d="m6.06 6.344h1.317"/><path d="m6.205 8.392h1.444"/><path d="m6.35 10.545h1.65"/></g></svg>