<svg xmlns="http://www.w3.org/2000/svg" viewBox="0 0 16 16"><path d="M3.36164 11.84308a1.21247 1.21247 0 0 1 -.29986 -.77377L2.994 2.244a2.99479 2.99479 0 0 1 .3369 -.85806C2.838 2.117 1.732 3.503 1.55 3.78a3.1789 3.1789 0 0 0 -.54956 1.39446V13.625a1.05686 1.05686 0 0 0 .32833 .937l2.033-2.719" fill="#fce481"/><path d="M14.9872 3.88256a2.68347 2.68347 0 0 0 -.36139 -1.373l-.409-.828a2.01017 2.01017 0 0 1 .08512 .56243l.067 8.826a1.20689 1.20689 0 0 1 -.24041 .72606 2.78559 2.78559 0 0 1 -.399 .34728c-.014.008-.026.018-.04.025a1.14367 1.14367 0 0 1 -.55219 .1426H4.312c-.02 0-.038-.006-.058-.007a1.16739 1.16739 0 0 1 -.45759 -.115l-.006-.002a1.27527 1.27527 0 0 1 -.28795 -.20193 1.747 1.747 0 0 1 -.14123 -.16685s-1.632 2.215-2.033 2.745a1.61207 1.61207 0 0 0 .683 .30332 5.41919 5.41919 0 0 0 .98405 .10119H13.754a1.29685 1.29685 0 0 0 1.22643 -1.08146C14.988 13.768 14.987 3.883 14.987 3.883" fill="#c4aa10"/><path d="M13.05185 1a1.31371 1.31371 0 0 1 1.31787 1.24352v8.826a1.23048 1.23048 0 0 1 -1.23159 1.24107H4.312a1.318 1.318 0 0 1 -1.31785 -1.24655v-8.82A1.231 1.231 0 0 1 4.226 1" fill="#fdd810"/><path fill="#e098b9" d="m14.357 1.064l-.002.017"/><path d="m3.359.791l-.038.049c.012-.011.028-.017.04-.027" fill="#fce481"/><g fill="#5dc0ee"><path d="M13.88216,7.30128a.96367.96367,0,0,0,1.45568,0,.96367.96367,0,0,0,0-1.45568,13.65812,13.65812,0,0,0-2.232-.77636A13.65812,13.65812,0,0,0,13.88216,7.30128Z"/><path d="M2.14756,5.8456a.96367.96367,0,0,0,0,1.45568.96367.96367,0,0,0,1.45568,0,13.65812,13.65812,0,0,0,.77636-2.232A13.65812,13.65812,0,0,0,2.14756,5.8456Z"/></g><path d="M5,6.5a.5.5,0,0,1-.27734-.916L7.09863,4l-2.376-1.584a.5.5,0,1,1,.55469-.832l3,2a.5.5,0,0,1,0,.832l-3,2A.49893.49893,0,0,1,5,6.5Z"/><path d="M13,6.5a.49893.49893,0,0,1-.27734-.084l-3-2a.5.5,0,0,1,0-.832l3-2a.5.5,0,0,1,.55469.832L10.90137,4l2.376,1.584A.5.5,0,0,1,13,6.5Z"/><path d="m12.401 7.4c-.988 0-1.944 1.236-3.403 1.236s-2.415-1.236-3.403-1.236c-.49 0-.698.787-.548 1.2a3.37784 3.37784 0 0 0 1.33448 1.487 5.0621 5.0621 0 0 0 2.61601 .9128 5.12991 5.12991 0 0 0 2.61207 -.90466 3.25279 3.25279 0 0 0 1.33842 -1.49519c.14-.416-.058-1.2-.548-1.2" fill="#fff"/><path d="M8.998,11.5a5.50092,5.50092,0,0,1-2.89453-.998A3.89067,3.89067,0,0,1,4.57813,8.77148a1.66378,1.66378,0,0,1,.20313-1.4209.98449.98449,0,0,1,.81445-.4502,3.3203,3.3203,0,0,1,1.61621.59473,3.63137,3.63137,0,0,0,1.78613.6416,3.63137,3.63137,0,0,0,1.78613-.6416,3.32716,3.32716,0,0,1,1.61719-.59473.976.976,0,0,1,.80078.43262,1.70026,1.70026,0,0,1,.2207,1.42676,3.77354,3.77354,0,0,1-1.53613,1.75293A5.55676,5.55676,0,0,1,8.998,11.5ZM5.5957,7.90039a.78265.78265,0,0,0-.07812.5293A2.92913,2.92913,0,0,0,6.66211,9.67188,4.54406,4.54406,0,0,0,8.998,10.5,4.677,4.677,0,0,0,11.334,9.67969a2.81029,2.81029,0,0,0,1.1416-1.23926.71222.71222,0,0,0-.09668-.54,2.76409,2.76409,0,0,0-1.09668.46191A4.54122,4.54122,0,0,1,8.998,9.13672a4.54086,4.54086,0,0,1-2.2832-.77441A2.65565,2.65565,0,0,0,5.5957,7.90039Z" fill="#020202"/></svg>