<svg xmlns="http://www.w3.org/2000/svg" viewBox="0 0 16 16"><defs><style>.emoji-yes{fill:#00b300;}</style></defs><path class="emoji-yes" d="M2.87,11.83V8.55L0,3.7H1.4L3.45,7.22h.1L5.6,3.7H7L4.13,8.55v3.28Z"/><path class="emoji-yes" d="M10.62,10.18A2.48,2.48,0,0,1,8,12c-1.76,0-2.84-1.2-2.84-3.17S6.22,5.57,8,5.57s2.74,1.17,2.74,3.1v.42H6.36v.07A1.63,1.63,0,0,0,8,10.92a1.48,1.48,0,0,0,1.46-.74Zm-4.26-2h3.1A1.48,1.48,0,0,0,8,6.61,1.57,1.57,0,0,0,6.36,8.2Z"/><path class="emoji-yes" d="M13.48,5.57c1.38,0,2.28.65,2.4,1.73H14.72c-.12-.45-.56-.74-1.24-.74s-1.19.32-1.19.8.31.6,1,.75l1,.24C15.45,8.62,16,9.12,16,10,16,11.18,14.92,12,13.45,12S11,11.29,10.93,10.2h1.21a1.25,1.25,0,0,0,1.34.77c.76,0,1.29-.34,1.29-.83s-.29-.6-.9-.75L12.8,9.14c-1.17-.27-1.71-.8-1.71-1.71C11.09,6.34,12.09,5.57,13.48,5.57Z"/></svg>
