<svg xmlns="http://www.w3.org/2000/svg" viewBox="0 0 16 16"><path d="M3.37447 11.84845a1.21247 1.21247 0 0 1 -.29986 -.77377L3.01 2.249a2.99479 2.99479 0 0 1 .3369 -.85806c-.493.732-1.6 2.118-1.781 2.395a3.1789 3.1789 0 0 0 -.54956 1.39446V13.63a1.05686 1.05686 0 0 0 .32833 .937L3.374 11.848" fill="#fce481"/><path d="M15 3.88793a2.68347 2.68347 0 0 0 -.36139 -1.373l-.409-.828a2.01017 2.01017 0 0 1 .08512 .56243l.067 8.826a1.20689 1.20689 0 0 1 -.24041 .72606 2.78559 2.78559 0 0 1 -.399 .34728c-.014.008-.026.018-.04.025a1.14367 1.14367 0 0 1 -.55219 .1426H4.325c-.02 0-.038-.006-.058-.007a1.16739 1.16739 0 0 1 -.45759 -.115l-.006-.002a1.27527 1.27527 0 0 1 -.28795 -.20193 1.747 1.747 0 0 1 -.14123 -.16685s-1.632 2.215-2.033 2.745a1.61207 1.61207 0 0 0 .683 .30332 5.41919 5.41919 0 0 0 .98405 .10119H13.767a1.29685 1.29685 0 0 0 1.22643 -1.08146C15 13.774 15 3.888 15 3.888" fill="#c4aa10"/><path d="M13.06468 1.00537a1.31371 1.31371 0 0 1 1.31787 1.24352v8.826a1.23048 1.23048 0 0 1 -1.23159 1.24107H4.325a1.318 1.318 0 0 1 -1.31785 -1.24655v-8.82A1.231 1.231 0 0 1 4.23887 1.00537" fill="#fdd810"/><circle cx="4.651" cy="7.979" r="1.495" fill="#ed3b3b"/><path d="M6.00009,6.50537a1.50164,1.50164,0,0,1-1.5-1.5.5.5,0,1,1,1,0,.5.5,0,0,0,1,0,.5.5,0,1,1,1,0A1.50164,1.50164,0,0,1,6.00009,6.50537Z"/><path d="M4.00107,3.50342a.49951.49951,0,0,1-.35449-.85156A4.86765,4.86765,0,0,1,7.00009,1.50537a.5.5,0,0,1,0,1,3.89929,3.89929,0,0,0-2.64941.85645A.50444.50444,0,0,1,4.00107,3.50342Z"/><circle cx="12.662" cy="7.979" r="1.495" fill="#ed3b3b"/><path d="M11.31357,6.50537a1.50164,1.50164,0,0,1-1.5-1.5.5.5,0,1,1,1,0,.5.5,0,1,0,1,0,.5.5,0,0,1,1,0A1.50164,1.50164,0,0,1,11.31357,6.50537Z"/><path d="M13.31357,3.50537a.49685.49685,0,0,1-.35059-.14355h0a3.89929,3.89929,0,0,0-2.64941-.85645.5.5,0,0,1,0-1,4.86765,4.86765,0,0,1,3.35352,1.14648.5.5,0,0,1-.35352.85352Z"/><path d="M8.69247,11.50342A2.44064,2.44064,0,0,1,6.255,9.06592a.5.5,0,0,1,1,0,1.4375,1.4375,0,0,0,2.875,0,.5.5,0,0,1,1,0A2.44064,2.44064,0,0,1,8.69247,11.50342Z"/></svg>