<svg xmlns="http://www.w3.org/2000/svg" viewBox="0 0 16 16"><path d="M3.37438 11.84308a1.21247 1.21247 0 0 1 -.29986 -.77377L3.01 2.244a2.99479 2.99479 0 0 1 .3369 -.85806C2.851 2.117 1.744 3.503 1.563 3.78a3.1789 3.1789 0 0 0 -.54956 1.39446V13.625a1.05686 1.05686 0 0 0 .32833 .937L3.374 11.843" fill="#f9c5e0"/><path d="M14.99993 3.88256a2.68347 2.68347 0 0 0 -.36139 -1.373L14.23 1.681a2.01017 2.01017 0 0 1 .08512 .56243l.067 8.826a1.20689 1.20689 0 0 1 -.24041 .72606 2.78559 2.78559 0 0 1 -.399 .34728c-.014.008-.026.018-.04.025a1.14367 1.14367 0 0 1 -.55219 .1426H4.325c-.02 0-.038-.006-.058-.007a1.16739 1.16739 0 0 1 -.45759 -.115l-.006-.002a1.27527 1.27527 0 0 1 -.28795 -.20193 1.747 1.747 0 0 1 -.14123 -.16685s-1.632 2.215-2.033 2.745a1.61207 1.61207 0 0 0 .683 .30332 5.41919 5.41919 0 0 0 .98405 .10119H13.767a1.29685 1.29685 0 0 0 1.22643 -1.08146C15 13.768 15 3.883 15 3.883" fill="#e098b9"/><path d="M13.06459 1a1.31371 1.31371 0 0 1 1.31787 1.24352v8.826a1.23048 1.23048 0 0 1 -1.23159 1.24107H4.325a1.318 1.318 0 0 1 -1.31785 -1.24655v-8.82A1.231 1.231 0 0 1 4.23877 1" fill="#f4a6c9"/><path d="m4.519.685l-.037.048c.012-.01.027-.017.039-.027" fill="#fce481"/><path d="M8.53024 9.81124A2.12455 2.12455 0 0 0 7.18358 8.21142c-1.255-.476-2.268.576-2.773 1.82a1.91967 1.91967 0 0 0 -.10868 .41375 1.91978 1.91978 0 0 0 -.10881 -.41375c-.505-1.244-1.518-2.296-2.773-1.82A2.12455 2.12455 0 0 0 .07268 9.81124a3.294 3.294 0 0 0 .91089 3.06651c.504.512 1.05.983 1.584 1.465.575.519 1.157 1.03 1.733 1.542H4.302c.576-.512 1.158-1.023 1.733-1.542.534-.482 1.081-.952 1.584-1.465A3.294 3.294 0 0 0 8.53024 9.81124" fill="#ed3b3b"/><g fill="#020202"><path d="M4.48145,3.21289A.49976.49976,0,0,1,4.042,2.47363,3.3126,3.3126,0,0,1,6.084.85059a.49969.49969,0,1,1,.26758.96289A2.32289,2.32289,0,0,0,4.9209,2.95215.50125.50125,0,0,1,4.48145,3.21289Z"/><path d="M13.81738,3.21289a.50025.50025,0,0,1-.43945-.26172,2.31948,2.31948,0,0,0-1.43066-1.1377.49969.49969,0,0,1,.26758-.96289,3.30375,3.30375,0,0,1,2.042,1.624.50007.50007,0,0,1-.43945.73828Z"/></g><path d="M9.41895 10.20313a.5 .5 0 0 1 -.35352 -.85352l.874-.874-1.224-.175a.50059 .50059 0 0 1 -.4248 -.56543 .50879 .50879 0 0 1 .56543 -.4248l2.214.316a.4998 .4998 0 0 1 .2832 .84863L9.772 10.06A.49838 .49838 0 0 1 9.41895 10.20313"/><path d="M6,5.5A1.50164,1.50164,0,0,1,4.5,4a.5.5,0,0,1,1,0,.5.5,0,0,0,1,0,.5.5,0,0,1,1,0A1.50164,1.50164,0,0,1,6,5.5Z"/><path d="M12,5.5A1.50164,1.50164,0,0,1,10.5,4a.5.5,0,0,1,1,0,.5.5,0,0,0,1,0,.5.5,0,0,1,1,0A1.50164,1.50164,0,0,1,12,5.5Z"/></svg>