<svg xmlns="http://www.w3.org/2000/svg" viewBox="0 0 16 16"><path d="M15.29859 4.47876A3.67728 3.67728 0 0 0 12.96771 1.7097C10.795.885 9.04 2.707 8.167 4.86a3.32268 3.32268 0 0 0 -.18811 .71615 3.32286 3.32286 0 0 0 -.18834 -.71615C6.916 2.707 5.163.885 2.991 1.71A3.67728 3.67728 0 0 0 .65978 4.47876 5.70138 5.70138 0 0 0 2.23639 9.78644c.872.887 1.818 1.701 2.742 2.535.995.899 2 1.783 3 2.669h.002c.998-.886 2-1.771 3-2.669.924-.834 1.87-1.649 2.742-2.535A5.70138 5.70138 0 0 0 15.29859 4.47876" fill="#ed3b3b"/></svg>