<svg xmlns="http://www.w3.org/2000/svg" viewBox="0 0 16 16"><path d="M3.36164 11.84308a1.21247 1.21247 0 0 1 -.29986 -.77377L2.994 2.244a2.99479 2.99479 0 0 1 .3369 -.85806C2.838 2.117 1.732 3.503 1.55 3.78a3.1789 3.1789 0 0 0 -.54956 1.39446V13.625a1.05686 1.05686 0 0 0 .32833 .937l2.033-2.719" fill="#cdf7a1"/><path d="M14.9872 3.88256a2.68347 2.68347 0 0 0 -.36139 -1.373l-.409-.828a2.01017 2.01017 0 0 1 .08512 .56243l.067 8.826a1.20689 1.20689 0 0 1 -.24041 .72606 2.78559 2.78559 0 0 1 -.399 .34728c-.014.008-.026.018-.04.025a1.14367 1.14367 0 0 1 -.55219 .1426H4.312c-.02 0-.038-.006-.058-.007a1.16739 1.16739 0 0 1 -.45759 -.115l-.006-.002a1.27527 1.27527 0 0 1 -.28795 -.20193 1.747 1.747 0 0 1 -.14123 -.16685s-1.632 2.215-2.033 2.745a1.61207 1.61207 0 0 0 .683 .30332 5.41919 5.41919 0 0 0 .98405 .10119H13.754a1.29685 1.29685 0 0 0 1.22643 -1.08146C14.988 13.768 14.987 3.883 14.987 3.883" fill="#59813c"/><path d="M13.05185 1a1.31371 1.31371 0 0 1 1.31787 1.24352v8.826a1.23048 1.23048 0 0 1 -1.23159 1.24107H4.312a1.318 1.318 0 0 1 -1.31785 -1.24655v-8.82A1.231 1.231 0 0 1 4.226 1" fill="#9ae84f"/><path fill="#59813c" d="m14.391.43l-.002.017"/><circle cx="12.5" cy="4.5" r="1.5" fill="#fff"/><path d="M14.97656,3.957a.5.5,0,0,1-.4668-.32031,3.909,3.909,0,0,0-2.0625-1.86914.50044.50044,0,1,1,.41211-.91211,4.87507,4.87507,0,0,1,2.585,2.4248.49987.49987,0,0,1-.291.64453A.50885.50885,0,0,1,14.97656,3.957Z"/><circle cx="12.5" cy="4.5" r=".5" transform="matrix(.95791-.28708.28708.95791-.766 3.778)"/><path d="m6.41 7.854h6.71s-.264 3.266-3.355 3.266-3.355-3.266-3.355-3.266"/><path d="M9.76465,11.62012A3.8835,3.8835,0,0,1,5.91211,7.89355a.50018.50018,0,0,1,.498-.54h6.71a.50018.50018,0,0,1,.498.54A3.88374,3.88374,0,0,1,9.76465,11.62012ZM7.00977,8.35352a2.80807,2.80807,0,0,0,5.51074,0Z"/><path d="M7.79519 10.21919a3.1421 3.1421 0 0 0 1.96973 .61981 3.2402 3.2402 0 0 0 1.7132 -.44556c-.248-.801-.959-1.807-1.841-1.807C8.818 8.586 8.09 9.507 7.795 10.219" fill="#ed3b3b"/><g fill="#fff"><path d="m6.871 8.01h5.788v.361a.79113 .79113 0 0 1 -.79113 .79113h-4.206a.79113 .79113 0 0 1 -.79113 -.79113"/><path d="m5.47 8.65s4.376 0 4.376 6.565h-8.753c0-6.565 4.376-6.565 4.376-6.565"/><path d="m5.47 8.341s-4.376 0-4.376-6.565h8.753c0 6.565-4.376 6.565-4.376 6.565"/></g><path d="m5.5 11c2.362 0 3.01 3.162 3.152 4.689l-6.304.145c.047-1.039.579-4.834 3.152-4.834" fill="#69c6f4"/><path d="M9.84668 15.61523a.49971 .49971 0 0 1 -.5 -.5c0-5.975-3.743-6.265-3.902-6.274C.648 7.651.594 1.836.594 1.777a.50013 .50013 0 0 1 .499 -.5 .50076 .50076 0 0 1 .501 .499c.001.208.058 5.095 3.998 6.08-.054-.004 4.755.28 4.755 7.259A.49971 .49971 0 0 1 9.84668 15.61523"/><path d="M1.09375 15.61523a.49971 .49971 0 0 1 -.5 -.5c0-6.961 4.805-7.271 4.854-7.272 3.854-.975 3.899-6.01 3.899-6.07a.5 .5 0 0 1 1 0c0 .059-.055 5.874-4.755 7.05-.254.023-3.998.313-3.998 6.288A.49971 .49971 0 0 1 1.09375 15.61523"/><rect y="1" width="11" height="1" rx=".479"/><rect y="15" width="10.941" height="1" rx=".477"/></svg>