<svg xmlns="http://www.w3.org/2000/svg" viewBox="0 0 18 18"><path d="M4.36164 12.84308a1.21247 1.21247 0 0 1 -.29986 -.77377L3.994 3.244a2.99479 2.99479 0 0 1 .3369 -.85806C3.838 3.117 2.732 4.503 2.55 4.78a3.1789 3.1789 0 0 0 -.54956 1.39446V14.625a1.05686 1.05686 0 0 0 .32833 .937l2.033-2.719" fill="#cdf7a1"/><path d="M15.9872 4.88256a2.68347 2.68347 0 0 0 -.36139 -1.373l-.409-.828a2.01017 2.01017 0 0 1 .08512 .56243l.067 8.826a1.20689 1.20689 0 0 1 -.24041 .72606 2.78559 2.78559 0 0 1 -.399 .34728c-.014.008-.026.018-.04.025a1.14367 1.14367 0 0 1 -.55219 .1426H5.312c-.02 0-.038-.006-.058-.007a1.16739 1.16739 0 0 1 -.45759 -.115l-.006-.002a1.27527 1.27527 0 0 1 -.28795 -.20193 1.747 1.747 0 0 1 -.14123 -.16685s-1.632 2.215-2.033 2.745a1.61207 1.61207 0 0 0 .683 .30332 5.41919 5.41919 0 0 0 .98405 .10119H14.754a1.29685 1.29685 0 0 0 1.22643 -1.08146C15.988 14.768 15.987 4.883 15.987 4.883" fill="#59813c"/><path d="M14.05185 2a1.31371 1.31371 0 0 1 1.31787 1.24352v8.826a1.23048 1.23048 0 0 1 -1.23159 1.24107H5.312a1.318 1.318 0 0 1 -1.31785 -1.24655v-8.82A1.231 1.231 0 0 1 5.226 2" fill="#9ae84f"/><path fill="#59813c" d="m14.357 3.064l-.002.017"/><path d="m3.359 2.791l-.038.049c.012-.011.028-.017.04-.027" fill="#fce481"/><g fill="#fff"><path d="m12.4 8.584l.019.004c-.008-.005-.018-.007-.026-.012"/><path d="m7.392 3.89c-.436-.057-1.76-.091-1.981-.086-1.392.029-1.979.571-2.11 1.943a2.49688 2.49688 0 0 0 3.03882 2.78652 3.618 3.618 0 0 0 2.55718 -2.75664c.129-1.194-.289-1.726-1.505-1.886"/><path d="m12.375 3.89c.436-.057 1.76-.091 1.981-.086 1.392.029 1.979.571 2.11 1.943a2.49688 2.49688 0 0 1 -3.03882 2.78652 3.618 3.618 0 0 1 -2.55718 -2.75664c-.129-1.194.289-1.726 1.505-1.886"/></g><path d="M17.27626 3.88135a13.59533 13.59533 0 0 0 -6.50274 -.06718 3.61666 3.61666 0 0 1 -.89 .08873 3.61666 3.61666 0 0 1 -.89 -.08873 13.59533 13.59533 0 0 0 -6.50274 .06718 .54731 .54731 0 0 0 -.34357 .90674 3.11737 3.11737 0 0 1 .73113 1.74875A2.91148 2.91148 0 0 0 6.4218 8.93424a3.82178 3.82178 0 0 0 2.7501 -2.42772 7.73942 7.73942 0 0 0 .3206 -.74733c.216-.635.627-.541.782 0a5.30313 5.30313 0 0 0 .32059 .74733 3.82178 3.82178 0 0 0 2.7501 2.42772 2.91148 2.91148 0 0 0 3.54351 -2.39739 3.11737 3.11737 0 0 1 .73113 -1.74875A.54731 .54731 0 0 0 17.27626 3.88135M8.89738 5.77569A3.618 3.618 0 0 1 6.3402 8.53233 2.49688 2.49688 0 0 1 3.30138 5.74581c.131-1.372.718-1.913 2.11-1.943.221-.005 1.545.029 1.981.086C8.608 4.049 9.03 4.581 8.897 5.776m4.5294 2.75664a3.618 3.618 0 0 1 -2.55718 -2.75664c-.129-1.194.289-1.726 1.505-1.886.436-.057 1.76-.091 1.981-.086 1.392.029 1.979.571 2.11 1.943A2.49688 2.49688 0 0 1 13.42678 8.53233"/><path d="M14.001 9.25a3.62416 3.62416 0 0 1 -.7041 -.07031 4.02 4.02 0 0 1 -2.92871 -2.56836l-.083-.174a3.928 3.928 0 0 1 -.251 -.60937c-.055-.192-.132-.255-.149-.261a.53125 .53125 0 0 0 -.15625 .27148 6.55212 6.55212 0 0 1 -.28711 .68164l-.043.092A4.02094 4.02094 0 0 1 6.4707 9.17969a3.26589 3.26589 0 0 1 -2.47852 -.45605A3.285 3.285 0 0 1 2.63281 6.584a2.91951 2.91951 0 0 0 -.66309 -1.62012 .73525 .73525 0 0 1 -.1875 -.7373 .8637 .8637 0 0 1 .65625 -.58887l.109-.024a13.79921 13.79921 0 0 1 6.50488 -.042 3.453 3.453 0 0 0 .8291 .082H9.917a3.327 3.327 0 0 0 .79688 -.082 13.79847 13.79847 0 0 1 6.50488 .042l.11.024a.86522 .86522 0 0 1 .65625 .58887 .73683 .73683 0 0 1 -.1875 .7373A2.9211 2.9211 0 0 0 17.13379 6.584a3.28172 3.28172 0 0 1 -1.3584 2.13867A3.1495 3.1495 0 0 1 14.001 9.25M5.465 4.054H5.417c-1.261.025-1.749.475-1.866 1.716a2.35368 2.35368 0 0 0 .709 1.99219 2.32927 2.32927 0 0 0 2.03418 .52441A3.37084 3.37084 0 0 0 8.64844 5.748c.115-1.062-.21-1.469-1.288-1.61C6.963 4.085 5.773 4.054 5.465 4.054m8.837 0c-.31 0-1.498.031-1.894.084-1.08.142-1.405.549-1.29 1.611a3.37256 3.37256 0 0 0 2.35449 2.53711 2.24748 2.24748 0 0 0 2.74414 -2.5166c-.118-1.241-.606-1.69-1.866-1.716M9.89 5.067h.011c.275.007.505.24.614.623a2.63849 2.63849 0 0 0 .15332 .3877 2.502 2.502 0 0 1 -.04785 -.27539 1.68438 1.68438 0 0 1 .70605 -1.85645c-.162.033-.327.07-.493.111a3.72167 3.72167 0 0 1 -.95117 .0957 4.62 4.62 0 0 1 -.94727 -.0957q-.25-.062-.493-.111a1.68525 1.68525 0 0 1 .70508 1.85547v.001a2.41105 2.41105 0 0 1 -.04395 .25781 4.08951 4.08951 0 0 0 .15234 -.38184C9.441 5.132 9.753 5.067 9.89 5.067M4.086 3.834c-.588.084-1.072.189-1.431.268L2.544 4.126a.374 .374 0 0 0 -.2832 .24316 .23449 .23449 0 0 0 .06445 .24316 2.81994 2.81994 0 0 1 .71289 1.45508 3.40359 3.40359 0 0 1 .01465 -.34473A2.13377 2.13377 0 0 1 4.08594 3.834m11.59473 0a2.13516 2.13516 0 0 1 1.03418 1.88867 3.33921 3.33921 0 0 1 .01465 .34082 2.81968 2.81968 0 0 1 .71289 -1.45117 .23371 .23371 0 0 0 .06348 -.24316 .37259 .37259 0 0 0 -.28223 -.24316l-.112-.024C16.753 4.02 16.269 3.918 15.681 3.834"/><g fill="#020202"><circle cx="6" cy="6" r="1" transform="matrix(.65592-.75483.75483.65592-2.464 6.596)"/><circle cx="14" cy="5.999" r=".999" transform="matrix(.95186-.30652.30652.95186-1.165 4.58)"/></g><rect x="6.938" y="9.619" width="4" height="1" rx=".5" transform="matrix(.70711-.70711.70711.70711-4.537 9.284)"/><rect x="9.06" y="9.619" width="4" height="1" rx=".5" transform="matrix(.70711.70711-.70711.70711 10.394-4.856)"/></svg>