<svg xmlns="http://www.w3.org/2000/svg" viewBox="0 0 16 16"><path d="M3.36164 11.84308a1.21247 1.21247 0 0 1 -.29986 -.77377L2.994 2.244a2.99479 2.99479 0 0 1 .3369 -.85806C2.838 2.117 1.732 3.503 1.55 3.78a3.1789 3.1789 0 0 0 -.54956 1.39446V13.625a1.05686 1.05686 0 0 0 .32833 .937l2.033-2.719" fill="#a5e2f9"/><path d="M14.9872 3.88256a2.68347 2.68347 0 0 0 -.36139 -1.373l-.409-.828a2.01017 2.01017 0 0 1 .08512 .56243l.067 8.826a1.20689 1.20689 0 0 1 -.24041 .72606 2.78559 2.78559 0 0 1 -.399 .34728c-.014.008-.026.018-.04.025a1.14367 1.14367 0 0 1 -.55219 .1426H4.312c-.02 0-.038-.006-.058-.007a1.16739 1.16739 0 0 1 -.45759 -.115l-.006-.002a1.27527 1.27527 0 0 1 -.28795 -.20193 1.747 1.747 0 0 1 -.14123 -.16685s-1.632 2.215-2.033 2.745a1.61207 1.61207 0 0 0 .683 .30332 5.41919 5.41919 0 0 0 .98405 .10119H13.754a1.29685 1.29685 0 0 0 1.22643 -1.08146C14.988 13.768 14.987 3.883 14.987 3.883" fill="#5597b8"/><path d="M13.05185 1a1.31371 1.31371 0 0 1 1.31787 1.24352v8.826a1.23048 1.23048 0 0 1 -1.23159 1.24107H4.312a1.318 1.318 0 0 1 -1.31785 -1.24655v-8.82A1.231 1.231 0 0 1 4.226 1" fill="#69c6f4"/><path d="m6.787 12.311v1.063a2.13329 2.13329 0 0 0 2.04711 2.19879 2.13329 2.13329 0 0 0 2.04713 -2.19879v-1.063" fill="#401412"/><path d="M8.83383 16a2.51723 2.51723 0 0 1 -2.38514 -2.62611V12.31h.676v1.063a1.71023 1.71023 0 1 0 3.41829 0V12.31h.676v1.063A2.51723 2.51723 0 0 1 8.83383 16" fill="#5597b8"/><path d="m10.881 12.31v-2.714a2.26393 2.26393 0 0 0 -2.04717 -2.42012 2.26393 2.26393 0 0 0 -2.04712 2.42014v2.714" fill="#401412"/><path d="M11.219,12.3104h-.676v-2.714A1.89293,1.89293,0,0,0,8.83383,7.566,1.89293,1.89293,0,0,0,7.12469,9.59642v2.714h-.676v-2.714a2.62685,2.62685,0,0,1,2.38514-2.8099A2.62685,2.62685,0,0,1,11.219,9.59642Z" fill="#69c6f4"/><path d="m10.312 12.311v-.715a1.4767 1.4767 0 0 0 -1.46711 -1.47759 1.4767 1.4767 0 0 0 -1.46712 1.47759v.715" fill="#231314"/><ellipse cx="5.768" cy="4.541" rx="1.768" ry="2.459" fill="#fff"/><circle cx="5.768" cy="5" r="1" fill="#020202"/><ellipse cx="11.768" cy="4.541" rx="1.768" ry="2.459" fill="#fff"/><circle cx="11.768" cy="5" r="1" fill="#020202"/></svg>