<svg xmlns="http://www.w3.org/2000/svg" viewBox="0 0 16 16"><g fill="#f9db17" stroke="#c9b220" stroke-linejoin="round" stroke-linecap="round"><path d="m14.12 5.218l-.139 6.251c-.247 1.927-5.688 2.92-5.688 2.92-2.656.455-3.063-1.895-1.688-2.389l1.997-.644 4.085-1.933"/><path d="M3.32112 11.94276a1.63773 1.63773 0 0 0 1.29873 -.6656l.095.254a1.43235 1.43235 0 0 0 1.53823 .828 1.55678 1.55678 0 0 0 1.373 -.93487 1.41249 1.41249 0 0 0 1.45159 1.17116c.778 0 1.409-.459 1.409-1.025 0 .566.631 1.025 1.409 1.025 2.201 0 2.192-4.89 2.192-4.89s.385-4.635-.865-5.167a1.44938 1.44938 0 0 0 -1.78125 .60417A1.97867 1.97867 0 0 0 9.47955 1.554 1.88477 1.88477 0 0 0 7.62608 3.205 1.58819 1.58819 0 0 0 5.92721 1.95643C4.442 1.997 4.151 3.684 4.151 3.684 1.734 3.643 1.857 5.537 1.857 7.321v3.556C1.857 11.466 2.512 11.943 3.321 11.943"/><path d="m10.487 11.57v-4.04"/><path d="m7.626 11.424v-4.171"/><path d="m4.62 11.277v-4.381"/></g></svg>