<svg xmlns="http://www.w3.org/2000/svg" viewBox="0 0 18 18"><path d="M4.37438 12.87649a1.21247 1.21247 0 0 1 -.29986 -.77377L4.01 3.277a2.99479 2.99479 0 0 1 .3369 -.85806c-.493.732-1.6 2.118-1.781 2.395A3.1789 3.1789 0 0 0 2.01309 6.208v8.45a1.05686 1.05686 0 0 0 .32833 .937L4.374 12.876" fill="#fce481"/><path d="M15.99993 4.916a2.68347 2.68347 0 0 0 -.36139 -1.373L15.23 2.715a2.01017 2.01017 0 0 1 .08512 .56243l.067 8.826a1.20689 1.20689 0 0 1 -.24041 .72606 2.78559 2.78559 0 0 1 -.399 .34728c-.014.008-.026.018-.04.025a1.14367 1.14367 0 0 1 -.55219 .1426H5.325c-.02 0-.038-.006-.058-.007a1.16739 1.16739 0 0 1 -.45759 -.115l-.006-.002a1.27527 1.27527 0 0 1 -.28795 -.20193 1.747 1.747 0 0 1 -.14123 -.16685S2.742 15.07 2.341 15.595a1.61207 1.61207 0 0 0 .683 .30332A5.41919 5.41919 0 0 0 4.00842 16H14.767a1.29685 1.29685 0 0 0 1.22643 -1.08146C16 14.802 16 4.916 16 4.916" fill="#c4aa10"/><path d="M14.06459 2.03341a1.31371 1.31371 0 0 1 1.31787 1.24352v8.826a1.23048 1.23048 0 0 1 -1.23159 1.24107H5.325a1.318 1.318 0 0 1 -1.31785 -1.24655v-8.82A1.231 1.231 0 0 1 5.23877 2.03341" fill="#fdd810"/><path d="M7.11816,7.68457a1.50164,1.50164,0,0,1-1.5-1.5.5.5,0,0,1,1,0,.5.5,0,0,0,1,0,.5.5,0,0,1,1,0A1.50164,1.50164,0,0,1,7.11816,7.68457Z"/><path d="M13.11816,7.68457a1.50164,1.50164,0,0,1-1.5-1.5.5.5,0,0,1,1,0,.5.5,0,0,0,1,0,.5.5,0,0,1,1,0A1.50164,1.50164,0,0,1,13.11816,7.68457Z"/><path d="M10.11816,12.68457a2.50232,2.50232,0,0,1-2.5-2.5.5.5,0,0,1,1,0,1.5,1.5,0,1,0,3,0,.5.5,0,0,1,1,0A2.50232,2.50232,0,0,1,10.11816,12.68457Z"/><path d="m12.634 9.09l.019.004c-.008-.005-.018-.007-.026-.012" fill="#fff"/><path d="m7.627 4.4c-.436-.057-1.76-.091-1.981-.086-1.391.029-1.979.571-2.109 1.942a2.49641 2.49641 0 0 0 3.03825 2.786 3.61731 3.61731 0 0 0 2.5567 -2.75611c.129-1.194-.289-1.726-1.505-1.886"/><path d="m12.609 4.4c.436-.057 1.76-.091 1.981-.086 1.391.029 1.979.571 2.109 1.942a2.49641 2.49641 0 0 1 -3.03825 2.786 3.61731 3.61731 0 0 1 -2.55671 -2.75611c-.129-1.194.289-1.726 1.505-1.886"/><path d="M17.50936 4.39195a13.59278 13.59278 0 0 0 -6.50152 -.06717 3.616 3.616 0 0 1 -.88985 .08872 3.616 3.616 0 0 1 -.88985 -.08872 13.59278 13.59278 0 0 0 -6.50152 .06717 .54721 .54721 0 0 0 -.3435 .90657 3.11679 3.11679 0 0 1 .731 1.74843A2.91093 2.91093 0 0 0 6.65695 9.44389 3.82107 3.82107 0 0 0 9.40653 7.01663c.114-.246.186-.515.321-.747a.48982 .48982 0 0 1 .39091 -.29528 .48982 .48982 0 0 1 .39091 .29528c.135.233.207.501.321.747A3.82107 3.82107 0 0 0 13.579 9.44389a2.91093 2.91093 0 0 0 3.54285 -2.39694 3.11679 3.11679 0 0 1 .731 -1.74843A.54721 .54721 0 0 0 17.50936 4.39195m-8.37731 1.894a3.61731 3.61731 0 0 1 -2.5567 2.75613 2.49641 2.49641 0 0 1 -3.03825 -2.786c.131-1.371.718-1.913 2.109-1.942.221-.005 1.544.029 1.981.086C8.843 4.56 9.261 5.092 9.132 6.286m4.52854 2.75615a3.61731 3.61731 0 0 1 -2.5567 -2.75613c-.129-1.194.289-1.726 1.505-1.886.436-.057 1.76-.091 1.981-.086 1.391.029 1.979.571 2.109 1.942A2.49641 2.49641 0 0 1 13.66061 9.04206"/><path d="M14.23535 9.75977a3.62416 3.62416 0 0 1 -.7041 -.07031 4.02 4.02 0 0 1 -2.92871 -2.56836c-.048-.102-.088-.208-.128-.313a3.00812 3.00812 0 0 0 -.18164 -.41309c-.139-.236-.195-.265-.349 0a2.71062 2.71062 0 0 0 -.18164 .41113c-.041.106-.082.213-.13.316A4.018 4.018 0 0 1 6.70605 9.68945a3.25341 3.25341 0 0 1 -2.47852 -.457 3.27935 3.27935 0 0 1 -1.3584 -2.13867 2.92223 2.92223 0 0 0 -.66406 -1.61914 .73906 .73906 0 0 1 -.1875 -.73828 .86522 .86522 0 0 1 .65625 -.58887L2.79 4.122a13.76388 13.76388 0 0 1 6.498 -.04 3.29952 3.29952 0 0 0 .82813 .08105 3.35145 3.35145 0 0 0 .832 -.08105 13.777 13.777 0 0 1 6.498 .04l.116.025a.8659 .8659 0 0 1 .65527 .58789 .73864 .73864 0 0 1 -.1875 .73926 2.908 2.908 0 0 0 -.66211 1.61426A3.28619 3.28619 0 0 1 16.00684 9.2334 3.14683 3.14683 0 0 1 14.23535 9.75977M5.691 4.563h-.04c-1.259.026-1.747.476-1.865 1.716a2.35032 2.35032 0 0 0 .71 1.99219 2.33315 2.33315 0 0 0 2.0332 .52441A3.36843 3.36843 0 0 0 8.88281 6.25977v-.001C8.999 5.196 8.674 4.79 7.595 4.648 7.197 4.596 5.994 4.563 5.691 4.563m8.853 0c-.301 0-1.505.032-1.903.085-1.078.142-1.403.548-1.288 1.611A3.37168 3.37168 0 0 0 13.70605 8.7959 2.24665 2.24665 0 0 0 16.4502 6.2793C16.332 5.04 15.844 4.59 14.585 4.563M4.305 4.344c-.562.082-1.035.186-1.408.267l-.117.025a.37259 .37259 0 0 0 -.28223 .24316 .23528 .23528 0 0 0 .06348 .24414 2.81607 2.81607 0 0 1 .71289 1.45117 3.35824 3.35824 0 0 1 .01465 -.3418A2.12783 2.12783 0 0 1 4.30469 4.34375m11.60254-.00293a2.13189 2.13189 0 0 1 1.041 1.8916 3.34628 3.34628 0 0 1 .01465 .3418A2.82214 2.82214 0 0 1 17.6748 5.123a.23726 .23726 0 0 0 .06445 -.24512 .37306 .37306 0 0 0 -.28223 -.24219l-.117-.025C16.962 4.528 16.479 4.423 15.907 4.341M9.381 6.313c-.006.051-.013.101-.021.151a2.27822 2.27822 0 0 1 .15234 -.32031 .6484 .6484 0 0 1 1.21289 0 2.42059 2.42059 0 0 1 .15137 .31836c-.009-.05-.016-.1-.021-.148a1.6865 1.6865 0 0 1 .7041 -1.85645q-.242.05-.491.111a4.09564 4.09564 0 0 1 -.95117 .09473 4.23157 4.23157 0 0 1 -.94727 -.09473q-.249-.062-.492-.111a1.68425 1.68425 0 0 1 .7041 1.85547"/></svg>