<svg xmlns="http://www.w3.org/2000/svg" viewBox="0 0 16 16"><g stroke="#c9b220" stroke-linejoin="round" stroke-linecap="round"><path d="m10.426 8.477h-2.01a3.37864 3.37864 0 0 0 -2.049 .68828 .29552 .29552 0 0 1 -.47175 -.2385v-4.865c0-.292.382-.641.562-.411a1.20882 1.20882 0 0 0 1.05575 .52h.929a1.20792 1.20792 0 0 0 1.20434 -1.20434v-1.051a1.23446 1.23446 0 0 0 -1.20438 -1.20439 3.82082 3.82082 0 0 0 -2.0829 .207c-1.401.79-5.476 5.547-3.777 9.503a22.849 22.849 0 0 1 .44107 2.73175c0 .365.513.693.975.914a28.392 28.392 0 0 0 4.4174 1.198 6.94557 6.94557 0 0 0 3.46279 -.29345 3.62773 3.62773 0 0 0 1.93684 -3.101 3.39442 3.39442 0 0 0 -3.39438 -3.39436" fill="#f9db17"/><path d="M7.02637,12.96285a3.74654,3.74654,0,0,0,1.96716.5161,3.85073,3.85073,0,0,0,1.80232-.42048" fill="none"/></g></svg>