<svg xmlns="http://www.w3.org/2000/svg" viewBox="0 0 18 18"><path d="M4.37438 12.84308a1.21247 1.21247 0 0 1 -.29986 -.77377L4.01 3.244a2.99479 2.99479 0 0 1 .3369 -.85806C3.851 3.117 2.744 4.503 2.563 4.78a3.1789 3.1789 0 0 0 -.54956 1.39446V14.625a1.05686 1.05686 0 0 0 .32833 .937L4.374 12.843" fill="#cdf7a1"/><path d="M15.99993 4.88256a2.68347 2.68347 0 0 0 -.36139 -1.373L15.23 2.681a2.01017 2.01017 0 0 1 .08512 .56243l.067 8.826a1.20689 1.20689 0 0 1 -.24041 .72606 2.78559 2.78559 0 0 1 -.399 .34728c-.014.008-.026.018-.04.025a1.14367 1.14367 0 0 1 -.55219 .1426H5.325c-.02 0-.038-.006-.058-.007a1.16739 1.16739 0 0 1 -.45759 -.115l-.006-.002a1.27527 1.27527 0 0 1 -.28795 -.20193 1.747 1.747 0 0 1 -.14123 -.16685s-1.632 2.215-2.033 2.745a1.61207 1.61207 0 0 0 .683 .30332 5.41919 5.41919 0 0 0 .98405 .10119H14.767a1.29685 1.29685 0 0 0 1.22643 -1.08146C16 14.768 16 4.883 16 4.883" fill="#59813c"/><path d="M14.06459 2a1.31371 1.31371 0 0 1 1.31787 1.24352v8.826a1.23048 1.23048 0 0 1 -1.23159 1.24107H5.325a1.318 1.318 0 0 1 -1.31785 -1.24655v-8.82A1.231 1.231 0 0 1 5.23877 2" fill="#9ae84f"/><path d="M11.96869,6.11a.82213.82213,0,1,1,1.13279.86017,1.60152,1.60152,0,1,0-1.307-1.573A1.58552,1.58552,0,0,0,11.96869,6.11Z" fill="#fff"/><path d="M13.57224,6.44694A.82343.82343,0,1,0,11.96869,6.11a1.59792,1.59792,0,0,0,1.13279.86017A.818.818,0,0,0,13.57224,6.44694Z" fill="#020202"/><path d="M6.17423 6.11A.82213 .82213 0 1 1 7.307 6.97019 1.60152 1.60152 0 1 0 6 5.39723 1.58552 1.58552 0 0 0 6.17423 6.11" fill="#fff"/><path d="M7.77778,6.44694A.82343.82343,0,1,0,6.17423,6.11,1.59792,1.59792,0,0,0,7.307,6.97019.818.818,0,0,0,7.77778,6.44694Z" fill="#020202"/><path d="M10.69569,13.80314l-.19126-.23448a1.97131,1.97131,0,0,0-1.536-.731H8.27183a5.009,5.009,0,0,0-.25574-1.128,1.67125,1.67125,0,0,0,1.20318-2.776.36113.36113,0,0,0-.25084-.12336.35184.35184,0,0,0-.264.09012.36482.36482,0,0,0-.03325.51506A.94968.94968,0,0,1,8.586,10.754a.93979.93979,0,0,1-.94438.16667,3.36669,3.36669,0,0,0-.76266-.8904,1.85237,1.85237,0,0,0,.43676-1.16276,1.88842,1.88842,0,0,0-3.77683,0,1.85237,1.85237,0,0,0,.43676,1.16276,3.35306,3.35306,0,0,0-.74814.86617.94607.94607,0,0,1-.349.09213.93167.93167,0,0,1-.68733-.23456A.95025.95025,0,0,1,2.106,9.41545a.36481.36481,0,0,0-.27367-.60588l-.02424.0007a.36235.36235,0,0,0-.25014.12336A1.67861,1.67861,0,0,0,2.81612,11.7205L2.83441,11.72a5.017,5.017,0,0,0-.25163,1.1177h-.774A1.973,1.973,0,0,0,.272,13.569l-.19056.23413a.36644.36644,0,0,0-.07962.26781.36205.36205,0,0,0,.13369.24559.375.375,0,0,0,.5127-.053l.19056-.23413a1.2441,1.2441,0,0,1,.96993-.46178h.74438a3.87406,3.87406,0,0,0,.32127,1.28227,1.683,1.683,0,0,0-1.119,1.38272A1.6636,1.6636,0,0,0,2.099,17.47026a.37228.37228,0,0,0,.512.06308.36484.36484,0,0,0,.06238-.512.94924.94924,0,0,1,.16413-1.33127.9325.9325,0,0,1,.36326-.16938,12.70249,12.70249,0,0,0,1.58893,2.1858.83909.83909,0,0,0,1.275,0,12.73293,12.73293,0,0,0,1.57992-2.16935.94608.94608,0,0,1,.45907,1.48421.36537.36537,0,0,0,.06238.51235.37492.37492,0,0,0,.512-.06308,1.60832,1.60832,0,0,0-.71848-2.57312,3.9263,3.9263,0,0,0,.34183-1.32987h.66695a1.24486,1.24486,0,0,1,.96993.46143l.19056.23413a.37313.37313,0,0,0,.5127.05337.36205.36205,0,0,0,.13369-.24559A.36683.36683,0,0,0,10.69569,13.80314Z"/><g fill="#020202"><path d="M14.62461,3.11962a.37007.37007,0,0,1-.18408-.04883,2.46025,2.46025,0,0,0-1.9126-.21777.37481.37481,0,1,1-.21289-.71875,3.1867,3.1867,0,0,1,2.49463.28418.37494.37494,0,0,1-.18506.70117Z"/><path d="M8.66356,2.85a.37007.37007,0,0,1-.1904-.00422,2.46025,2.46025,0,0,0-1.91023.23764.37481.37481,0,0,1-.37579-.64862A3.1867,3.1867,0,0,1,8.67872,2.125a.37494.37494,0,0,1-.01516.725Z"/></g></svg>