<svg xmlns="http://www.w3.org/2000/svg" viewBox="0 0 16 16"><g fill="#f9db17" stroke="#c9b220" stroke-linejoin="round" stroke-linecap="round"><path d="M13.2926 8.51623A2.0735 2.0735 0 0 0 12.983 7.727L10.299 1.174A1.039 1.039 0 1 0 8.376 1.96106l.633 1.546-.882-.963a.9719 .9719 0 0 0 -1.37323 -.06042l-.099.09a.972 .972 0 0 0 -.06042 1.37323L8.907 6.472l-1.536-.835a1.36073 1.36073 0 0 0 -.88184 -.05029L3.834 6.373a1.06913 1.06913 0 0 0 -.76862 1.20441 1.03914 1.03914 0 0 0 1.31531 .80084l2.204-.652a.45345 .45345 0 0 1 .34528 .03644l1.564.85a.72761 .72761 0 0 1 .33917 .88037l-.439 1.25a1.50691 1.50691 0 0 1 -1.35144 1.00616l-.627.029a.7822 .7822 0 0 1 -.73077 -.4209L4.656 9.376a1.07546 1.07546 0 0 0 -1.34125 -.53046 1.03916 1.03916 0 0 0 -.52777 1.44012l1.676 3.228a3.77584 3.77584 0 0 0 2.65308 1.958A8.78225 8.78225 0 0 0 10.0542 15.003a3.5831 3.5831 0 0 0 1.89929 -1.90039l1.251-3.563a2.06439 2.06439 0 0 0 .11389 -.588A1.02768 1.02768 0 0 0 13.2926 8.51623"/><path d="m9.01 3.507l3.825 3.856"/></g></svg>