<svg xmlns="http://www.w3.org/2000/svg" viewBox="0 0 16 16"><g stroke="#c9b220" stroke-linejoin="round" stroke-linecap="round"><path d="M11.50078 5.72855a1.02931 1.02931 0 0 0 -.9163 .5653l-.067-.166a1.00672 1.00672 0 0 0 -1.08527 -.80306 1.01981 1.01981 0 0 0 -.8852 .845l-.113.026V6.09a.99424 .99424 0 0 0 -.99423 -.99424 .99424 .99424 0 0 0 -.99423 .99424V1.77a.99424 .99424 0 1 0 -1.98849 0V7.115A3.622 3.622 0 0 0 3.47433 10.278c0 2.512 1.375 4.946 4.272 4.946a4.82549 4.82549 0 0 0 4.78755 -5.0129V6.762A1.03315 1.03315 0 0 0 11.50078 5.72855" fill="#f9db17"/><g fill="none"><path d="m8.454 5.942v1.866a1.00452 1.00452 0 0 1 -1.00453 1.00452 1.00452 1.00452 0 0 1 -1.00452 -1.00452v-1.866"/><path d="m10.568 5.942v1.866a1.00452 1.00452 0 0 1 -1.00453 1.00452 1.00452 1.00452 0 0 1 -1.00452 -1.00452v-1.866"/><path d="m12.534 7.194v.701a.99055 .99055 0 0 1 -.976 1.00452 .99055 .99055 0 0 1 -.976 -1.00452v-.701"/></g><path d="M8.09707 13.17051a2.8949 2.8949 0 0 0 .32905 -.96728A2.85256 2.85256 0 0 0 7.6073 9.74864a2.90086 2.90086 0 0 0 -1.49793 -.77951l1.82-.062a.91042 .91042 0 0 0 .93739 -.90831 .87056 .87056 0 0 0 -.97514 -.80509c-.739.005-2.583.217-2.583.217l-1.245.129" fill="#f9db17"/></g></svg>