<svg xmlns="http://www.w3.org/2000/svg" viewBox="0 0 16 16"><g stroke="#c9b220"><path d="M11.80631 5.79986a1.04357 1.04357 0 0 0 -.929 .57313l-.068-.168A1.02067 1.02067 0 0 0 9.709 5.39037a1.03394 1.03394 0 0 0 -.89746 .85675L8.756 1.581A1.0209 1.0209 0 0 0 7.62229 .57933a1.05032 1.05032 0 0 0 -.90734 1.071l.201 5.583L5.303 1.833a1.0209 1.0209 0 0 0 -1.34877 -.68517 1.05032 1.05032 0 0 0 -.60917 1.2646L4.665 7.206a4.17319 4.17319 0 0 0 -1.53445 3.20672 4.86541 4.86541 0 1 0 9.72369 -.068V6.847A1.04747 1.04747 0 0 0 11.80631 5.79986" fill="#f9db17" stroke-linecap="round" stroke-linejoin="round"/><g fill="none" stroke-miterlimit="10"><path d="m12.873 7.633v1.405a1.08082 1.08082 0 0 1 -.948 .99082 1.00494 1.00494 0 0 1 -1.0272 -.83695v-2.864"/><path d="m10.876 6.05v2.92a1.14647 1.14647 0 0 1 -.99884 1.05653 1.06347 1.06347 0 0 1 -1.08225 -.89253l.014-3.084"/></g><path d="M4.104 7.83289a7.72437 7.72437 0 0 1 1.97332 -.49965 7.91389 7.91389 0 0 1 2.10983 .31994c.738.212 1.125.332 1.5.478a.93169 .93169 0 0 1 .65248 1.1842 .97344 .97344 0 0 1 -1.28942 .534L7.216 9.195a3.10164 3.10164 0 0 1 1.18225 1.36459 3.05 3.05 0 0 1 -.15225 2.76247" fill="#f9db17" stroke-linecap="round" stroke-linejoin="round"/></g></svg>