<svg xmlns="http://www.w3.org/2000/svg" viewBox="0 0 16 16"><g stroke="#c9b220" stroke-linejoin="round" stroke-linecap="round"><path d="m13.974 11.223l-2.961.647a1.06991 1.06991 0 0 0 .58769 -1.30909 1.09752 1.09752 0 0 0 -1.25842 -.70974 1.0695 1.0695 0 0 0 .713 -1.35433 1.12745 1.12745 0 0 0 -1.29784 -.7354l-.036-.049a1.04326 1.04326 0 0 0 .611 -1.15994 1.05874 1.05874 0 0 0 -1.2157 -.83033l-1.182.202c-.891.105-2.574.34-3.768.495l-.037-4.082a1.13653 1.13653 0 0 0 -1.0303 -1.32473 1.00643 1.00643 0 0 0 -1.198 .83783c-.223.825-1.102 6.862-1.102 6.862l.013-.009a4.71371 4.71371 0 0 0 .05173 2.014 5.4209 5.4209 0 0 0 6.36557 4.17304l4.165-.91v-.003l2.992-.654a1.1011 1.1011 0 0 0 .87954 -1.17983 1.07036 1.07036 0 0 0 -1.29136 -.92084" fill="#f9db17"/><g fill="none"><path d="m6.948 8.313l3.062-.625"/><path d="m7.515 10.414l3.062-.625"/><path d="m8 12.496l3.063-.625"/></g></g></svg>