<svg xmlns="http://www.w3.org/2000/svg" viewBox="0 0 18 18"><path d="M5.36164 11.87649a1.21247 1.21247 0 0 1 -.29986 -.77377L4.994 2.277a2.99479 2.99479 0 0 1 .3369 -.85806c-.493.732-1.6 2.118-1.781 2.395A3.1789 3.1789 0 0 0 3.00035 5.208v8.45a1.05686 1.05686 0 0 0 .32833 .937l2.033-2.719" fill="#a5e2f9"/><path d="M16.9872 3.916a2.68347 2.68347 0 0 0 -.36139 -1.373l-.409-.828a2.01017 2.01017 0 0 1 .08512 .56243l.067 8.826a1.20689 1.20689 0 0 1 -.24041 .72606 2.78559 2.78559 0 0 1 -.399 .34728c-.014.008-.026.018-.04.025a1.14367 1.14367 0 0 1 -.55219 .1426H6.312c-.02 0-.038-.006-.058-.007a1.16739 1.16739 0 0 1 -.45759 -.115l-.006-.002a1.27527 1.27527 0 0 1 -.28795 -.20193 1.747 1.747 0 0 1 -.14123 -.16685S3.73 14.07 3.329 14.595a1.61207 1.61207 0 0 0 .683 .30332A5.41919 5.41919 0 0 0 4.99569 15H15.754a1.29685 1.29685 0 0 0 1.22643 -1.08146C16.988 13.802 16.987 3.916 16.987 3.916" fill="#5597b8"/><path d="M15.05185 1.03341a1.31371 1.31371 0 0 1 1.31787 1.24352v8.826a1.23048 1.23048 0 0 1 -1.23159 1.24107H6.312a1.318 1.318 0 0 1 -1.31785 -1.24655v-8.82A1.231 1.231 0 0 1 6.226 1.03341" fill="#69c6f4"/><circle cx="11.01" cy="9.231" r="2.468" fill="#3f261c"/><ellipse cx="11.01" cy="8.966" rx="1.072" ry="1.321"/><path d="M13.30352,10.14005a3.27044,3.27044,0,0,0-4.58515.00005,2.4655,2.4655,0,0,0,4.58515-.00005Z" fill="#ed3b3b"/><circle cx="8.543" cy="4.543" r="1.457" fill="#fff"/><circle cx="8.543" cy="4.543" r=".514" fill="#020202"/><circle cx="13.457" cy="4.543" r="1.457" fill="#fff"/><circle cx="13.457" cy="4.543" r=".514" fill="#020202"/><path fill="#5597b8" d="m5.072 5.748l-2.689 3.635 1.318 5.39 3.169-1.542-.347-6.296-1.01 1.376-.445-2.563"/><path d="m2.777 8.254l-.017-2.053a1.03253 1.03253 0 0 1 .92914 -1.02893 1.01923 1.01923 0 0 1 1.1496 .96981l.01 1.233a1.01922 1.01922 0 0 1 1.13372 -.98831 1.03253 1.03253 0 0 1 .94573 1.01371l.029 3.543v.082a1.03833 1.03833 0 0 1 1.15128 -.70651 1.02533 1.02533 0 0 1 .88415 1.0025l.006.745c.022 2.705-1.556 4.911-4.415 4.934-4.31.035-3.948-5.926-3.948-5.926l-.023-2.815a1.19733 1.19733 0 0 1 1.01272 -1.1093 1.01923 1.01923 0 0 1 1.1496 .96981l.029 3.577" fill="#fff"/><path d="M4.54688 17.5a3.78581 3.78581 0 0 1 -2.8623 -1.16992C-.051 14.5.129 11.185.138 11.04L.114 8.263A1.7049 1.7049 0 0 1 1.57813 6.65234a1.61577 1.61577 0 0 1 .68652 .082l-.004-.53A1.53857 1.53857 0 0 1 3.64063 4.67432a1.58441 1.58441 0 0 1 1.21 .39014 1.47259 1.47259 0 0 1 .47949 .91992 1.58478 1.58478 0 0 1 .69434 -.09668A1.53866 1.53866 0 0 1 7.42871 7.396l.021 2.493a1.58493 1.58493 0 0 1 .72754 -.06641 1.52894 1.52894 0 0 1 1.31738 1.49365L9.5 12.06C9.525 15.29 7.552 17.476 4.589 17.5M1.736 7.645c-.02 0-.04.001-.061.003a.70992 .70992 0 0 0 -.56543 .67725l.026 2.746c-.003.063-.162 3.062 1.275 4.573A2.78611 2.78611 0 0 0 4.5459 16.5h.035C7.499 16.477 8.517 14.1 8.5 12.07l-.006-.745A.52324 .52324 0 0 0 8.042 10.814a.53365 .53365 0 0 0 -.60547 .354 .4997 .4997 0 0 1 -.97852 -.14355l-.029-3.621a.53057 .53057 0 0 0 -.48633 -.519 .55737 .55737 0 0 0 -.44141 .146 .45952 .45952 0 0 0 -.15137 .33691v.003a.50035 .50035 0 0 1 -.49609 .50391H4.85a.49973 .49973 0 0 1 -.5 -.49561V7.375l-.01-1.23a.45541 .45541 0 0 0 -.15723 -.33691 .57814 .57814 0 0 0 -.44434 -.13916 .532 .532 0 0 0 -.47754 .52734l.016 1.902v.017l.029 3.578a.49973 .49973 0 0 1 -.49609 .50391H2.806a.49951 .49951 0 0 1 -.5 -.49609L2.277 8.269V8.257v-.143a.45841 .45841 0 0 0 -.1582 -.32812A.57035 .57035 0 0 0 1.73633 7.64453" fill="#5597b8"/><path fill="#fff" d="m4.889 11.694l-.041-5.063"/><path d="M4.88867,12.19434a.49951.49951,0,0,1-.5-.49609l-.041-5.06348a.50035.50035,0,0,1,.49609-.50391h.00391a.49983.49983,0,0,1,.5.49609l.041,5.06348a.49973.49973,0,0,1-.49609.50391Z" fill="#5597b8"/><path fill="#fff" d="m6.958 11.02l.014 1.68"/><path d="M6.97168,13.20508a.49951.49951,0,0,1-.5-.49609L6.458,11.02832a.50035.50035,0,0,1,.49609-.50391H6.958a.49983.49983,0,0,1,.5.49609l.01367,1.68066a.49973.49973,0,0,1-.49609.50391Z" fill="#5597b8"/></svg>