<svg xmlns="http://www.w3.org/2000/svg" viewBox="0 0 18 18"><path d="M4.35876 13.82416a1.21247 1.21247 0 0 1 -.29986 -.77377L3.992 4.225a2.99479 2.99479 0 0 1 .3369 -.85806c-.493.732-1.6 2.118-1.781 2.395a3.1789 3.1789 0 0 0 -.54956 1.39446v8.45a1.05686 1.05686 0 0 0 .32833 .937l2.033-2.719" fill="#ff7878"/><path d="M15.98431 5.86364a2.68347 2.68347 0 0 0 -.36139 -1.373l-.409-.828a2.01017 2.01017 0 0 1 .08512 .56243l.067 8.826a1.20689 1.20689 0 0 1 -.24041 .72606 2.78559 2.78559 0 0 1 -.399 .34728c-.014.008-.026.018-.04.025a1.14367 1.14367 0 0 1 -.55219 .1426H5.309c-.02 0-.038-.006-.058-.007a1.16739 1.16739 0 0 1 -.45759 -.115l-.006-.002a1.27527 1.27527 0 0 1 -.28795 -.20193 1.747 1.747 0 0 1 -.14123 -.16685S2.727 16.01 2.326 16.543a1.61207 1.61207 0 0 0 .683 .30332 5.41919 5.41919 0 0 0 .98405 .10119H14.751a1.29685 1.29685 0 0 0 1.22643 -1.08146C15.986 15.75 15.984 5.864 15.984 5.864" fill="#c52f30"/><path d="M14.049 2.98108A1.31371 1.31371 0 0 1 15.36683 4.2246v8.826a1.23048 1.23048 0 0 1 -1.23159 1.24107H5.309a1.318 1.318 0 0 1 -1.31785 -1.24655v-8.82A1.231 1.231 0 0 1 5.22315 2.98108" fill="#ed3b3b"/><path fill="#c52f30" d="m15.42 2.248l-.002.017"/><path d="m4.421 1.975l-.038.049c.012-.011.028-.017.04-.027" fill="#fce481"/><circle cx="13.659" cy="6.341" r="1.659" fill="#fff"/><circle cx="13.659" cy="6.382" r=".585"/><path d="m9.409 7.277l.825-1.137-1.968-.395.777-1.064h-4.463s-1.907 2.557-2.584 3.471v7.431a1.05937 1.05937 0 0 0 .3291 .9393 1.61611 1.61611 0 0 0 .68461 .304 5.43169 5.43169 0 0 0 .98636 .10145h1.047c.636-.86 6.141-8.923 6.812-9.83" fill="#c52f30"/><g fill="#3f261c"><circle cx="9.904" cy="10.468" r="1.952"/><path d="M11.71734 11.18708a2.58675 2.58675 0 0 0 -3.62656 0 1.95007 1.95007 0 0 0 3.62656 0"/></g><path d="M9.90407,12.41969a1.94358,1.94358,0,0,0,1.68-.97383,1.85165,1.85165,0,0,0-1.68-1.54834,1.85176,1.85176,0,0,0-1.68,1.54843A1.94359,1.94359,0,0,0,9.90407,12.41969Z"/><path d="m8.04 8.223h-3.489a.125 .125 0 0 1 0 -.25h3.489a.125 .125 0 0 1 0 .25" fill="#c52f30"/><path d="m9.783 3.224h2.05a1.03116 1.03116 0 0 1 1.02 .93622 1.01788 1.01788 0 0 1 -.97781 1.14019h-1.231a1.039 1.039 0 0 1 -.04222 2.07642h-3.62a1.037 1.037 0 0 1 .69623 1.15544 1.024 1.024 0 0 1 -1.00831 .87484h-.744c-2.702 0-4.892-.959-4.892-3.814v-.635c0-4.305 5.95-3.895 5.95-3.895h2.811a1.19575 1.19575 0 0 1 1.0996 1.02034 1.01788 1.01788 0 0 1 -.97781 1.14019h-3.573" fill="#fff"/><g fill="#c52f30"><path d="m6.67 9.907h-.744c-3.478 0-5.393-1.532-5.393-4.313v-.635a3.78955 3.78955 0 0 1 1.19239 -2.89062c1.839-1.719 5.15-1.515 5.292-1.504l2.777-.001a1.70492 1.70492 0 0 1 1.59766 1.47561 1.591 1.591 0 0 1 -.08789 .68555h.528a1.53529 1.53529 0 0 1 1.51758 1.3916 1.57467 1.57467 0 0 1 -.39941 1.2041 1.46964 1.46964 0 0 1 -.93262 .47266 1.68232 1.68232 0 0 1 .10254 .6709 1.5223 1.5223 0 0 1 -1.51953 1.41309h-2.489a1.614 1.614 0 0 1 .06055 .72656 1.528 1.528 0 0 1 -1.50293 1.3037m-.071-8.353c-.868 0-2.99.121-4.193 1.246a2.79187 2.79187 0 0 0 -.87207 2.1582v.635c0 2.198 1.478 3.313 4.393 3.313h.744a.52162 .52162 0 0 0 .5127 -.44629 .537 .537 0 0 0 -.34862 -.60644 .49991 .49991 0 0 1 .14746 -.97754h3.62a.53244 .53244 0 0 0 .52148 -.46191 .6492 .6492 0 0 0 -.16406 -.47461 .432 .432 0 0 0 -.31543 -.13965 .5 .5 0 0 1 0 -1h1.231a.45515 .45515 0 0 0 .33789 -.1543 .57214 .57214 0 0 0 .1416 -.44043 .52844 .52844 0 0 0 -.52148 -.48145h-5.489a.5 .5 0 0 1 0 -1h3.573a.45467 .45467 0 0 0 .33691 -.1543 .57753 .57753 0 0 0 .14258 -.44141 .70951 .70951 0 0 0 -.67188 -.57031l-2.741.005c-.014-.001-.155-.009-.385-.009"/><path d="m11.387 5.804h-5.057a.5 .5 0 0 1 0 -1h5.057a.5 .5 0 0 1 0 1"/><path d="m6.981 7.877h-1.678a.5 .5 0 0 1 0 -1h1.678a.5 .5 0 0 1 0 1"/></g></svg>