<svg xmlns="http://www.w3.org/2000/svg" viewBox="0 0 16 16"><path d="M3.37438 11.84308a1.21247 1.21247 0 0 1 -.29986 -.77377L3.01 2.244a2.99479 2.99479 0 0 1 .3369 -.85806C2.851 2.117 1.744 3.503 1.563 3.78a3.1789 3.1789 0 0 0 -.54956 1.39446V13.625a1.05686 1.05686 0 0 0 .32833 .937L3.374 11.843" fill="#c8c997"/><path d="M14.99993 3.88256a2.68347 2.68347 0 0 0 -.36139 -1.373L14.23 1.681a2.01017 2.01017 0 0 1 .08512 .56243l.067 8.826a1.20689 1.20689 0 0 1 -.24041 .72606 2.78559 2.78559 0 0 1 -.399 .34728c-.014.008-.026.018-.04.025a1.14367 1.14367 0 0 1 -.55219 .1426H4.325c-.02 0-.038-.006-.058-.007a1.16739 1.16739 0 0 1 -.45759 -.115l-.006-.002a1.27527 1.27527 0 0 1 -.28795 -.20193 1.747 1.747 0 0 1 -.14123 -.16685s-1.632 2.215-2.033 2.745a1.61207 1.61207 0 0 0 .683 .30332 5.41919 5.41919 0 0 0 .98405 .10119H13.767a1.29685 1.29685 0 0 0 1.22643 -1.08146C15 13.768 15 3.883 15 3.883" fill="#7c7c66"/><path d="M13.06459 1a1.31371 1.31371 0 0 1 1.31787 1.24352v8.826a1.23048 1.23048 0 0 1 -1.23159 1.24107H4.325a1.318 1.318 0 0 1 -1.31785 -1.24655v-8.82A1.231 1.231 0 0 1 4.23877 1" fill="#9a9b7b"/><path d="M3.66853 11.90909a1.24736 1.24736 0 0 1 -.30849 -.796L3.291 2.033a3.081 3.081 0 0 1 .3466 -.88275c-.508.753-1.646 2.178-1.833 2.464A3.27036 3.27036 0 0 0 1.2393 5.04872v8.694a1.08727 1.08727 0 0 0 .33778 .964l2.091-2.798" fill="#c8c997"/><rect x="7" y="10" width="4" height="1" rx=".5"/><path d="M13,5.5A1.50164,1.50164,0,0,1,11.5,4a.5.5,0,0,1,1,0,.5.5,0,0,0,1,0,.5.5,0,0,1,1,0A1.50164,1.50164,0,0,1,13,5.5Z"/><path d="m3.597 1.614l-.038.049c.012-.011.028-.017.04-.027" fill="#fce481"/><path d="m4.744 7.07c0-.936.004-1.872-.001-2.807-.005-.856-.419-1.365-1.09-1.359-.678.006-1.078.504-1.079 1.362-.003 1.872.014 3.743-.015 5.614a1.27948 1.27948 0 0 1 -.34047 .80884 2.17473 2.17473 0 1 0 2.86974 .00069 1.21259 1.21259 0 0 1 -.32821 -.74926c-.038-.956-.015-1.913-.015-2.871" fill="#7c7c66"/><path d="m4.359 4.6c-.003-.556-.272-.887-.708-.883-.44.004-.7.327-.701.885-.002 1.216.009 4.859-.01 6.074a.831 .831 0 0 1 -.22113 .52534 1.41248 1.41248 0 1 0 1.86389 .00045 .78757 .78757 0 0 1 -.21317 -.48664c-.025-.621-.007-5.507-.011-6.115" fill="#ed3b3b"/><path d="m6.184 6.669c0 .51.013 1.02-.002 1.53a3.76347 3.76347 0 0 0 .58818 2.3749 3.46734 3.46734 0 0 1 -.89538 4.6189 3.628 3.628 0 0 1 -5.1362 -5.02518 2.06822 2.06822 0 0 0 .36255 -1.08744c.038-1.699-.008-3.399.026-5.098a2.4972 2.4972 0 0 1 2.56589 -2.52685 2.51042 2.51042 0 0 1 2.4895 2.60117c.008.871.001 1.742.002 2.613m-1.44.398c0-.936.004-1.872-.001-2.807-.005-.856-.419-1.365-1.09-1.359-.678.006-1.078.504-1.079 1.362-.003 1.872.014 3.743-.016 5.614a1.27948 1.27948 0 0 1 -.34047 .80884 2.17473 2.17473 0 1 0 2.86974 .00069 1.21259 1.21259 0 0 1 -.32821 -.74926c-.038-.956-.015-1.913-.015-2.871" fill="#97ceed"/></svg>