<svg xmlns="http://www.w3.org/2000/svg" viewBox="0 0 16 16"><path d="M3.36164 11.87649a1.21247 1.21247 0 0 1 -.29986 -.77377L2.994 2.277a2.99479 2.99479 0 0 1 .3369 -.85806c-.493.732-1.6 2.118-1.781 2.395A3.1789 3.1789 0 0 0 1.00035 5.208v8.45a1.05686 1.05686 0 0 0 .32833 .937l2.033-2.719" fill="#ff7878"/><path d="M14.9872 3.916a2.68347 2.68347 0 0 0 -.36139 -1.373l-.409-.828a2.01017 2.01017 0 0 1 .08512 .56243l.067 8.826a1.20689 1.20689 0 0 1 -.24041 .72606 2.78559 2.78559 0 0 1 -.399 .34728c-.014.008-.026.018-.04.025a1.14367 1.14367 0 0 1 -.55219 .1426H4.312c-.02 0-.038-.006-.058-.007a1.16739 1.16739 0 0 1 -.45759 -.115l-.006-.002a1.27527 1.27527 0 0 1 -.28795 -.20193 1.747 1.747 0 0 1 -.14123 -.16685S1.73 14.07 1.329 14.595a1.61207 1.61207 0 0 0 .683 .30332A5.41919 5.41919 0 0 0 2.99569 15H13.754a1.29685 1.29685 0 0 0 1.22643 -1.08146C14.988 13.802 14.987 3.916 14.987 3.916" fill="#c52f30"/><path d="M13.05185 1.03341a1.31371 1.31371 0 0 1 1.31787 1.24352v8.826a1.23048 1.23048 0 0 1 -1.23159 1.24107H4.312a1.318 1.318 0 0 1 -1.31785 -1.24655v-8.82A1.231 1.231 0 0 1 4.226 1.03341" fill="#ed3b3b"/><path d="m3.164 1.104l-.038.049c.012-.011.028-.017.04-.027" fill="#fce481"/><path d="m10.709 9.427h-4a.40941 .40941 0 0 1 0 -.8125h4a.40941 .40941 0 0 1 0 .8125"/><path d="m3.137.94l-.038.049c.012-.011.028-.017.04-.027" fill="#fce481"/><circle cx="11.354" cy="4.153" r="1.476" fill="#fff"/><circle cx="11.48" cy="3.48" r=".52" fill="#020202"/><circle cx="6.292" cy="4.153" r="1.476" fill="#fff"/><g fill="#020202"><circle cx="6.48" cy="3.48" r=".52" transform="matrix(.2033-.97912.97912.2033 1.755 9.117)"/><path d="m12.859 3.482h-3.01a.41649 .41649 0 0 1 0 -.833h3.01a.41649 .41649 0 1 1 0 .833"/><path d="m7.797 3.482h-3.01a.41649 .41649 0 1 1 0 -.833h3.01a.41649 .41649 0 0 1 0 .833"/></g></svg>