<svg xmlns="http://www.w3.org/2000/svg" viewBox="0 0 16 16"><path d="M3.37438 11.84308a1.21247 1.21247 0 0 1 -.29986 -.77377L3.01 2.244a2.99479 2.99479 0 0 1 .3369 -.85806C2.851 2.117 1.744 3.503 1.563 3.78a3.1789 3.1789 0 0 0 -.54956 1.39446V13.625a1.05686 1.05686 0 0 0 .32833 .937L3.374 11.843" fill="#cdf7a1"/><path d="M14.99993 3.88256a2.68347 2.68347 0 0 0 -.36139 -1.373L14.23 1.681a2.01017 2.01017 0 0 1 .08512 .56243l.067 8.826a1.20689 1.20689 0 0 1 -.24041 .72606 2.78559 2.78559 0 0 1 -.399 .34728c-.014.008-.026.018-.04.025a1.14367 1.14367 0 0 1 -.55219 .1426H4.325c-.02 0-.038-.006-.058-.007a1.16739 1.16739 0 0 1 -.45759 -.115l-.006-.002a1.27527 1.27527 0 0 1 -.28795 -.20193 1.747 1.747 0 0 1 -.14123 -.16685s-1.632 2.215-2.033 2.745a1.61207 1.61207 0 0 0 .683 .30332 5.41919 5.41919 0 0 0 .98405 .10119H13.767a1.29685 1.29685 0 0 0 1.22643 -1.08146C15 13.768 15 3.883 15 3.883" fill="#59813c"/><path d="M13.06459 1a1.31371 1.31371 0 0 1 1.31787 1.24352v8.826a1.23048 1.23048 0 0 1 -1.23159 1.24107H4.325a1.318 1.318 0 0 1 -1.31785 -1.24655v-8.82A1.231 1.231 0 0 1 4.23877 1" fill="#9ae84f"/><path fill="#59813c" d="m14.391.43l-.002.017"/><circle cx="12.5" cy="5.5" r="1.5" fill="#fff"/><circle cx="12.5" cy="5.5" r=".5" transform="matrix(.88639-.46294.46294.88639-1.126 6.412)"/><path d="M14.3252,3.8252a.49685.49685,0,0,1-.35059-.14355h0A3.89929,3.89929,0,0,0,11.3252,2.8252a.5.5,0,0,1,0-1,4.86765,4.86765,0,0,1,3.35352,1.14648.5.5,0,0,1-.35352.85352Z"/><path d="m11.317 10h-2.94a.50086 .50086 0 1 1 0 -1h2.94a.50086 .50086 0 1 1 0 1"/><g fill="#fff"><path d="m5.47 8.65s4.376 0 4.376 6.565h-8.753c0-6.565 4.376-6.565 4.376-6.565"/><path d="m5.47 8.341s-4.376 0-4.376-6.565h8.753c0 6.565-4.376 6.565-4.376 6.565"/></g><path d="m5.347 7.961c1.398-.052 3.663-2.526 4.16-3.961h-7.991c.525 1.455 2.454 3.954 3.831 3.961" fill="#69c6f4"/><path d="M9.84668 15.61523a.49971 .49971 0 0 1 -.5 -.5c0-5.975-3.743-6.265-3.902-6.274C.648 7.651.594 1.836.594 1.777a.50013 .50013 0 0 1 .499 -.5 .50076 .50076 0 0 1 .501 .499c.001.208.058 5.095 3.998 6.08-.042.016 4.755.28 4.755 7.259A.49971 .49971 0 0 1 9.84668 15.61523"/><path d="M1.09375 15.61523a.49971 .49971 0 0 1 -.5 -.5c0-6.961 4.805-7.271 4.854-7.272 3.854-.975 3.899-6.01 3.899-6.07a.5 .5 0 0 1 1 0c0 .059-.055 5.874-4.755 7.05-.254.023-3.998.313-3.998 6.288A.49971 .49971 0 0 1 1.09375 15.61523"/><rect y="1" width="11" height="1" rx=".479"/><rect y="15" width="10.941" height="1" rx=".477"/><path d="m14.359 9.791l-.038.049c.012-.011.028-.017.04-.027" fill="#fce481"/></svg>