<svg xmlns="http://www.w3.org/2000/svg" viewBox="0 0 18 18"><path d="M4.42959 12.78662a1.24736 1.24736 0 0 1 -.30849 -.796L4.052 2.911a3.081 3.081 0 0 1 .3466 -.88275c-.508.753-1.646 2.178-1.833 2.464a3.27036 3.27036 0 0 0 -.56538 1.43458v8.694a1.08727 1.08727 0 0 0 .33778 .964l2.091-2.798" fill="#cdf7a1"/><g fill="#59813c"><path d="m15.357 2.064l-.002.017"/><path d="M16.38962 4.59707a2.76068 2.76068 0 0 0 -.37179 -1.41252l-.42-.852a2.068 2.068 0 0 1 .08756 .57861l.069 9.08a1.24161 1.24161 0 0 1 -.24733 .747 2.86574 2.86574 0 0 1 -.41052 .35727c-.014.008-.027.018-.041.026a1.17658 1.17658 0 0 1 -.56807 .14671H5.408c-.02 0-.039-.006-.059-.007a1.201 1.201 0 0 1 -.47076 -.11833l-.006-.002a1.312 1.312 0 0 1 -.29623 -.20774 1.79725 1.79725 0 0 1 -.1453 -.17165s-1.679 2.279-2.092 2.824a1.65845 1.65845 0 0 0 .7026 .31205A5.57511 5.57511 0 0 0 4.0531 16H15.12a1.33417 1.33417 0 0 0 1.26172 -1.11258C16.391 14.767 16.39 4.597 16.39 4.597"/></g><path d="M14.39859 1.63158a1.3515 1.3515 0 0 1 1.35579 1.2793v9.08a1.26588 1.26588 0 0 1 -1.267 1.27678H5.408A1.35593 1.35593 0 0 1 4.05181 11.985v-9.07a1.26642 1.26642 0 0 1 1.267 -1.2793" fill="#9ae84f"/><circle cx="6.521" cy="5.464" r="1.632" fill="#fff"/><circle cx="6.521" cy="5.464" r=".5" fill="#020202"/><circle cx="13.453" cy="5.5" r="1.632" fill="#fff"/><circle cx="13.453" cy="5.5" r=".5" fill="#020202"/><rect x=".543" y="8" width="17.457" height="4" rx=".734" fill="#221f1f"/><g fill="#fff"><path d="m3.037 8.326l-1.443 3.348h.726l1.451-3.348h-.734"/><path d="m7.11 8.818l-2.22 1.144v.425l2.22 1.144v-.662l-1.385-.695 1.385-.694v-.662"/><path d="m9.328 10.482h.18l-.01-.274a.60273 .60273 0 0 1 .18239 -.4547 1.18772 1.18772 0 0 0 .37237 -.78021 .7311 .7311 0 0 0 -.81061 -.73208 1.17166 1.17166 0 0 0 -.651 .18745l-.1.073.217.564.172-.134a.52353 .52353 0 0 1 .29 -.08613c.209.004.209.12.209.171 0 .111-.061.223-.233.428a1.0442 1.0442 0 0 0 -.27865 .78654l.019.251h.155"/><path d="M12.41495,10.77452A.43474.43474,0,0,0,12,11.21866a.44289.44289,0,1,0,.88541,0,.42959.42959,0,0,0-.4145-.44414"/><path d="M9.24385,10.77452a.43474.43474,0,0,0-.41495.44414.44289.44289,0,1,0,.88541,0,.42959.42959,0,0,0-.4145-.44414"/><path d="m12.428 10.473h.298l.073-2.024h-.799l.07 2.024h.302"/><path d="m16.875 9.527l-.576.077.373-.491-.817-.462-.243.563-.25-.557-.819.469.364.472-.549-.071v.935l.553-.069-.362.463.783.493.268-.581.244.567.838-.478-.37-.464.563.067v-.933"/></g></svg>