<svg xmlns="http://www.w3.org/2000/svg" viewBox="0 0 16 16" xmlns:xlink="http://www.w3.org/1999/xlink"><path d="M3.36164 11.84308a1.21247 1.21247 0 0 1 -.29986 -.77377L2.994 2.244a2.99479 2.99479 0 0 1 .3369 -.85806C2.838 2.117 1.732 3.503 1.55 3.78a3.1789 3.1789 0 0 0 -.54956 1.39446V13.625a1.05686 1.05686 0 0 0 .32833 .937l2.033-2.719" fill="#c8c997" id="0"/><path d="M14.9872 3.88256a2.68347 2.68347 0 0 0 -.36139 -1.373l-.409-.828a2.01017 2.01017 0 0 1 .08512 .56243l.067 8.826a1.20689 1.20689 0 0 1 -.24041 .72606 2.78559 2.78559 0 0 1 -.399 .34728c-.014.008-.026.018-.04.025a1.14367 1.14367 0 0 1 -.55219 .1426H4.312c-.02 0-.038-.006-.058-.007a1.16739 1.16739 0 0 1 -.45759 -.115l-.006-.002a1.27527 1.27527 0 0 1 -.28795 -.20193 1.747 1.747 0 0 1 -.14123 -.16685s-1.632 2.215-2.033 2.745a1.61207 1.61207 0 0 0 .683 .30332 5.41919 5.41919 0 0 0 .98405 .10119H13.754a1.29685 1.29685 0 0 0 1.22643 -1.08146C14.988 13.768 14.987 3.883 14.987 3.883" fill="#7c7c66" id="1"/><path d="M13.05185 1a1.31371 1.31371 0 0 1 1.31787 1.24352v8.826a1.23048 1.23048 0 0 1 -1.23159 1.24107H4.312a1.318 1.318 0 0 1 -1.31785 -1.24655v-8.82A1.231 1.231 0 0 1 4.226 1" fill="#9a9b7b" id="2"/><use xlink:href="#0"/><use xlink:href="#1"/><use xlink:href="#2"/><path d="m3.164.793l-.038.049c.012-.011.028-.017.04-.027" fill="#fce481"/><g fill="#7c7c66"><circle cx="5.648" cy="5.352" r="1.648"/><circle cx="12.352" cy="5.352" r="1.648"/></g><g fill="#fff"><circle cx="11.219" cy="4.17" r="1.252"/><circle cx="6.748" cy="4.17" r="1.252"/></g><path d="M11,12.26739V9.483A2.28794,2.28794,0,0,0,9,7H9A2.28794,2.28794,0,0,0,7,9.483v2.78443" fill="#020202"/><g fill="#fdd810"><path d="m10.394 11.709c-.026-.776-.011-2.212-.911-2.445a1.40743 1.40743 0 0 0 -1.86439 1.04771c-.138.622-.5 5.02.208 5.278.64.231.94-.724 1.108-1.434a.41715 .41715 0 0 0 .50435 .20044c.214-.078.384-.997.402-1.115.598-.412.578-.799.554-1.531"/><path d="m11.06 15.07c.077.282-.215.539-.507.551s-.605-.22-.551-.507a7.02789 7.02789 0 0 1 .48423 -1.11548 7.02789 7.02789 0 0 1 .57419 1.0719"/></g></svg>