<svg xmlns="http://www.w3.org/2000/svg" viewBox="0 0 18 18"><path d="M4.37438 13.84308a1.21247 1.21247 0 0 1 -.29986 -.77377L4.01 4.244a2.99479 2.99479 0 0 1 .3369 -.85806C3.851 4.117 2.744 5.503 2.563 5.78a3.1789 3.1789 0 0 0 -.54956 1.39446V15.625a1.05686 1.05686 0 0 0 .32833 .937L4.374 13.843" fill="#fce481"/><path d="M15.99993 5.88256a2.68347 2.68347 0 0 0 -.36139 -1.373L15.23 3.681a2.01017 2.01017 0 0 1 .08512 .56243l.067 8.826a1.20689 1.20689 0 0 1 -.24041 .72606 2.78559 2.78559 0 0 1 -.399 .34728c-.014.008-.026.018-.04.025a1.14367 1.14367 0 0 1 -.55219 .1426H5.325c-.02 0-.038-.006-.058-.007a1.16739 1.16739 0 0 1 -.45759 -.115l-.006-.002a1.27527 1.27527 0 0 1 -.28795 -.20193 1.747 1.747 0 0 1 -.14123 -.16685s-1.632 2.215-2.033 2.745a1.61207 1.61207 0 0 0 .683 .30332 5.41919 5.41919 0 0 0 .98405 .10119H14.767a1.29685 1.29685 0 0 0 1.22643 -1.08146C16 15.768 16 5.883 16 5.883" fill="#c4aa10"/><path d="M14.06459 3a1.31371 1.31371 0 0 1 1.31787 1.24352v8.826a1.23048 1.23048 0 0 1 -1.23159 1.24107H5.325a1.318 1.318 0 0 1 -1.31785 -1.24655v-8.82A1.231 1.231 0 0 1 5.23877 3" fill="#fdd810"/><path d="m5.374 3.162l-.038.049c.012-.011.028-.017.04-.027" fill="#fce481"/><path fill="#c4aa10" d="m16.373 3.436l-.002.017"/><path d="M15.15332,5.38086a.4998.4998,0,0,1-.457-.29687.96622.96622,0,0,0-.40723-.44727,1.22538,1.22538,0,0,0-.82324-.06934.50051.50051,0,0,1-.14648-.99023,2.18353,2.18353,0,0,1,1.46191.18945,1.95768,1.95768,0,0,1,.8291.91113.49986.49986,0,0,1-.457.70313Z"/><path d="m12.381 5.059l-8.854 11.802s-1.353.042-1.492-.789c-.168-1.01 0-9.781 0-9.781l8.794-2.268.073.85" fill="#c4aa10"/><path d="M14.15332,8.6875a1.50164,1.50164,0,0,1-1.5-1.5.5.5,0,1,1,1,0,.5.5,0,0,0,1,0,.5.5,0,1,1,1,0A1.50164,1.50164,0,0,1,14.15332,8.6875Z"/><path d="M10.15332,13.6875a2.50232,2.50232,0,0,1-2.5-2.5.5.5,0,0,1,1,0,1.5,1.5,0,1,0,3,0,.5.5,0,0,1,1,0A2.50232,2.50232,0,0,1,10.15332,13.6875Z"/><path d="M8.5067 8.70332a.97268 .97268 0 0 0 -.48042 -.85411 1.16609 1.16609 0 0 0 .82367 -1.0741A.86263 .86263 0 0 0 8.13179 5.95l3.099-.051a.91162 .91162 0 0 0 .83995 -1.042 .90918 .90918 0 0 0 -.89775 -.8342L6.364 3.574l4.656-.85a.9584 .9584 0 0 0 .57433 -1.24c-.158-.458-.524-.54-1.06-.56 0 0-5.135.473-5.894.561C2.672 1.713.457 2.819.457 5.519A4.01384 4.01384 0 0 0 4.69729 9.66635H7.629A.92348 .92348 0 0 0 8.5067 8.70332" fill="#fff"/><g fill="#c4aa10"><path d="m7.629 10.166h-2.932a4.49129 4.49129 0 0 1 -4.74027 -4.64647c0-2.945 2.39-4.272 4.626-4.532.757-.087 5.696-.542 5.906-.562a1.47518 1.47518 0 0 1 1.57813 .89453 1.52039 1.52039 0 0 1 -.08105 1.18555 1.36022 1.36022 0 0 1 -.82227 .69629l-1.146.211 1.202.111h.02a1.4033 1.4033 0 0 1 1.3291 1.2832 1.497 1.497 0 0 1 -.36523 1.14355 1.311 1.311 0 0 1 -.96582 .44727l-1.931.032a1.21756 1.21756 0 0 1 .042 .3623 1.60517 1.60517 0 0 1 -.53613 1.166 1.50872 1.50872 0 0 1 .19336 .74414 1.424 1.424 0 0 1 -1.37794 1.46289m2.887-8.742c.014.003-5.072.471-5.817.558-.878.102-3.741.657-3.741 3.538a3.49754 3.49754 0 0 0 3.74027 3.64647h2.932a.42792 .42792 0 0 0 .37793 -.46289 .46947 .46947 0 0 0 -.22461 -.417 .50056 .50056 0 0 1 .11133 -.91895 .64735 .64735 0 0 0 .45605 -.6084c.006-.155-.161-.286-.318-.319a.49973 .49973 0 0 1 .09175 -.98922l3.1-.052a.33 .33 0 0 0 .23633 -.11426 .4929 .4929 0 0 0 .11426 -.37891 .40851 .40851 0 0 0 -.38867 -.38281h-.004l-4.863-.45a.50026 .50026 0 0 1 -.043 -.99023l4.656-.851a.41659 .41659 0 0 0 .166 -.18164 .52017 .52017 0 0 0 .02539 -.40332c-.042-.122-.07-.202-.606-.223"/><path d="m8.121 6.462h-1.972a.5 .5 0 0 1 0 -1h1.972a.5 .5 0 0 1 0 1"/><path d="m8.03 8.35h-1.993a.5 .5 0 0 1 0 -1h1.993a.5 .5 0 0 1 0 1"/></g></svg>