<svg xmlns="http://www.w3.org/2000/svg" viewBox="0 0 16 16"><path d="M3.37438 11.84308a1.21247 1.21247 0 0 1 -.29986 -.77377L3.01 2.244a2.99479 2.99479 0 0 1 .3369 -.85806C2.851 2.117 1.744 3.503 1.563 3.78a3.1789 3.1789 0 0 0 -.54956 1.39446V13.625a1.05686 1.05686 0 0 0 .32833 .937L3.374 11.843" fill="#a5e2f9"/><path d="M14.99993 3.88256a2.68347 2.68347 0 0 0 -.36139 -1.373L14.23 1.681a2.01017 2.01017 0 0 1 .08512 .56243l.067 8.826a1.20689 1.20689 0 0 1 -.24041 .72606 2.78559 2.78559 0 0 1 -.399 .34728c-.014.008-.026.018-.04.025a1.14367 1.14367 0 0 1 -.55219 .1426H4.325c-.02 0-.038-.006-.058-.007a1.16739 1.16739 0 0 1 -.45759 -.115l-.006-.002a1.27527 1.27527 0 0 1 -.28795 -.20193 1.747 1.747 0 0 1 -.14123 -.16685s-1.632 2.215-2.033 2.745a1.61207 1.61207 0 0 0 .683 .30332 5.41919 5.41919 0 0 0 .98405 .10119H13.767a1.29685 1.29685 0 0 0 1.22643 -1.08146C15 13.768 15 3.883 15 3.883" fill="#5597b8"/><path d="M13.06459 1a1.31371 1.31371 0 0 1 1.31787 1.24352v8.826a1.23048 1.23048 0 0 1 -1.23159 1.24107H4.325a1.318 1.318 0 0 1 -1.31785 -1.24655v-8.82A1.231 1.231 0 0 1 4.23877 1" fill="#69c6f4"/><path d="m3.164 1.088l-.038.049c.012-.011.028-.017.04-.027" fill="#fce481"/><path d="M6.38184,6.187a11.87293,11.87293,0,0,1-1.55957-.11816.5.5,0,0,1,.13965-.99023,6.19178,6.19178,0,0,0,2.35254-.00586.66337.66337,0,0,0,.30664-.37354A.507.507,0,0,1,8.22363,4.335a.49471.49471,0,0,1,.37207.58691,1.64421,1.64421,0,0,1-.792,1.02295A3.18574,3.18574,0,0,1,6.38184,6.187Z"/><path d="M11.61816,6.187a3.17862,3.17862,0,0,1-1.4209-.24219,1.64335,1.64335,0,0,1-.793-1.02295.49977.49977,0,0,1,.97461-.22168.66069.66069,0,0,0,.30762.37256,6.122,6.122,0,0,0,2.35059.00586.50008.50008,0,0,1,.14063.99023A11.888,11.888,0,0,1,11.61816,6.187Z"/><path d="M10.791,11.30176a.49971.49971,0,0,1-.5-.5,1.30884,1.30884,0,0,0-2.61133,0,.5.5,0,0,1-1,0,2.30741,2.30741,0,0,1,4.61133,0A.49971.49971,0,0,1,10.791,11.30176Z"/><g fill="#fff"><path d="m5 6.313h3v8.979h-3z"/><path d="m10 6.864h3v8.428h-3z"/><rect x="4.439" y="6" width="4.122" height="1" rx=".483"/><rect x="9.439" y="6" width="4.122" height="1" rx=".483"/></g><path d="M14,3.5a.49685.49685,0,0,1-.35059-.14355h0A3.89929,3.89929,0,0,0,11,2.5a.5.5,0,0,1,0-1,4.86765,4.86765,0,0,1,3.35352,1.14648A.5.5,0,0,1,14,3.5Z"/><path d="M4.001,3.498a.49951.49951,0,0,1-.35449-.85156A4.86765,4.86765,0,0,1,7,1.5a.5.5,0,0,1,0,1,3.89929,3.89929,0,0,0-2.64941.85645A.50227.50227,0,0,1,4.001,3.498Z"/></svg>