<svg xmlns="http://www.w3.org/2000/svg" viewBox="0 0 18 18"><path d="M4.368 14.87649a1.21247 1.21247 0 0 1 -.29986 -.77377L4 5.277a2.99479 2.99479 0 0 1 .3369 -.85806c-.493.732-1.6 2.118-1.781 2.395A3.1789 3.1789 0 0 0 2.00672 8.208v8.45a1.05686 1.05686 0 0 0 .32833 .937L4.368 14.876" fill="#fce481"/><path d="M15.99357 6.916a2.68347 2.68347 0 0 0 -.36139 -1.373l-.409-.828a2.01017 2.01017 0 0 1 .08512 .56243l.067 8.826a1.20689 1.20689 0 0 1 -.24041 .72606 2.78559 2.78559 0 0 1 -.399 .34728c-.014.008-.026.018-.04.025a1.14367 1.14367 0 0 1 -.55219 .1426H5.319c-.02 0-.038-.006-.058-.007a1.16739 1.16739 0 0 1 -.45759 -.115l-.006-.002a1.27527 1.27527 0 0 1 -.28795 -.20193 1.747 1.747 0 0 1 -.14123 -.16685S2.736 17.07 2.335 17.595a1.61207 1.61207 0 0 0 .683 .30332A5.41919 5.41919 0 0 0 4.00206 18H14.76a1.29685 1.29685 0 0 0 1.22643 -1.08146C15.995 16.802 15.994 6.916 15.994 6.916" fill="#c4aa10"/><path d="M14.05822 4.03341a1.31371 1.31371 0 0 1 1.31787 1.24352v8.826a1.23048 1.23048 0 0 1 -1.23159 1.24107H5.319A1.318 1.318 0 0 1 4.0008 14.09726v-8.82A1.231 1.231 0 0 1 5.23241 4.03341" fill="#fdd810"/><path d="M6.80469,9.5a1.50164,1.50164,0,0,1-1.5-1.5.5.5,0,0,1,1,0,.5.5,0,0,0,1,0,.5.5,0,0,1,1,0A1.50164,1.50164,0,0,1,6.80469,9.5Z"/><path d="M12.80469,9.5a1.50164,1.50164,0,0,1-1.5-1.5.5.5,0,0,1,1,0,.5.5,0,0,0,1,0,.5.5,0,0,1,1,0A1.50164,1.50164,0,0,1,12.80469,9.5Z"/><path d="M9.80469,14.5a2.50232,2.50232,0,0,1-2.5-2.5.5.5,0,0,1,1,0,1.5,1.5,0,0,0,3,0,.5.5,0,0,1,1,0A2.50232,2.50232,0,0,1,9.80469,14.5Z"/><path d="M13.03782 2.41515a12.48616 12.48616 0 0 0 -3.31338 -.42249 12.48616 12.48616 0 0 0 -3.3189 .37666c-.528.148-1.931.542-1.941 1.927S5.853 6.094 6.379 6.249a12.48253 12.48253 0 0 0 3.31342 .42259 12.482 12.482 0 0 0 3.3189 -.37676c.528-.148 1.931-.542 1.941-1.927S13.564 2.571 13.04 2.415M9.699 5.616c-2.46-.017-4.451-.606-4.446-1.314S7.257 3.03 9.717 3.049s4.451.606 4.446 1.314S12.16 5.633 9.699 5.616" fill="#c4aa10"/><path d="M13.03782.82919A12.48616 12.48616 0 0 0 9.72444 .40671a12.48616 12.48616 0 0 0 -3.3189 .37666c-.528.148-1.931.542-1.941 1.927S5.853 4.508 6.379 4.663a12.48253 12.48253 0 0 0 3.31342 .42259 12.482 12.482 0 0 0 3.3189 -.37676c.528-.148 1.931-.542 1.941-1.927S13.564.985 13.04.829M9.699 4.03C7.239 4.01 5.248 3.424 5.253 2.716S7.257 1.446 9.717 1.463s4.451.606 4.446 1.314S12.16 4.047 9.699 4.03" fill="#69c6f4"/></svg>