<svg xmlns="http://www.w3.org/2000/svg" viewBox="0 0 18 18"><g fill="#f9db17" stroke="#c9b220" stroke-linejoin="round" stroke-linecap="round"><path d="M13.77735,8.5476V5.82338a1.13366,1.13366,0,0,0-.9356-1.06555.95218.95218,0,0,0-1.0455.94752V4.01758a.97963.97963,0,0,0-.85848-.98843.95218.95218,0,0,0-1.04551.94752V1.9899a.97961.97961,0,0,0-.85847-.98842.95218.95218,0,0,0-1.0455.94752v1.1932a.95218.95218,0,0,0-1.0455-.94751.97961.97961,0,0,0-.85847.98842V8.54954a.94845.94845,0,0,0-1.05949-.67467.97663.97663,0,0,0-.80218.97708v3.41084A4.7402,4.7402,0,0,0,8.96284,17.003h0a4.7402,4.7402,0,0,0,4.7402-4.7402Z"/><path d="m6.084 8.47l.033 3.167s3.422-.453 4.141 1.391"/><path d="m7.985 2.427v5.578"/><path d="m9.899 2.357v5.578"/><path d="m11.821 4.955v2.979"/></g></svg>