<svg xmlns="http://www.w3.org/2000/svg" viewBox="0 0 18 18"><path d="M4.35355 13.84653a1.21247 1.21247 0 0 1 -.29986 -.77377L3.986 4.247a2.99479 2.99479 0 0 1 .3369 -.85806c-.493.732-1.6 2.118-1.781 2.395A3.1789 3.1789 0 0 0 1.99226 7.178v8.45a1.05686 1.05686 0 0 0 .32833 .937l2.033-2.719" fill="#b8c2c4"/><path d="M15.9791 5.886a2.68347 2.68347 0 0 0 -.36139 -1.373l-.409-.828a2.01017 2.01017 0 0 1 .08512 .56243l.067 8.826a1.20689 1.20689 0 0 1 -.24041 .72606 2.78559 2.78559 0 0 1 -.399 .34728c-.014.008-.026.018-.04.025a1.14367 1.14367 0 0 1 -.55219 .1426H5.304c-.02 0-.038-.006-.058-.007a1.16739 1.16739 0 0 1 -.45759 -.115l-.006-.002a1.27527 1.27527 0 0 1 -.28795 -.20193 1.747 1.747 0 0 1 -.14123 -.16685S2.722 16.04 2.321 16.566a1.61207 1.61207 0 0 0 .683 .30332 5.41919 5.41919 0 0 0 .98405 .10119H14.746a1.29685 1.29685 0 0 0 1.22643 -1.08146C15.98 15.772 15.979 5.886 15.979 5.886" fill="#656868"/><g fill="#909596"><path d="M14.04376 3.00345A1.31371 1.31371 0 0 1 15.36163 4.247v8.826A1.23048 1.23048 0 0 1 14.13 14.31385H5.304A1.318 1.318 0 0 1 3.98634 13.0673v-8.82A1.231 1.231 0 0 1 5.21794 3.00345"/><path d="m7.986 3l-3.286-2.465a.44613 .44613 0 0 0 -.7138 .3569v4.108h3"/><path d="m11.362 3l3.286-2.465a.44613 .44613 0 0 1 .7138 .3569v4.108h-3"/></g><g fill="#231f20"><path d="M11.152 12.91828a1.64048 1.64048 0 0 1 -.376 -.04395c-1.191-.281-1.733-1.813-1.792-1.986a.51085 .51085 0 0 1 -.02539 -.1582v-2a.5 .5 0 0 1 1 0v1.912c.136.354.533 1.139 1.049 1.26.304.065.678-.106 1.098-.525a.49995 .49995 0 0 1 .707 .707A2.40461 2.40461 0 0 1 11.152 12.91828"/><path d="M7.7653 12.91828a2.40461 2.40461 0 0 1 -1.66016 -.835 .49995 .49995 0 0 1 .707 -.707c.42.42.789.595 1.098.525.516-.121.913-.905 1.049-1.26V8.73a.5 .5 0 0 1 1 0v2a.51085 .51085 0 0 1 -.02539 .1582c-.059.174-.601 1.705-1.792 1.986A1.64048 1.64048 0 0 1 7.7653 12.91828"/></g><path d="m8.458 8.209h2l-.465 1.146a.64234 .64234 0 0 1 -1.07055 0" fill="#f7b3d1"/><circle cx="5.958" cy="7.384" r="2.5" fill="#fff"/><path d="M5.95866 10.3841a3 3 0 1 1 3 -3A3.00328 3.00328 0 0 1 5.95866 10.3841m0-5a2 2 0 1 0 2 2A2.00261 2.00261 0 0 0 5.95866 5.3841" fill="#231f20"/><path d="m8.458 6.884s.167-.479 1-.479 1 .479 1 .479" fill="#fff"/><path d="m8.919 7.079l-.933-.359a1.417 1.417 0 0 1 1.47266 -.81543 1.417 1.417 0 0 1 1.47266 .81543l-.945.328v.003a.70787 .70787 0 0 0 -.52832 -.14648c-.438 0-.536.168-.54.175" fill="#231f20"/><circle cx="12.958" cy="7.384" r="2.5" fill="#fff"/><path d="M12.95866 10.3841a3 3 0 1 1 3 -3A3.00328 3.00328 0 0 1 12.95866 10.3841m0-5a2 2 0 1 0 2 2A2.00261 2.00261 0 0 0 12.95866 5.3841" fill="#231f20"/><g fill="#ed3b3b"><path d="M8.79331 6.03493a1.42424 1.42424 0 0 0 -.90277 -1.07248c-.842-.319-1.52.386-1.859 1.22A1.2869 1.2869 0 0 0 5.95843 6.46a1.287 1.287 0 0 0 -.07295 -.27737c-.339-.834-1.018-1.54-1.859-1.22a1.42424 1.42424 0 0 0 -.90277 1.07248A2.2082 2.2082 0 0 0 3.7342 8.09065c.338.343.704.659 1.062.982.385.348.776.691 1.162 1.034.387-.343.777-.686 1.163-1.034.358-.323.724-.639 1.062-.982A2.2082 2.2082 0 0 0 8.79331 6.03493"/><path d="M15.79331 6.03493a1.42424 1.42424 0 0 0 -.90277 -1.07248c-.842-.319-1.52.386-1.859 1.22a1.2869 1.2869 0 0 0 -.07286 .27737 1.287 1.287 0 0 0 -.07295 -.27737c-.339-.834-1.018-1.54-1.859-1.22a1.42424 1.42424 0 0 0 -.90277 1.07248 2.2082 2.2082 0 0 0 .61064 2.05571c.338.343.704.659 1.062.982.385.348.776.691 1.162 1.034.387-.343.777-.686 1.163-1.034.358-.323.724-.639 1.062-.982A2.2082 2.2082 0 0 0 15.79331 6.03493"/></g></svg>