<svg xmlns="http://www.w3.org/2000/svg" viewBox="0 0 19.54117 20"><path d="M8.86 2.242a.823.823 0 0 0-.871.76s.04 4.505-.707 6.313c-.223.874-1.157 4.405-1.157 4.405s1.496-.49 2.361-.867a2.272 2.272 0 0 0 1.244-2.17V3.002a.823.823 0 0 0-.87-.759z" fill="#f9db17" stroke="#c9b220" stroke-linecap="round" stroke-linejoin="round"/><path d="M8.824 3.898a.832.832 0 0 0-.885.76 26.52 26.52 0 0 1-1.055 5.915 47.413 47.413 0 0 0-.84 4.803s1.52-.49 2.4-.867a2.261 2.261 0 0 0 1.265-2.17V4.658a.832.832 0 0 0-.885-.759z" fill="#f9db17" stroke="#c9b220" stroke-linecap="round" stroke-linejoin="round"/><path d="M8.878 5.645a.798.798 0 0 0-.827.759s-.34 1.485-.82 3.102c-.635 2.134-.913 2.83-1.058 3.396-.459.543-1.826 1.888-2.132 2.2l2.238 2.02s1.422-.49 2.244-.866a2.311 2.311 0 0 0 1.182-2.17V6.404a.798.798 0 0 0-.827-.76z" fill="#f9db17"/><path d="M6.28 17.123s1.42-.491 2.243-.867a2.311 2.311 0 0 0 1.182-2.17V6.404a.798.798 0 0 0-.827-.76c-.455 0-.62.338-.827.76a31.776 31.776 0 0 0-1.158 3.171 22.86 22.86 0 0 0-.72 3.327c-.459.543-1.826 1.888-2.132 2.2" fill="#f9db17" stroke="#c9b220" stroke-linecap="round" stroke-linejoin="round"/><path fill="#59bfec" stroke="#59bfec" stroke-linecap="round" stroke-linejoin="round" stroke-width=".5" d="M3.957 14.268l-2.709 2.139v2.346h4.878l1.157-1.158-3.326-3.327z"/><path d="M10.676 2.242a.823.823 0 0 1 .87.76s-.039 4.505.707 6.313c.223.874 1.158 4.405 1.158 4.405s-1.497-.49-2.362-.867a2.272 2.272 0 0 1-1.244-2.17V3.002a.823.823 0 0 1 .87-.759z" fill="#f9db17" stroke="#c9b220" stroke-linecap="round" stroke-linejoin="round"/><path d="M10.71 3.898a.832.832 0 0 1 .886.76 26.52 26.52 0 0 0 1.055 5.915 47.413 47.413 0 0 1 .84 4.803s-1.52-.49-2.4-.867a2.261 2.261 0 0 1-1.265-2.17V4.658a.832.832 0 0 1 .885-.759z" fill="#f9db17" stroke="#c9b220" stroke-linecap="round" stroke-linejoin="round"/><path d="M10.657 5.645a.798.798 0 0 1 .828.759s.339 1.485.82 3.102c.634 2.134.912 2.83 1.057 3.396.459.543 1.826 1.888 2.132 2.2l-2.238 2.02s-1.422-.49-2.244-.866a2.311 2.311 0 0 1-1.182-2.17V6.404a.798.798 0 0 1 .827-.76z" fill="#f9db17"/><path d="M13.256 17.123s-1.422-.491-2.244-.867a2.311 2.311 0 0 1-1.182-2.17V6.404a.798.798 0 0 1 .827-.76c.455 0 .62.338.828.76a31.776 31.776 0 0 1 1.157 3.171 22.86 22.86 0 0 1 .72 3.327c.46.543 1.826 1.888 2.132 2.2" fill="#f9db17" stroke="#c9b220" stroke-linecap="round" stroke-linejoin="round"/><path fill="#59bfec" stroke="#59bfec" stroke-linecap="round" stroke-linejoin="round" stroke-width=".5" d="M15.579 14.268l2.708 2.139v2.346h-4.878l-1.157-1.158 3.327-3.327z"/></svg>