<svg xmlns="http://www.w3.org/2000/svg" viewBox="0 0 16 16"><path d="M3.3725 11.84308a1.21247 1.21247 0 0 1 -.29986 -.77377L3.01 2.244a2.99479 2.99479 0 0 1 .3369 -.85806C2.849 2.117 1.743 3.503 1.561 3.78a3.1789 3.1789 0 0 0 -.54956 1.39446V13.625a1.05686 1.05686 0 0 0 .32833 .937l2.033-2.719" fill="#fce481"/><path d="M14.99805 3.88256a2.68347 2.68347 0 0 0 -.36139 -1.373l-.409-.828a2.01017 2.01017 0 0 1 .08512 .56243l.067 8.826a1.20689 1.20689 0 0 1 -.24041 .72606 2.78559 2.78559 0 0 1 -.399 .34728c-.014.008-.026.018-.04.025a1.14367 1.14367 0 0 1 -.55219 .1426H4.323c-.02 0-.038-.006-.058-.007a1.16739 1.16739 0 0 1 -.45759 -.115l-.006-.002a1.27527 1.27527 0 0 1 -.28795 -.20193 1.747 1.747 0 0 1 -.14123 -.16685s-1.632 2.215-2.033 2.745a1.61207 1.61207 0 0 0 .683 .30332 5.41919 5.41919 0 0 0 .98405 .10119H13.765a1.29685 1.29685 0 0 0 1.22643 -1.08146C14.999 13.768 14.998 3.883 14.998 3.883" fill="#c4aa10"/><path d="M13.0627 1a1.31371 1.31371 0 0 1 1.31787 1.24352v8.826a1.23048 1.23048 0 0 1 -1.23159 1.24107H4.323a1.318 1.318 0 0 1 -1.31785 -1.24655v-8.82A1.231 1.231 0 0 1 4.23689 1" fill="#fdd810"/><path fill="#c4aa10" d="m14.355 1.064l-.002.017"/><path d="m3.357.791l-.038.049c.012-.011.028-.017.04-.027" fill="#fce481"/><path d="M4.087,2.71a.5.5,0,0,1-.34766-.85937A2.6463,2.6463,0,0,1,7.21687,1.6748.5.5,0,0,1,6.59773,2.46a1.644,1.644,0,0,0-2.16309.10938A.49882.49882,0,0,1,4.087,2.71Z"/><path d="M13.668,2.71a.49786.49786,0,0,1-.34863-.1416A1.64449,1.64449,0,0,0,11.1573,2.46a.5.5,0,0,1-.61914-.78516,2.64625,2.64625,0,0,1,3.47852.17676A.5.5,0,0,1,13.668,2.71Z"/><circle cx="5.497" cy="5.523" r="2.179" fill="#fff"/><circle cx="5.497" cy="5.523" r=".768"/><circle cx="12.258" cy="5.523" r="2.179" fill="#fff"/><circle cx="12.258" cy="5.523" r=".768"/><rect x="6.998" y="10" width="4" height="1" rx=".447"/></svg>