<svg xmlns="http://www.w3.org/2000/svg" viewBox="0 0 16 16"><g fill="#f9db17" stroke="#c9b220" stroke-linejoin="round" stroke-linecap="round"><path d="M14.46657 6.16445a1.15278 1.15278 0 0 1 -1.16706 1.014h-.453a1.11378 1.11378 0 0 1 1.10923 1.21333 1.15278 1.15278 0 0 1 -1.16706 1.01391H9.93l-1.218.002s1.047 2.542 1.437 3.357c.479 1-.436 3.294-1.771 2.734-1-.42-.545-1.559-.667-2.234A5.75336 5.75336 0 0 0 5.7771 10.42083 5.75441 5.75441 0 0 0 2.44978 9.4033c-.511.006-.909.011-.909.011a.01141 .01141 0 0 1 -.01142 -.01142V1.901a.01146 .01146 0 0 1 .01142 -.01142H4.822a2.07333 2.07333 0 0 0 1.22519 -.36555A5.59891 5.59891 0 0 1 9.3491 .447l2.55-.032a1.18472 1.18472 0 0 1 1.10837 1.3045c-.055.579-.575 1-1.577 1H12.831a1.11384 1.11384 0 0 1 1.10837 1.223 1.14592 1.14592 0 0 1 -1.15621 1.0042h.574A1.11385 1.11385 0 0 1 14.46657 6.16445"/><path d="m11.386 7.152h1.851"/><path d="m11.386 4.952h1.851"/><path d="m11.386 2.717h1.47"/></g></svg>