<svg xmlns="http://www.w3.org/2000/svg" viewBox="0 0 16 16"><path d="M3.3725 11.87649a1.21247 1.21247 0 0 1 -.29986 -.77377L3.01 2.277a2.99479 2.99479 0 0 1 .3369 -.85806c-.493.732-1.6 2.118-1.781 2.395A3.1789 3.1789 0 0 0 1.01121 5.208v8.45a1.05686 1.05686 0 0 0 .32833 .937l2.033-2.719" fill="#ff7878"/><path d="M14.99805 3.916a2.68347 2.68347 0 0 0 -.36139 -1.373l-.409-.828a2.01017 2.01017 0 0 1 .08512 .56243l.067 8.826a1.20689 1.20689 0 0 1 -.24041 .72606 2.78559 2.78559 0 0 1 -.399 .34728c-.014.008-.026.018-.04.025a1.14367 1.14367 0 0 1 -.55219 .1426H4.323c-.02 0-.038-.006-.058-.007a1.16739 1.16739 0 0 1 -.45759 -.115l-.006-.002a1.27527 1.27527 0 0 1 -.28795 -.20193 1.747 1.747 0 0 1 -.14123 -.16685S1.741 14.07 1.34 14.595a1.61207 1.61207 0 0 0 .683 .30332A5.41919 5.41919 0 0 0 3.00654 15H13.765a1.29685 1.29685 0 0 0 1.22643 -1.08146C14.999 13.802 14.998 3.916 14.998 3.916" fill="#c52f30"/><path d="M13.0627 1.03341a1.31371 1.31371 0 0 1 1.31787 1.24352v8.826a1.23048 1.23048 0 0 1 -1.23159 1.24107H4.323a1.318 1.318 0 0 1 -1.31785 -1.24655v-8.82A1.231 1.231 0 0 1 4.23689 1.03341" fill="#ed3b3b"/><path fill="#c52f30" d="m7.993 8.01l-.002.017"/><path d="m8.01 7.993l-.037.048c.012-.01.027-.017.039-.027" fill="#fce481"/><path d="m12.469 6.917c-1.13 0-2.225 1.411-3.894 1.411s-2.764-1.411-3.895-1.411c-.561 0-.799.898-.627 1.369a3.858 3.858 0 0 0 1.5274 1.69662 5.80581 5.80581 0 0 0 2.9942 1.04155 5.88369 5.88369 0 0 0 2.98975 -1.03222 3.71509 3.71509 0 0 0 1.53191 -1.706c.16-.475-.067-1.369-.627-1.369"/><g fill="#fff"><path d="m11.805 8.02v-.954a8.23912 8.23912 0 0 1 -3.23023 .8572 8.27782 8.27782 0 0 1 -3.23473 -.85889v.955a1.03739 1.03739 0 0 0 1.03739 1.03739h4.39a1.03739 1.03739 0 0 0 1.03738 -1.03739"/><path d="m5.58 9.591c-.166-.065 0 .392 0 .392a5.80581 5.80581 0 0 0 2.9942 1.04155 5.88369 5.88369 0 0 0 2.9897 -1.03223s.097-.426 0-.401a17.09558 17.09558 0 0 1 -5.9839 .00004"/><path d="M5.90456,3.40214a2.5391,2.5391,0,0,1-.98034-.52939,1.66709,1.66709,0,1,0,2.19936.56617A2.549,2.549,0,0,1,5.90456,3.40214Z"/></g><g fill="#020202"><circle cx="5.799" cy="4.412" r=".588" transform="matrix(.70711-.70711.70711.70711-1.421 5.392)"/><path d="M6.61568,4.12A2.93089,2.93089,0,0,1,4.04226,2.5898.36444.36444,0,0,1,4.683,2.24237,2.19608,2.19608,0,0,0,7.39311,3.24668a.36475.36475,0,0,1,.26009.68156A2.90186,2.90186,0,0,1,6.61568,4.12Z"/></g><path d="M11.24,3.40214a2.5391,2.5391,0,0,0,.98034-.52939,1.66709,1.66709,0,1,1-2.19936.56617A2.549,2.549,0,0,0,11.24,3.40214Z" fill="#fff"/><g fill="#020202"><circle cx="11.346" cy="4.412" r=".588" transform="matrix(.70711-.70711.70711.70711.204 9.315)"/><path d="M10.52889,4.12A2.93089,2.93089,0,0,0,13.10231,2.5898a.36444.36444,0,0,0-.64074-.34743A2.19608,2.19608,0,0,1,9.75145,3.24668a.36475.36475,0,1,0-.26009.68156A2.90186,2.90186,0,0,0,10.52889,4.12Z"/></g></svg>