<svg xmlns="http://www.w3.org/2000/svg" viewBox="0 0 16 16"><path d="M3.37438 11.84308a1.21247 1.21247 0 0 1 -.29986 -.77377L3.01 2.244a2.99479 2.99479 0 0 1 .3369 -.85806C2.851 2.117 1.744 3.503 1.563 3.78a3.1789 3.1789 0 0 0 -.54956 1.39446V13.625a1.05686 1.05686 0 0 0 .32833 .937L3.374 11.843" fill="#fce481"/><path d="M14.99993 3.88256a2.68347 2.68347 0 0 0 -.36139 -1.373L14.23 1.681a2.01017 2.01017 0 0 1 .08512 .56243l.067 8.826a1.20689 1.20689 0 0 1 -.24041 .72606 2.78559 2.78559 0 0 1 -.399 .34728c-.014.008-.026.018-.04.025a1.14367 1.14367 0 0 1 -.55219 .1426H4.325c-.02 0-.038-.006-.058-.007a1.16739 1.16739 0 0 1 -.45759 -.115l-.006-.002a1.27527 1.27527 0 0 1 -.28795 -.20193 1.747 1.747 0 0 1 -.14123 -.16685s-1.632 2.215-2.033 2.745a1.61207 1.61207 0 0 0 .683 .30332 5.41919 5.41919 0 0 0 .98405 .10119H13.767a1.29685 1.29685 0 0 0 1.22643 -1.08146C15 13.768 15 3.883 15 3.883" fill="#c4aa10"/><path d="M13.06459 1a1.31371 1.31371 0 0 1 1.31787 1.24352v8.826a1.23048 1.23048 0 0 1 -1.23159 1.24107H4.325a1.318 1.318 0 0 1 -1.31785 -1.24655v-8.82A1.231 1.231 0 0 1 4.23877 1" fill="#fdd810"/><path d="M6,6.5A1.50164,1.50164,0,0,1,4.5,5a.5.5,0,0,1,1,0,.5.5,0,0,0,1,0,.5.5,0,0,1,1,0A1.50164,1.50164,0,0,1,6,6.5Z"/><path d="M12,6.5A1.50164,1.50164,0,0,1,10.5,5a.5.5,0,0,1,1,0,.5.5,0,0,0,1,0,.5.5,0,0,1,1,0A1.50164,1.50164,0,0,1,12,6.5Z"/><path d="M4.001,3.498a.49951.49951,0,0,1-.35449-.85156A4.86765,4.86765,0,0,1,7,1.5a.5.5,0,0,1,0,1,3.89929,3.89929,0,0,0-2.64941.85645A.50444.50444,0,0,1,4.001,3.498Z"/><path d="M14,3.5a.49685.49685,0,0,1-.35059-.14355h0A3.89929,3.89929,0,0,0,11,2.5a.5.5,0,0,1,0-1,4.86765,4.86765,0,0,1,3.35352,1.14648A.5.5,0,0,1,14,3.5Z"/><path d="M9,11.5A2.50232,2.50232,0,0,1,6.5,9a.5.5,0,0,1,1,0,1.5,1.5,0,0,0,3,0,.5.5,0,0,1,1,0A2.50232,2.50232,0,0,1,9,11.5Z"/></svg>