<svg xmlns="http://www.w3.org/2000/svg" viewBox="0 0 18 18"><path d="M5.36164 11.84308a1.21247 1.21247 0 0 1 -.29986 -.77377L4.994 2.244a2.99479 2.99479 0 0 1 .3369 -.85806C4.838 2.117 3.732 3.503 3.55 3.78a3.1789 3.1789 0 0 0 -.54956 1.39446V13.625a1.05686 1.05686 0 0 0 .32833 .937l2.033-2.719" fill="#cdf7a1"/><path d="M16.9872 3.88256a2.68347 2.68347 0 0 0 -.36139 -1.373l-.409-.828a2.01017 2.01017 0 0 1 .08512 .56243l.067 8.826a1.20689 1.20689 0 0 1 -.24041 .72606 2.78559 2.78559 0 0 1 -.399 .34728c-.014.008-.026.018-.04.025a1.14367 1.14367 0 0 1 -.55219 .1426H6.312c-.02 0-.038-.006-.058-.007a1.16739 1.16739 0 0 1 -.45759 -.115l-.006-.002a1.27527 1.27527 0 0 1 -.28795 -.20193 1.747 1.747 0 0 1 -.14123 -.16685s-1.632 2.215-2.033 2.745a1.61207 1.61207 0 0 0 .683 .30332 5.41919 5.41919 0 0 0 .98405 .10119H15.754a1.29685 1.29685 0 0 0 1.22643 -1.08146C16.988 13.768 16.987 3.883 16.987 3.883" fill="#59813c"/><path d="M15.05185 1a1.31371 1.31371 0 0 1 1.31787 1.24352v8.826a1.23048 1.23048 0 0 1 -1.23159 1.24107H6.312a1.318 1.318 0 0 1 -1.31785 -1.24655v-8.82A1.231 1.231 0 0 1 6.226 1" fill="#9ae84f"/><path fill="#59813c" d="m15.16 1.46l-.002.017"/><path d="m4.164 1.186l-.038.049c.012-.011.028-.017.04-.027" fill="#fce481"/><path d="m10.878 11.919l1.639-1.237a1.03253 1.03253 0 0 0 .25043 -1.36356 1.01923 1.01923 0 0 0 -1.46929 -.3214l-.984.743a1.01922 1.01922 0 0 0 .09364 -1.50111 1.03253 1.03253 0 0 0 -1.38 -.13292l-2.828 2.135-.065.049a1.03833 1.03833 0 0 0 -.14058 -1.34344 1.02533 1.02533 0 0 0 -1.33352 -.09087l-.595.449c-2.159 1.63-2.948 4.225-1.226 6.506 2.597 3.44 7.105-.476 7.105-.476l2.247-1.696a1.19733 1.19733 0 0 0 .2633 -1.47879 1.01923 1.01923 0 0 0 -1.46929 -.3214l-2.855 2.155" fill="#fff"/><path d="M5.56738 17.72461a3.98681 3.98681 0 0 1 -.43066 -.02148 3.79573 3.79573 0 0 1 -2.69629 -1.5918C.655 13.746 1.188 10.85 3.765 8.904l.594-.449a1.53136 1.53136 0 0 1 1.9873 .13574 1.61111 1.61111 0 0 1 .39063 .61719l1.99-1.502a1.53877 1.53877 0 0 1 2.05078 .19629 1.59585 1.59585 0 0 1 .34668 .61035A1.48116 1.48116 0 0 1 12.14453 8.332a1.58333 1.58333 0 0 1 1.04785 .72168 1.5403 1.5403 0 0 1 -.375 2.02734l-.422.318a1.60637 1.60637 0 0 1 .4834 .49609 1.68514 1.68514 0 0 1 -.333 2.09473L10.245 15.733A8.38448 8.38448 0 0 1 5.56738 17.72461M5.27246 9.15039a.51681 .51681 0 0 0 -.31152 .10352l-.594.449c-1.62 1.222-2.887 3.477-1.128 5.807a2.796 2.796 0 0 0 1.999 1.19824c2.074.22 4.354-1.732 4.379-1.752l2.273-1.718a.69946 .69946 0 0 0 .13867 -.81445 .57577 .57577 0 0 0 -.37891 -.26758 .44947 .44947 0 0 0 -.36328 .08105L8.431 14.393a.5 .5 0 1 1 -.60156 -.79883l2.744-2.071.003-.003 1.639-1.237a.53128 .53128 0 0 0 .12793 -.7002 .57848 .57848 0 0 0 -.37988 -.2666 .45484 .45484 0 0 0 -.36328 .08105l-.985.742a.5 .5 0 0 1 -.60156 -.79883 .45758 .45758 0 0 0 .17676 -.32617 .57933 .57933 0 0 0 -.15234 -.43945 .5325 .5325 0 0 0 -.709 -.06934L6.5 10.64a.54471 .54471 0 0 1 -.68359 -.01758 .474 .474 0 0 1 -.08789 -.626 .53527 .53527 0 0 0 -.08594 -.69434A.52831 .52831 0 0 0 5.27246 9.15039" fill="#59813c"/><path fill="#fff" d="m6.863 12.339l4.04-3.051"/><path d="M6.86328 12.83887a.5 .5 0 0 1 -.30078 -.89941l4.04-3.051a.5 .5 0 0 1 .60156 .79883l-4.04 3.051A.49972 .49972 0 0 1 6.86328 12.83887" fill="#59813c"/><path fill="#fff" d="m6.134 10.289l-1.341 1.012"/><path d="M4.793 11.80176a.5001 .5001 0 0 1 -.30176 -.89941L5.832 9.89a.50059 .50059 0 1 1 .60352 .79883l-1.341 1.013A.50464 .50464 0 0 1 4.793 11.80176" fill="#59813c"/><path d="M14.68164,5.87207a.49971.49971,0,0,1-.5-.5.5.5,0,0,0-1,0,.5.5,0,1,1-1,0,1.5,1.5,0,0,1,3,0A.49971.49971,0,0,1,14.68164,5.87207Z"/><path d="M8.68164,5.87207a.49971.49971,0,0,1-.5-.5.5.5,0,0,0-1,0,.5.5,0,0,1-1,0,1.5,1.5,0,0,1,3,0A.49971.49971,0,0,1,8.68164,5.87207Z"/></svg>